<svg baseProfile="full" class="PhysicalArchitectureBlank" font-family="'Open Sans','Segoe UI',Arial,sans-serif" font-size="10px" height="810" shape-rendering="geometricPrecision" version="1.1" viewBox="165 15 737 810" width="737" xmlns="http://www.w3.org/2000/svg" xmlns:ev="http://www.w3.org/2001/xml-events" xmlns:xlink="http://www.w3.org/1999/xlink"><defs><symbol id="PhysicalNodeComponentSymbol" stroke="#000" stroke-width="2" viewBox="0 0 79 79"><path d="M18 237h46v43H18z" fill="#ffff00" transform="translate(0 -218)" /><path d="M12 247h11v8H12z" fill="#ffff00" transform="translate(0 -218)" /><path d="M12 261h11v8H12z" fill="#ffff00" transform="translate(0 -218)" /><path d="m 57.589299,33.276194 c 0,1.410473 -0.249326,2.72122 -0.747979,3.93224 -0.484407,1.19676 -1.168275,2.236807 -2.051603,3.12014 -1.097038,1.097033 -2.393538,1.923373 -3.889499,2.47902 -1.495959,0.541393 -3.383718,0.81209 -5.663277,0.81209 h -4.231429 v 11.86083 h -4.23143 v -31.82122 h 8.633826 c 1.909129,0 3.526191,0.163843 4.851185,0.49153 1.324993,0.31344 2.500391,0.812097 3.526192,1.49597 1.211016,0.812087 2.14421,1.82364 2.799583,3.03466 0.669621,1.211013 1.004431,2.742593 1.004431,4.59474 z m -4.402396,0.10687 c 0,-1.09704 -0.192339,-2.051607 -0.577016,-2.8637 -0.384675,-0.812093 -0.968811,-1.47459 -1.752408,-1.98749 -0.683868,-0.441667 -1.467467,-0.755107 -2.350798,-0.94032 -0.869079,-0.19946 -1.97324,-0.29919 -3.312483,-0.29919 h -4.188686 v 12.71566 h 3.568931 c 1.709669,0 3.098776,-0.149593 4.167321,-0.44878 1.068543,-0.31344 1.937623,-0.80497 2.607242,-1.47459 0.669621,-0.683867 1.139781,-1.403353 1.410478,-2.15846 0.284946,-0.7551 0.427419,-1.60281 0.427419,-2.54313 z" fill="#000" stroke-width="0.1" /></symbol><linearGradient id="CustomGradient_FFFFDC_FFFCB7" x1="0" x2="0" y1="0" y2="1"><stop offset="0.0" stop-color="#FFFFDC" stop-opacity="1" /><stop offset="1.0" stop-color="#FFFCB7" stop-opacity="1" /></linearGradient><symbol id="PhysicalBehaviorComponentSymbol" stroke="#000" stroke-width="2" viewBox="0 0 79 79"><path d="M18 237h46v43H18z" fill="#a5bde7" transform="translate(0 -218)" /><path d="M12 247h11v8H12z" fill="#a5bde7" transform="translate(0 -218)" /><path d="M12 261h11v8H12z" fill="#a5bde7" transform="translate(0 -218)" /><path d="m 57.589299,33.276194 c 0,1.410473 -0.249326,2.72122 -0.747979,3.93224 -0.484407,1.19676 -1.168275,2.236807 -2.051603,3.12014 -1.097038,1.097033 -2.393538,1.923373 -3.889499,2.47902 -1.495959,0.541393 -3.383718,0.81209 -5.663277,0.81209 h -4.231429 v 11.86083 h -4.23143 v -31.82122 h 8.633826 c 1.909129,0 3.526191,0.163843 4.851185,0.49153 1.324993,0.31344 2.500391,0.812097 3.526192,1.49597 1.211016,0.812087 2.14421,1.82364 2.799583,3.03466 0.669621,1.211013 1.004431,2.742593 1.004431,4.59474 z m -4.402396,0.10687 c 0,-1.09704 -0.192339,-2.051607 -0.577016,-2.8637 -0.384675,-0.812093 -0.968811,-1.47459 -1.752408,-1.98749 -0.683868,-0.441667 -1.467467,-0.755107 -2.350798,-0.94032 -0.869079,-0.19946 -1.97324,-0.29919 -3.312483,-0.29919 h -4.188686 v 12.71566 h 3.568931 c 1.709669,0 3.098776,-0.149593 4.167321,-0.44878 1.068543,-0.31344 1.937623,-0.80497 2.607242,-1.47459 0.669621,-0.683867 1.139781,-1.403353 1.410478,-2.15846 0.284946,-0.7551 0.427419,-1.60281 0.427419,-2.54313 z" fill="#000" stroke-width="0.1" /></symbol><linearGradient id="CustomGradient_C3E6FF_96B1DA" x1="0" x2="0" y1="0" y2="1"><stop offset="0.0" stop-color="#C3E6FF" stop-opacity="1" /><stop offset="1.0" stop-color="#96B1DA" stop-opacity="1" /></linearGradient><symbol id="ComponentPortSymbol" viewBox="0 0 10 10"><path d="M0 0h10v10H0z" /><path d="M 2,2 5,7 8,2" /></symbol><symbol id="PhysicalLinkSymbol" viewBox="0 0 40 30"><linearGradient id="PhysicalLinkSymbol-gradient" x1="0" x2="1" y1="0" y2="1"><stop offset="0.0" stop-color="#DFDF00" stop-opacity="1" /><stop offset="1.0" stop-color="#E8E809" stop-opacity="1" /></linearGradient><linearGradient id="PhysicalLinkSymbol-gradientreverse" x1="0" x2="1" y1="0" y2="1"><stop offset="0.0" stop-color="#E8E809" stop-opacity="1" /><stop offset="1.0" stop-color="#DFDF00" stop-opacity="1" /></linearGradient><g stroke="#000" stroke-width="2"><path d="M 36.190065,5.0377724 V 24.962228 H 26.17482 V 5.0377724 Z" fill="url(#PhysicalLinkSymbol-gradientreverse)" /><path d="m 14.372107,10 h 12.622435 c 0.926189,0.585267 1.836022,1.274509 2.268178,5 -0.208657,2.812473 -0.954601,4.503809 -2.273297,5 H 14.296948" fill="#F60A0A" /><path d="M 3.9464908,5.0048246 V 24.995175 H 10.87518 C 12.433713,24.159139 15.158267,20.291241 15.313795,15 15.498614,11.583142 14.059659,6.6240913 10.87518,5.0048246 c -2.2179509,0 -4.5908341,0 -6.9286892,0 z" fill="url(#PhysicalLinkSymbol-gradient)" /></g></symbol><symbol id="ComponentExchangeSymbol" viewBox="0 0 40 30"><linearGradient id="ComponentExchangeSymbol-gradient" x1="0" x2="1" y1="0" y2="1"><stop offset="0.0" stop-color="#8FA5B6" stop-opacity="1" /><stop offset="1.0" stop-color="#E0E9F3" stop-opacity="1" /></linearGradient><linearGradient id="ComponentExchangeSymbol-gradientreverse" x1="0" x2="1" y1="0" y2="1"><stop offset="0.0" stop-color="#E0E9F3" stop-opacity="1" /><stop offset="1.0" stop-color="#8FA5B6" stop-opacity="1" /></linearGradient><g stroke="#000" stroke-width="2"><path d="M 36.190065,5.0377724 V 24.962228 H 26.17482 V 5.0377724 Z" fill="url(#ComponentExchangeSymbol-gradientreverse)" /><path d="m 14.372107,10 h 12.622435 c 0.926189,0.585267 1.836022,1.274509 2.268178,5 -0.208657,2.812473 -0.954601,4.503809 -2.273297,5 H 14.296948" fill="#A3BCD0" /><path d="M 3.9464908,5.0048246 V 24.995175 H 10.87518 C 12.433713,24.159139 15.158267,20.291241 15.313795,15 15.498614,11.583142 14.059659,6.6240913 10.87518,5.0048246 c -2.2179509,0 -4.5908341,0 -6.9286892,0 z" fill="url(#ComponentExchangeSymbol-gradient)" /></g></symbol></defs><rect fill="#fff" height="810" stroke="none" width="737" x="165" y="15" /><g class="Box PhysicalNodeComponent" id="_fKTsUFIqEeyiRNlyKPJwqw"><rect class="PhysicalNodeComponent" fill="url(&quot;#CustomGradient_FFFFDC_FFFCB7&quot;)" height="790" stroke="#7B694F" stroke-width="1" width="671" x="175.5" y="25.5" /><text class="PhysicalNodeComponent" dominant-baseline="middle" fill="#000000" text-anchor="middle" x="175" y="25"><tspan x="521.0" xml:space="preserve" y="33.714285714285715">Vehicle</tspan></text><use height="20" width="20" x="485.0" xlink:href="#PhysicalNodeComponentSymbol" y="23.714285714285715" /></g><g class="Box PhysicalNodeComponent" id="_gvL_cFIqEeyiRNlyKPJwqw"><rect class="PhysicalNodeComponent" fill="url(&quot;#CustomGradient_FFFFDC_FFFCB7&quot;)" height="730" stroke="#7B694F" stroke-width="1" width="411" x="425.5" y="54.5" /><text class="PhysicalNodeComponent" dominant-baseline="middle" fill="#000000" text-anchor="middle" x="425" y="54"><tspan x="641.0" xml:space="preserve" y="64.85714285714286">Equipment compartment</tspan></text><use height="20" width="20" x="563.0" xlink:href="#PhysicalNodeComponentSymbol" y="54.85714285714286" /></g><g class="Box PhysicalNodeComponent" id="_maCCYFIqEeyiRNlyKPJwqw"><rect class="PhysicalNodeComponent" fill="url(&quot;#CustomGradient_FFFFDC_FFFCB7&quot;)" height="530" stroke="#7B694F" stroke-width="1" width="251" x="435.5" y="243.5" /><text class="PhysicalNodeComponent" dominant-baseline="middle" fill="#000000" text-anchor="middle" x="435" y="243"><tspan x="571.0" xml:space="preserve" y="251.71428571428572">Server</tspan></text><use height="20" width="20" x="537.0" xlink:href="#PhysicalNodeComponentSymbol" y="241.71428571428572" /></g><g class="Box PhysicalNodeComponent context-_9ZAtVFIvEeyiRNlyKPJwqw context-_OkfPGI2-Eeyw3cETtdpa6g context-_iu7vNI2-Eeyw3cETtdpa6g context-_xXlfoFIrEeyiRNlyKPJwqw context-_xXmGsFIrEeyiRNlyKPJwqw" id="_s9csEFIqEeyiRNlyKPJwqw"><rect class="PhysicalNodeComponent" fill="url(&quot;#CustomGradient_FFFFDC_FFFCB7&quot;)" height="321" stroke="#7B694F" stroke-width="1" width="231" x="445.5" y="272.5" /><text class="PhysicalNodeComponent" dominant-baseline="middle" fill="#000000" text-anchor="middle" x="445" y="272"><tspan x="571.0" xml:space="preserve" y="282.85714285714283">Compute Card 1</tspan></text><use height="20" width="20" x="514.0" xlink:href="#PhysicalNodeComponentSymbol" y="272.85714285714283" /></g><g class="Box PhysicalBehaviorComponent context-_9ZAtVFIvEeyiRNlyKPJwqw context-_Sgbd4FIuEeyiRNlyKPJwqw context-_SggWYFIuEeyiRNlyKPJwqw context-_hH4Rwo2-Eeyw3cETtdpa6g context-_hHzZRY2-Eeyw3cETtdpa6g context-_iu7vNI2-Eeyw3cETtdpa6g context-_m4vv8FIwEeyiRNlyKPJwqw" id="_Ef4boFIrEeyiRNlyKPJwqw"><rect class="PhysicalBehaviorComponent" fill="url(&quot;#CustomGradient_C3E6FF_96B1DA&quot;)" height="141" rx="10px" ry="10px" stroke="#4A4A97" stroke-width="1" width="181" x="465.5" y="301.5" /><text class="PhysicalBehaviorComponent" dominant-baseline="middle" fill="#000000" font-style="italic" text-anchor="middle" x="465" y="301"><tspan x="566.0" xml:space="preserve" y="309.7142857142857">Card 1 OS</tspan></text><use height="20" width="20" x="524.0" xlink:href="#PhysicalBehaviorComponentSymbol" y="299.7142857142857" /></g><g class="Box PhysicalBehaviorComponent context-_oua_g1ItEeyiRNlyKPJwqw context-_oucNoFItEeyiRNlyKPJwqw context-_sK5tcFItEeyiRNlyKPJwqw context-_sK7ioVItEeyiRNlyKPJwqw" id="_32KFkFIrEeyiRNlyKPJwqw"><rect class="PhysicalBehaviorComponent" fill="url(&quot;#CustomGradient_C3E6FF_96B1DA&quot;)" height="31" rx="10px" ry="10px" stroke="#4A4A97" stroke-width="1" width="141" x="485.5" y="330.5" /><text class="PhysicalBehaviorComponent" dominant-baseline="middle" fill="#000000" font-style="italic" text-anchor="middle" x="485" y="330"><tspan x="566.0" xml:space="preserve" y="338.7142857142857">Camera Driver SWC</tspan></text><use height="20" width="20" x="501.5" xlink:href="#PhysicalBehaviorComponentSymbol" y="328.7142857142857" /></g><g class="Box CP_IN context-_oucNoFItEeyiRNlyKPJwqw" id="_oua_g1ItEeyiRNlyKPJwqw"><use class="CP_IN" fill="#FFFFFF" height="10" stroke="#000000" stroke-width="1" transform="rotate(270 488.5 346.5)" width="10" x="483.5" xlink:href="#ComponentPortSymbol" y="341.5" /></g><g class="Box CP_OUT context-_sK7ioVItEeyiRNlyKPJwqw" id="_sK5tcFItEeyiRNlyKPJwqw"><use class="CP_OUT" fill="#FFFFFF" height="10" stroke="#000000" stroke-width="1" transform="rotate(-90 623.5 347.5)" width="10" x="618.5" xlink:href="#ComponentPortSymbol" y="342.5" /></g><g class="Box PhysicalBehaviorComponent context-_m4vv8FIwEeyiRNlyKPJwqw context-_pw3CAFIvEeyiRNlyKPJwqw context-_pwywkFIvEeyiRNlyKPJwqw context-_sK67kFItEeyiRNlyKPJwqw context-_sK7ioVItEeyiRNlyKPJwqw" id="_j7FBwFIsEeyiRNlyKPJwqw"><rect class="PhysicalBehaviorComponent" fill="url(&quot;#CustomGradient_C3E6FF_96B1DA&quot;)" height="31" rx="10px" ry="10px" stroke="#4A4A97" stroke-width="1" width="141" x="485.5" y="400.5" /><text class="PhysicalBehaviorComponent" dominant-baseline="middle" fill="#000000" font-style="italic" text-anchor="middle" x="485" y="400"><tspan x="566.0" xml:space="preserve" y="410.85714285714283">App 1 SWC</tspan></text><use height="20" width="20" x="521.5" xlink:href="#PhysicalBehaviorComponentSymbol" y="400.85714285714283" /></g><g class="Box CP_IN context-_sK7ioVItEeyiRNlyKPJwqw" id="_sK67kFItEeyiRNlyKPJwqw"><use class="CP_IN" fill="#FFFFFF" height="10" stroke="#000000" stroke-width="1" transform="rotate(270 488.5 416.5)" width="10" x="483.5" xlink:href="#ComponentPortSymbol" y="411.5" /></g><g class="Box CP_OUT context-_m4vv8FIwEeyiRNlyKPJwqw context-_pw3CAFIvEeyiRNlyKPJwqw" id="_pwywkFIvEeyiRNlyKPJwqw"><use class="CP_OUT" fill="#FFFFFF" height="10" stroke="#000000" stroke-width="1" transform="rotate(-90 623.5 416.5)" width="10" x="618.5" xlink:href="#ComponentPortSymbol" y="411.5" /></g><g class="Box CP_INOUT context-_9ZAtVFIvEeyiRNlyKPJwqw context-_SggWYFIuEeyiRNlyKPJwqw context-_m4vv8FIwEeyiRNlyKPJwqw" id="_Sgbd4FIuEeyiRNlyKPJwqw"><rect class="CP_INOUT" fill="#FFFFFF" height="10" stroke="#000000" stroke-width="1" transform="rotate(-90 643.5 328.5)" width="10" x="638.5" y="323.5" /></g><g class="Box CP_OUT context-_hH4Rwo2-Eeyw3cETtdpa6g context-_iu7vNI2-Eeyw3cETtdpa6g" id="_hHzZRY2-Eeyw3cETtdpa6g"><use class="CP_OUT" fill="#FFFFFF" height="10" stroke="#000000" stroke-width="1" transform="rotate(90 468.5 306.5)" width="10" x="463.5" xlink:href="#ComponentPortSymbol" y="301.5" /></g><g class="Box PhysicalNodeComponent" id="_nicnQFK_Eey20fzX2riFkQ"><rect class="PhysicalNodeComponent" fill="url(&quot;#CustomGradient_FFFFDC_FFFCB7&quot;)" height="98" stroke="#7B694F" stroke-width="1" width="180" x="465.5" y="471.5" /><text class="PhysicalNodeComponent" dominant-baseline="middle" fill="#000000" text-anchor="middle" x="465" y="471"><tspan x="565.5" xml:space="preserve" y="481.85714285714283">Cooling Fan</tspan></text><use height="20" width="20" x="519.5" xlink:href="#PhysicalNodeComponentSymbol" y="471.85714285714283" /></g><g class="Box PP context-_9ZAtVFIvEeyiRNlyKPJwqw context-_OkfPGI2-Eeyw3cETtdpa6g context-_iu7vNI2-Eeyw3cETtdpa6g context-_xXmGsFIrEeyiRNlyKPJwqw" id="_xXlfoFIrEeyiRNlyKPJwqw"><rect class="PP" fill="#FFF477" height="10" stroke="#7B694F" stroke-width="1" width="10" x="668.5" y="295.5" /><text class="PP" dominant-baseline="middle" text-anchor="middle" x="681" y="293"><tspan x="688.0" xml:space="preserve" y="299.7142857142857">X2...</tspan></text></g><g class="Box PhysicalNodeComponent context-_A46ixVIwEeyiRNlyKPJwqw context-_NqsTcFItEeyiRNlyKPJwqw context-_NqthklItEeyiRNlyKPJwqw context-_OkfPGI2-Eeyw3cETtdpa6g context-_iu7vOY2-Eeyw3cETtdpa6g" id="_5dI1AFIsEeyiRNlyKPJwqw"><rect class="PhysicalNodeComponent" fill="url(&quot;#CustomGradient_FFFFDC_FFFCB7&quot;)" height="121" stroke="#7B694F" stroke-width="1" width="231" x="445.5" y="642.5" /><text class="PhysicalNodeComponent" dominant-baseline="middle" fill="#000000" text-anchor="middle" x="445" y="642"><tspan x="571.0" xml:space="preserve" y="652.8571428571429">Compute Card 2</tspan></text><use height="20" width="20" x="514.0" xlink:href="#PhysicalNodeComponentSymbol" y="642.8571428571429" /></g><g class="Box PhysicalBehaviorComponent context-_6WTmwFIuEeyiRNlyKPJwqw context-_6WU04lIuEeyiRNlyKPJwqw context-_A46ixVIwEeyiRNlyKPJwqw context-_hH0nZ42-Eeyw3cETtdpa6g context-_hH4Rwo2-Eeyw3cETtdpa6g context-_iu7vOY2-Eeyw3cETtdpa6g context-_jk1vMFIwEeyiRNlyKPJwqw" id="_8MhMYFIsEeyiRNlyKPJwqw"><rect class="PhysicalBehaviorComponent" fill="url(&quot;#CustomGradient_C3E6FF_96B1DA&quot;)" height="69" rx="10px" ry="10px" stroke="#4A4A97" stroke-width="1" width="161" x="475.5" y="671.5" /><text class="PhysicalBehaviorComponent" dominant-baseline="middle" fill="#000000" font-style="italic" text-anchor="middle" x="475" y="671"><tspan x="566.0" xml:space="preserve" y="679.7142857142857">Card 2 OS</tspan></text><use height="20" width="20" x="524.0" xlink:href="#PhysicalBehaviorComponentSymbol" y="669.7142857142857" /></g><g class="Box PhysicalBehaviorComponent context-_jk1vMFIwEeyiRNlyKPJwqw context-_pw1M0FIvEeyiRNlyKPJwqw context-_pw3CAFIvEeyiRNlyKPJwqw" id="_E8hCYFItEeyiRNlyKPJwqw"><rect class="PhysicalBehaviorComponent" fill="url(&quot;#CustomGradient_C3E6FF_96B1DA&quot;)" height="31" rx="10px" ry="10px" stroke="#4A4A97" stroke-width="1" width="141" x="485.5" y="700.5" /><text class="PhysicalBehaviorComponent" dominant-baseline="middle" fill="#000000" font-style="italic" text-anchor="middle" x="485" y="700"><tspan x="566.0" xml:space="preserve" y="710.8571428571429">App 2 SWC</tspan></text><use height="20" width="20" x="521.5" xlink:href="#PhysicalBehaviorComponentSymbol" y="700.8571428571429" /></g><g class="Box CP_IN context-_jk1vMFIwEeyiRNlyKPJwqw context-_pw3CAFIvEeyiRNlyKPJwqw" id="_pw1M0FIvEeyiRNlyKPJwqw"><use class="CP_IN" fill="#FFFFFF" height="10" stroke="#000000" stroke-width="1" transform="rotate(270 488.5 716.5)" width="10" x="483.5" xlink:href="#ComponentPortSymbol" y="711.5" /></g><g class="Box CP_INOUT context-_6WU04lIuEeyiRNlyKPJwqw context-_A46ixVIwEeyiRNlyKPJwqw context-_jk1vMFIwEeyiRNlyKPJwqw" id="_6WTmwFIuEeyiRNlyKPJwqw"><rect class="CP_INOUT" fill="#FFFFFF" height="10" stroke="#000000" stroke-width="1" transform="rotate(-90 633.5 697.5)" width="10" x="628.5" y="692.5" /></g><g class="Box CP_IN context-_hH4Rwo2-Eeyw3cETtdpa6g context-_iu7vOY2-Eeyw3cETtdpa6g" id="_hH0nZ42-Eeyw3cETtdpa6g"><use class="CP_IN" fill="#FFFFFF" height="10" stroke="#000000" stroke-width="1" transform="rotate(270 478.5 677.5)" width="10" x="473.5" xlink:href="#ComponentPortSymbol" y="672.5" /></g><g class="Box PP context-_A46ixVIwEeyiRNlyKPJwqw context-_NqthklItEeyiRNlyKPJwqw context-_OkfPGI2-Eeyw3cETtdpa6g context-_iu7vOY2-Eeyw3cETtdpa6g" id="_NqsTcFItEeyiRNlyKPJwqw"><rect class="PP" fill="#FFF477" height="10" stroke="#7B694F" stroke-width="1" width="10" x="668.5" y="713.5" /><text class="PP" dominant-baseline="middle" text-anchor="middle" x="681" y="712"><tspan x="688.0" xml:space="preserve" y="718.7142857142857">X2...</tspan></text></g><g class="Box PhysicalNodeComponent context-_6Bf-8FIvEeyiRNlyKPJwqw context-_9ZAGUFIvEeyiRNlyKPJwqw context-_A46iwFIwEeyiRNlyKPJwqw context-_Nqs6glItEeyiRNlyKPJwqw context-_NqthklItEeyiRNlyKPJwqw context-_TGEPoFIwEeyiRNlyKPJwqw context-_wa-GYFIrEeyiRNlyKPJwqw context-_wap9UFIrEeyiRNlyKPJwqw context-_xXkRgFIrEeyiRNlyKPJwqw context-_xXmGsFIrEeyiRNlyKPJwqw" id="__bD24FIqEeyiRNlyKPJwqw"><rect class="PhysicalNodeComponent" fill="url(&quot;#CustomGradient_FFFFDC_FFFCB7&quot;)" height="151" stroke="#7B694F" stroke-width="1" width="251" x="435.5" y="83.5" /><text class="PhysicalNodeComponent" dominant-baseline="middle" fill="#000000" text-anchor="middle" x="435" y="83"><tspan x="571.0" xml:space="preserve" y="91.71428571428572">Network Switch</tspan></text><use height="20" width="20" x="515.5" xlink:href="#PhysicalNodeComponentSymbol" y="81.71428571428572" /></g><g class="Box PhysicalBehaviorComponent context-_6Bf-8FIvEeyiRNlyKPJwqw context-_6WU04lIuEeyiRNlyKPJwqw context-_6WUN0lIuEeyiRNlyKPJwqw context-_9ZAGUFIvEeyiRNlyKPJwqw context-_A46iwFIwEeyiRNlyKPJwqw context-_Sgd6IFIuEeyiRNlyKPJwqw context-_SggWYFIuEeyiRNlyKPJwqw context-_iU6N0VIvEeyiRNlyKPJwqw context-_iU7b8FIvEeyiRNlyKPJwqw" id="_JQdOsFIrEeyiRNlyKPJwqw"><rect class="PhysicalBehaviorComponent" fill="url(&quot;#CustomGradient_C3E6FF_96B1DA&quot;)" height="61" rx="10px" ry="10px" stroke="#4A4A97" stroke-width="1" width="149" x="485.5" y="122.5" /><text class="PhysicalBehaviorComponent" dominant-baseline="middle" fill="#000000" font-style="italic" text-anchor="middle" x="485" y="122"><tspan x="570.0" xml:space="preserve" y="130.71428571428572">Switch Firmware</tspan></text><use height="20" width="20" x="512.5" xlink:href="#PhysicalBehaviorComponentSymbol" y="120.71428571428572" /></g><g class="Box CP_INOUT context-_9ZAGUFIvEeyiRNlyKPJwqw context-_SggWYFIuEeyiRNlyKPJwqw" id="_Sgd6IFIuEeyiRNlyKPJwqw"><rect class="CP_INOUT" fill="#FFFFFF" height="10" stroke="#000000" stroke-width="1" transform="rotate(-90 631.5 168.5)" width="10" x="626.5" y="163.5" /></g><g class="Box CP_INOUT context-_6WU04lIuEeyiRNlyKPJwqw context-_A46iwFIwEeyiRNlyKPJwqw" id="_6WUN0lIuEeyiRNlyKPJwqw"><rect class="CP_INOUT" fill="#FFFFFF" height="10" stroke="#000000" stroke-width="1" transform="rotate(-90 631.5 138.5)" width="10" x="626.5" y="133.5" /></g><g class="Box CP_INOUT context-_6Bf-8FIvEeyiRNlyKPJwqw context-_iU7b8FIvEeyiRNlyKPJwqw" id="_iU6N0VIvEeyiRNlyKPJwqw"><rect class="CP_INOUT" fill="#FFFFFF" height="10" stroke="#000000" stroke-width="1" transform="rotate(90 488.5 168.5)" width="10" x="483.5" y="163.5" /></g><g class="Box PhysicalBehaviorComponent" id="_MP2_EFIrEeyiRNlyKPJwqw"><rect class="PhysicalBehaviorComponent" fill="url(&quot;#CustomGradient_C3E6FF_96B1DA&quot;)" height="31" rx="10px" ry="10px" stroke="#4A4A97" stroke-width="1" width="148" x="465.5" y="192.5" /><text class="PhysicalBehaviorComponent" dominant-baseline="middle" fill="#000000" font-style="italic" text-anchor="middle" x="465" y="192"><tspan x="549.5" xml:space="preserve" y="202.85714285714286">Switch Configuration</tspan></text><use height="20" width="20" x="482.0" xlink:href="#PhysicalBehaviorComponentSymbol" y="192.85714285714286" /></g><g class="Box PP context-_6Bf-8FIvEeyiRNlyKPJwqw context-_wa-GYFIrEeyiRNlyKPJwqw" id="_wap9UFIrEeyiRNlyKPJwqw"><rect class="PP" fill="#FFF477" height="10" stroke="#7B694F" stroke-width="1" width="10" x="433.5" y="124.5" /><text class="PP" dominant-baseline="middle" text-anchor="middle" x="446" y="123"><tspan x="453.0" xml:space="preserve" y="129.71428571428572">P1...</tspan></text></g><g class="Box PP context-_9ZAGUFIvEeyiRNlyKPJwqw context-_TGEPoFIwEeyiRNlyKPJwqw context-_xXmGsFIrEeyiRNlyKPJwqw" id="_xXkRgFIrEeyiRNlyKPJwqw"><rect class="PP" fill="#FFF477" height="10" stroke="#7B694F" stroke-width="1" width="10" x="678.5" y="205.5" /><text class="PP" dominant-baseline="middle" text-anchor="middle" x="691" y="204"><tspan x="698.0" xml:space="preserve" y="210.71428571428572">P3...</tspan></text></g><g class="Box PP context-_A46iwFIwEeyiRNlyKPJwqw context-_NqthklItEeyiRNlyKPJwqw context-_TGEPoFIwEeyiRNlyKPJwqw" id="_Nqs6glItEeyiRNlyKPJwqw"><rect class="PP" fill="#FFF477" height="10" stroke="#7B694F" stroke-width="1" width="10" x="678.5" y="104.5" /><text class="PP" dominant-baseline="middle" text-anchor="middle" x="691" y="103"><tspan x="698.0" xml:space="preserve" y="109.71428571428571">P2...</tspan></text></g><g class="Box PhysicalNodeComponent" id="_31cwYFIqEeyiRNlyKPJwqw"><rect class="PhysicalNodeComponent" fill="url(&quot;#CustomGradient_FFFFDC_FFFCB7&quot;)" height="191" stroke="#7B694F" stroke-width="1" width="151" x="195.5" y="54.5" /><text class="PhysicalNodeComponent" dominant-baseline="middle" fill="#000000" text-anchor="middle" x="195" y="54"><tspan x="281.0" xml:space="preserve" y="64.85714285714286">Sensor compartment</tspan></text><use height="20" width="20" x="212.5" xlink:href="#PhysicalNodeComponentSymbol" y="54.85714285714286" /></g><g class="Box PhysicalNodeComponent context-_6BgmAlIvEeyiRNlyKPJwqw context-_wa-GYFIrEeyiRNlyKPJwqw context-_wanhEFIrEeyiRNlyKPJwqw" id="_XBG7IFIrEeyiRNlyKPJwqw"><rect class="PhysicalNodeComponent" fill="url(&quot;#CustomGradient_FFFFDC_FFFCB7&quot;)" height="141" stroke="#7B694F" stroke-width="1" width="121" x="205.5" y="83.5" /><text class="PhysicalNodeComponent" dominant-baseline="middle" fill="#000000" text-anchor="middle" x="205" y="83"><tspan x="276.0" xml:space="preserve" y="93.85714285714286">Camera Assembly</tspan></text><use height="20" width="20" x="215.0" xlink:href="#PhysicalNodeComponentSymbol" y="83.85714285714286" /></g><g class="Box PhysicalBehaviorComponent context-_6BgmAlIvEeyiRNlyKPJwqw context-_iU4_sFIvEeyiRNlyKPJwqw context-_iU7b8FIvEeyiRNlyKPJwqw context-_ouaYcFItEeyiRNlyKPJwqw context-_oucNoFItEeyiRNlyKPJwqw" id="_aZqLUFIrEeyiRNlyKPJwqw"><rect class="PhysicalBehaviorComponent" fill="url(&quot;#CustomGradient_C3E6FF_96B1DA&quot;)" height="61" rx="10px" ry="10px" stroke="#4A4A97" stroke-width="1" width="91" x="215.5" y="142.5" /><text class="PhysicalBehaviorComponent" dominant-baseline="middle" fill="#000000" font-style="italic" text-anchor="middle" x="215" y="142"><tspan x="271.0" xml:space="preserve" y="150.71428571428572">Camera</tspan><tspan x="271.0" xml:space="preserve" y="162.14285714285714">Firmware</tspan></text><use height="20" width="20" x="230.0" xlink:href="#PhysicalBehaviorComponentSymbol" y="144.8701298701299" /></g><g class="Box CP_OUT context-_oucNoFItEeyiRNlyKPJwqw" id="_ouaYcFItEeyiRNlyKPJwqw"><use class="CP_OUT" fill="#FFFFFF" height="10" stroke="#000000" stroke-width="1" transform="rotate(-90 303.5 188.5)" width="10" x="298.5" xlink:href="#ComponentPortSymbol" y="183.5" /></g><g class="Box CP_INOUT context-_6BgmAlIvEeyiRNlyKPJwqw context-_iU7b8FIvEeyiRNlyKPJwqw" id="_iU4_sFIvEeyiRNlyKPJwqw"><rect class="CP_INOUT" fill="#FFFFFF" height="10" stroke="#000000" stroke-width="1" transform="rotate(-90 303.5 168.5)" width="10" x="298.5" y="163.5" /></g><g class="Box PP context-_6BgmAlIvEeyiRNlyKPJwqw context-_wa-GYFIrEeyiRNlyKPJwqw" id="_wanhEFIrEeyiRNlyKPJwqw"><rect class="PP" fill="#FFF477" height="10" stroke="#7B694F" stroke-width="1" width="10" x="318.5" y="124.5" /></g><g class="Box PhysicalPath" id="_TEp6YFIwEeyiRNlyKPJwqw"><rect class="PhysicalPath" fill="#1872F8" height="20" stroke="#000000" stroke-width="1" width="20" x="872.5" y="333.5" /><text class="PhysicalPath" dominant-baseline="middle" text-anchor="middle" x="872" y="320.14285714285717"><tspan x="882.0" xml:space="preserve" y="326.8571428571429">card1</tspan><tspan x="882.0" xml:space="preserve" y="338.28571428571433">-...</tspan></text></g><g class="Edge PhysicalLink" id="_wa-GYFIrEeyiRNlyKPJwqw"><path class="Edge" d="M 328.5 129.5 433.5 129.5" fill="none" stroke="#EF2929" stroke-width="2" /><text class="Annotation" dominant-baseline="middle" fill="#EF2929" text-anchor="middle" x="349.5" y="111"><tspan x="383.0" xml:space="preserve" y="119.71428571428572">PL 1</tspan></text><use height="20" width="20" x="353.0" xlink:href="#PhysicalLinkSymbol" y="109.71428571428572" /></g><g class="Edge PhysicalLink" id="_xXmGsFIrEeyiRNlyKPJwqw"><path class="Edge" d="M 688.5 210.5 688.5 210.5 800.5 210.5 800.5 300.5 678.5 300.5 678.5 300.5" fill="none" stroke="#1872F8" stroke-width="4" /><text class="Annotation" dominant-baseline="middle" fill="#EF2929" text-anchor="middle" x="710.5" y="187"><tspan x="763.0" xml:space="preserve" y="195.71428571428572">Eth Cable 2</tspan></text><use height="20" width="20" x="716.5" xlink:href="#PhysicalLinkSymbol" y="185.71428571428572" /></g><g class="Edge PhysicalLink" id="_NqthklItEeyiRNlyKPJwqw"><path class="Edge" d="M 678.5 718.5 678.5 718.5 834.5 718.5 834.5 108.5 688.5 108.5 688.5 109.5" fill="none" stroke="#1872F8" stroke-width="4" /><text class="Annotation" dominant-baseline="middle" fill="#EF2929" text-anchor="middle" x="698.5" y="94"><tspan x="751.0" xml:space="preserve" y="102.71428571428572">Eth Cable 3</tspan></text><use height="20" width="20" x="704.5" xlink:href="#PhysicalLinkSymbol" y="92.71428571428572" /></g><g class="Edge ComponentExchange" id="_oucNoFItEeyiRNlyKPJwqw"><path class="Edge" d="M 308.5 188.5 355.5 188.5 355.5 348.5 483.5 348.5 483.5 346.5" fill="none" stroke="#4A4A97" stroke-width="2" /><text class="Annotation" dominant-baseline="middle" fill="#4A4A97" text-anchor="middle" x="362.5" y="326"><tspan x="393.5" xml:space="preserve" y="334.7142857142857">C 1</tspan></text><use height="20" width="20" x="366.0" xlink:href="#ComponentExchangeSymbol" y="324.7142857142857" /></g><g class="Edge ComponentExchange" id="_sK7ioVItEeyiRNlyKPJwqw"><path class="Edge" d="M 628.5 347.5 635.5 347.5 635.5 391.5 475.5 391.5 475.5 416.5 483.5 416.5 483.5 416.5" fill="none" stroke="#4A4A97" stroke-width="2" /><text class="Annotation" dominant-baseline="middle" fill="#4A4A97" text-anchor="middle" x="481.5" y="373"><tspan x="512.5" xml:space="preserve" y="381.7142857142857">C 2</tspan></text><use height="20" width="20" x="485.0" xlink:href="#ComponentExchangeSymbol" y="371.7142857142857" /></g><g class="Edge ComponentExchange" id="_SggWYFIuEeyiRNlyKPJwqw"><path class="Edge" d="M 648.5 328.5 805.5 328.5 805.5 168.5 636.5 168.5 636.5 168.5" fill="none" stroke="#4A4A97" stroke-width="2" /><text class="Annotation" dominant-baseline="middle" fill="#4A4A97" text-anchor="middle" x="692.5" y="147"><tspan x="723.5" xml:space="preserve" y="155.71428571428572">C 3</tspan></text><use height="20" width="20" x="696.0" xlink:href="#ComponentExchangeSymbol" y="145.71428571428572" /></g><g class="Edge ComponentExchange" id="_6WU04lIuEeyiRNlyKPJwqw"><path class="Edge" d="M 638.5 697.5 815.5 697.5 815.5 137.5 636.5 137.5 636.5 138.5" fill="none" stroke="#4A4A97" stroke-width="2" /><text class="Annotation" dominant-baseline="middle" fill="#4A4A97" text-anchor="middle" x="692.5" y="124"><tspan x="723.5" xml:space="preserve" y="132.71428571428572">C 4</tspan></text><use height="20" width="20" x="696.0" xlink:href="#ComponentExchangeSymbol" y="122.71428571428572" /></g><g class="Edge ComponentExchange" id="_iU7b8FIvEeyiRNlyKPJwqw"><path class="Edge" d="M 308.5 168.5 483.5 168.5" fill="none" stroke="#4A4A97" stroke-width="2" /><text class="Annotation" dominant-baseline="middle" fill="#4A4A97" text-anchor="middle" x="366.5" y="152"><tspan x="397.5" xml:space="preserve" y="160.71428571428572">C 5</tspan></text><use height="20" width="20" x="370.0" xlink:href="#ComponentExchangeSymbol" y="150.71428571428572" /></g><g class="Edge ComponentExchange" id="_pw3CAFIvEeyiRNlyKPJwqw"><path class="Edge" d="M 628.5 416.5 714.5 416.5 714.5 621.5 465.5 621.5 465.5 716.5 483.5 716.5 483.5 716.5" fill="none" stroke="#4A4A97" stroke-width="2" /><text class="Annotation" dominant-baseline="middle" fill="#4A4A97" text-anchor="middle" x="471.5" y="603"><tspan x="502.5" xml:space="preserve" y="611.7142857142857">C 6</tspan></text><use height="20" width="20" x="475.0" xlink:href="#ComponentExchangeSymbol" y="601.7142857142857" /></g><g class="Edge ComponentPortAllocation" id="_6Bf-8FIvEeyiRNlyKPJwqw"><path class="Edge" d="M 443.5 132.5 489.5 163.5" fill="none" stroke="#274C72" stroke-width="1" /><text class="Annotation" dominant-baseline="middle" text-anchor="middle" x="470" y="140"><tspan x="470.0" xml:space="preserve" y="143.0" /></text></g><g class="Edge ComponentPortAllocation" id="_6BgmAlIvEeyiRNlyKPJwqw"><path class="Edge" d="M 320.5 134.5 306.5 163.5" fill="none" stroke="#274C72" stroke-width="1" /><text class="Annotation" dominant-baseline="middle" text-anchor="middle" x="322" y="153"><tspan x="322.0" xml:space="preserve" y="156.0" /></text></g><g class="Edge ComponentPortAllocation" id="_9ZAGUFIvEeyiRNlyKPJwqw"><path class="Edge" d="M 684.5 205.5 636.5 171.5" fill="none" stroke="#274C72" stroke-width="1" /><text class="Annotation" dominant-baseline="middle" text-anchor="middle" x="656" y="197"><tspan x="656.0" xml:space="preserve" y="200.0" /></text></g><g class="Edge ComponentPortAllocation" id="_9ZAtVFIvEeyiRNlyKPJwqw"><path class="Edge" d="M 674.5 305.5 648.5 324.5" fill="none" stroke="#274C72" stroke-width="1" /><text class="Annotation" dominant-baseline="middle" text-anchor="middle" x="667" y="323"><tspan x="667.0" xml:space="preserve" y="326.0" /></text></g><g class="Edge ComponentPortAllocation" id="_A46iwFIwEeyiRNlyKPJwqw"><path class="Edge" d="M 680.5 114.5 636.5 136.5" fill="none" stroke="#274C72" stroke-width="1" /><text class="Annotation" dominant-baseline="middle" text-anchor="middle" x="656" y="133"><tspan x="656.0" xml:space="preserve" y="136.0" /></text></g><g class="Edge ComponentPortAllocation" id="_A46ixVIwEeyiRNlyKPJwqw"><path class="Edge" d="M 671.5 713.5 638.5 699.5" fill="none" stroke="#274C72" stroke-width="1" /><text class="Annotation" dominant-baseline="middle" text-anchor="middle" x="651" y="715"><tspan x="651.0" xml:space="preserve" y="718.0" /></text></g><g class="Edge PhysicalPath" id="_TGEPoFIwEeyiRNlyKPJwqw"><path class="Edge" d="M 682.5 205.5 674.5 159.5 682.5 114.5" fill="none" stroke="#1872F8" stroke-width="4" /><text class="Annotation" dominant-baseline="middle" text-anchor="middle" x="608" y="144"><tspan x="674.5" xml:space="preserve" y="152.71428571428572">card1 - card2 connection</tspan></text></g><g class="Edge ComponentExchange" id="_jk1vMFIwEeyiRNlyKPJwqw"><path class="Edge" d="M 628.5 697.5 515.5 697.5 493.5 712.5" fill="none" stroke="#4A4A97" stroke-width="2" /><text class="Annotation" dominant-baseline="middle" fill="#4A4A97" text-anchor="middle" x="538.5" y="681"><tspan x="570.0" xml:space="preserve" y="689.7142857142857">D 7</tspan></text><use height="20" width="20" x="542.0" xlink:href="#ComponentExchangeSymbol" y="679.7142857142857" /></g><g class="Edge ComponentExchange" id="_m4vv8FIwEeyiRNlyKPJwqw"><path class="Edge" d="M 645.5 333.5 665.5 373.5 628.5 411.5" fill="none" stroke="#4A4A97" stroke-width="2" /><text class="Annotation" dominant-baseline="middle" fill="#4A4A97" text-anchor="middle" x="643.5" y="354"><tspan x="675.0" xml:space="preserve" y="362.7142857142857">D 8</tspan></text><use height="20" width="20" x="647.0" xlink:href="#ComponentExchangeSymbol" y="352.7142857142857" /></g><g class="Edge PhysicalLink" id="_OkfPGI2-Eeyw3cETtdpa6g"><path class="Edge" d="M 673.5 305.5 673.5 713.5" fill="none" stroke="#EF2929" stroke-width="2" /><text class="Annotation" dominant-baseline="middle" fill="#EF2929" text-anchor="middle" x="661.5" y="503"><tspan x="695.0" xml:space="preserve" y="511.7142857142857">PL 1</tspan></text><use height="20" width="20" x="665.0" xlink:href="#PhysicalLinkSymbol" y="501.7142857142857" /></g><g class="Edge ComponentExchange" id="_hH4Rwo2-Eeyw3cETtdpa6g"><path class="Edge" d="M 468.5 311.5 478.5 672.5" fill="none" stroke="#4A4A97" stroke-width="2" /><text class="Annotation" dominant-baseline="middle" fill="#4A4A97" text-anchor="middle" x="459.5" y="485"><tspan x="494.0" xml:space="preserve" y="493.7142857142857">C 10</tspan></text><use height="20" width="20" x="463.5" xlink:href="#ComponentExchangeSymbol" y="483.7142857142857" /></g><g class="Edge ComponentPortAllocation" id="_iu7vNI2-Eeyw3cETtdpa6g"><path class="Edge" d="M 668.5 299.5 473.5 306.5" fill="none" stroke="#274C72" stroke-width="1" /><text class="Annotation" dominant-baseline="middle" text-anchor="middle" x="571" y="313"><tspan x="571.0" xml:space="preserve" y="316.0" /></text></g><g class="Edge ComponentPortAllocation" id="_iu7vOY2-Eeyw3cETtdpa6g"><path class="Edge" d="M 668.5 714.5 483.5 678.5" fill="none" stroke="#274C72" stroke-width="1" /><text class="Annotation" dominant-baseline="middle" text-anchor="middle" x="574" y="706"><tspan x="574.0" xml:space="preserve" y="709.0" /></text></g></svg>