<svg baseProfile="full" class="ClassDiagramBlank" font-family="'Open Sans','Segoe UI',Arial,sans-serif" font-size="10px" height="421" shape-rendering="geometricPrecision" version="1.1" viewBox="15 15 271 421" width="271" xmlns="http://www.w3.org/2000/svg" xmlns:ev="http://www.w3.org/2001/xml-events" xmlns:xlink="http://www.w3.org/1999/xlink"><defs><symbol id="ClassSymbol" viewBox="0 0 25 25"><linearGradient id="ClassSymbol-gradient" x1="0" x2="0" y1="0" y2="1"><stop offset="0.0" stop-color="#cfa6a5" stop-opacity="1" /><stop offset="1.0" stop-color="#f1e2e3" stop-opacity="1" /></linearGradient><g stroke="#913734"><rect fill="#eedcdd" height="3" width="15" x="5" y="17" /><rect fill="#eedcdd" height="3" width="15" x="5" y="14" /><rect fill="url(#ClassSymbol-gradient)" height="10" width="15" x="5" y="4" /></g></symbol><linearGradient id="CustomGradient_FFFFFF_E8E0D2" x1="0" x2="0" y1="0" y2="1"><stop offset="0.0" stop-color="#FFFFFF" stop-opacity="1" /><stop offset="1.0" stop-color="#E8E0D2" stop-opacity="1" /></linearGradient><symbol id="ClassFeatureSymbol" viewBox="0 0 27 21"><linearGradient id="ClassFeatureSymbol-gradient" x1="0" x2="0" y1="0" y2="1"><stop offset="0.0" stop-color="#cfa6a5" stop-opacity="1" /><stop offset="1.0" stop-color="#f1e2e3" stop-opacity="1" /></linearGradient><g><rect fill="#913734" height="11.5" width="17" x="7" y="4" /><rect fill="url(#ClassFeatureSymbol-gradient)" height="9.5" width="17" x="7" y="5" /><circle cx="20.7" cy="12.1" fill="#f1e2e3" r="4.1" stroke="#913734" stroke-width="1" /></g></symbol><marker id="FineArrowMark_000000" markerHeight="7.5" markerUnits="userSpaceOnUse" markerWidth="7.5" orient="auto" refX="7" refY="3.75"><path d="M 0.4535,0.107 7.309,3.621 0.492,7.407 0.144,7.407 6.414,3.63 0.136,0.479 Z" stroke="#000000" stroke-width="1" /></marker></defs><rect fill="#fff" height="421" stroke="none" width="271" x="15" y="15" /><g class="Box Class context-_57ZBAMn-EeyS2Zr7ZWFrXA" id="_tZoJkMn-EeyS2Zr7ZWFrXA"><rect class="Class" fill="url(&quot;#CustomGradient_FFFFFF_E8E0D2&quot;)" height="51" rx="10px" ry="10px" stroke="#7B694F" stroke-width="1" width="111" x="25.5" y="25.5" /><text class="Class" dominant-baseline="middle" fill="#000000" text-anchor="middle" x="25" y="25"><tspan x="91.0" xml:space="preserve" y="33.85714285714286">Trajectory</tspan></text><use height="20" width="20" x="48.0" xlink:href="#ClassSymbol" y="23.85714285714286" /><line stroke="#7B694F" x1="25.5" x2="136.5" y1="51.214285714285715" y2="51.214285714285715" /></g><g class="Box Class context-_57ZBAMn-EeyS2Zr7ZWFrXA context-_hNOBoMn_EeyS2Zr7ZWFrXA" id="_tyt_AMn-EeyS2Zr7ZWFrXA"><rect class="Class" fill="url(&quot;#CustomGradient_FFFFFF_E8E0D2&quot;)" height="101" rx="10px" ry="10px" stroke="#7B694F" stroke-width="1" width="111" x="25.5" y="145.5" /><text class="Class" dominant-baseline="middle" fill="#000000" text-anchor="middle" x="25" y="145"><tspan x="91.0" xml:space="preserve" y="153.85714285714286">Waypoint</tspan></text><use height="20" width="20" x="49.5" xlink:href="#ClassSymbol" y="143.85714285714286" /><line stroke="#7B694F" x1="25.5" x2="136.5" y1="171.21428571428572" y2="171.21428571428572" /><text class="Features" dominant-baseline="middle" fill="#000000" text-anchor="start" x="37.5" y="171.21428571428572"><tspan x="48.0" xml:space="preserve" y="181.92857142857144">lat : float</tspan></text><use height="20" width="20" x="27.0" xlink:href="#ClassFeatureSymbol" y="171.92857142857144" /><text class="Features" dominant-baseline="middle" fill="#000000" text-anchor="start" x="37.5" y="182.64285714285714"><tspan x="48.0" xml:space="preserve" y="193.35714285714286">lon : float</tspan></text><use height="20" width="20" x="27.0" xlink:href="#ClassFeatureSymbol" y="183.35714285714286" /><text class="Features" dominant-baseline="middle" fill="#000000" text-anchor="start" x="37.5" y="194.07142857142856"><tspan x="48.0" xml:space="preserve" y="204.78571428571428">alt : float</tspan></text><use height="20" width="20" x="27.0" xlink:href="#ClassFeatureSymbol" y="194.78571428571428" /></g><g class="Box Class context-_hNOBoMn_EeyS2Zr7ZWFrXA" id="_uE4tEMn-EeyS2Zr7ZWFrXA"><rect class="Class" fill="url(&quot;#CustomGradient_FFFFFF_E8E0D2&quot;)" height="81" rx="10px" ry="10px" stroke="#7B694F" stroke-width="1" width="111" x="25.5" y="345.5" /><text class="Class" dominant-baseline="middle" fill="#000000" text-anchor="middle" x="25" y="345"><tspan x="91.0" xml:space="preserve" y="353.85714285714283">Example</tspan></text><use height="20" width="20" x="52.0" xlink:href="#ClassSymbol" y="343.85714285714283" /><line stroke="#7B694F" x1="25.5" x2="136.5" y1="371.2142857142857" y2="371.2142857142857" /><text class="Features" dominant-baseline="middle" fill="#000000" text-anchor="start" x="37.5" y="371.2142857142857"><tspan x="48.0" xml:space="preserve" y="381.92857142857144">test : str</tspan></text><use height="20" width="20" x="27.0" xlink:href="#ClassFeatureSymbol" y="371.92857142857144" /></g><g class="Box NumericType" id="_AoUMAMn_EeyS2Zr7ZWFrXA"><rect class="NumericType" fill="#E8E0D2" height="31" stroke="#676767" stroke-width="1" width="61" x="215.5" y="75.5" /><text class="NumericType" dominant-baseline="middle" fill="#000000" text-anchor="middle" x="215" y="75"><tspan x="245.5" xml:space="preserve" y="81.71428571428571">float</tspan></text><line stroke="#676767" x1="215.5" x2="276.5" y1="96.92857142857143" y2="96.92857142857143" /></g><g class="Box StringType" id="_DQUJAMn_EeyS2Zr7ZWFrXA"><rect class="StringType" fill="#E8E0D2" height="31" stroke="#676767" stroke-width="1" width="61" x="215.5" y="145.5" /><text class="StringType" dominant-baseline="middle" fill="#000000" text-anchor="middle" x="215" y="145"><tspan x="245.5" xml:space="preserve" y="151.71428571428572">str</tspan></text><line stroke="#676767" x1="215.5" x2="276.5" y1="166.92857142857144" y2="166.92857142857144" /></g><g class="Edge Association" id="_57ZBAMn-EeyS2Zr7ZWFrXA"><path class="Edge" d="M 80.5 76.5 80.5 145.5" fill="none" marker-end="url(&quot;#FineArrowMark_000000&quot;)" stroke="#000000" stroke-width="1" /></g><g class="Edge Association" id="_hNOBoMn_EeyS2Zr7ZWFrXA"><path class="Edge" d="M 81.5 246.5 81.5 285.5 81.5 345.5" fill="none" marker-end="url(&quot;#FineArrowMark_000000&quot;)" stroke="#000000" stroke-width="1" /></g></svg>