<svg baseProfile="full" class="OperationalEntityBlank" font-family="'Open Sans','Segoe UI',Arial,sans-serif" font-size="10px" height="108" shape-rendering="geometricPrecision" version="1.1" viewBox="2 2 586 108" width="586" xmlns="http://www.w3.org/2000/svg" xmlns:ev="http://www.w3.org/2001/xml-events" xmlns:xlink="http://www.w3.org/1999/xlink"><defs><symbol id="OperationalActorSymbol" stroke="#000" stroke-width="2" viewBox="0 0 50 50"><radialGradient cx="25.8" cy="9.965" fx="25.8" fy="9.965" gradientUnits="userSpaceOnUse" id="gray" r="8.06"><stop offset="0" stop-color="#fff" /><stop offset="1" stop-color="#9aaab9" /></radialGradient><circle cx="25.8" cy="9.965" fill="url(#gray)" r="7.445" /><path d="m 25.643608,17.4341 0.276914,19.3657 -9.691951,8.97218 v 0 l 9.691951,-8.97218 9.207354,8.838931 -9.345812,-8.927765 -0.137836,-8.984648 9.209822,0.04899 -18.407914,0.04443" fill="none" /></symbol><linearGradient id="CustomGradient_F9F8F5_DDDDC8" x1="0" x2="0" y1="0" y2="1"><stop offset="0.0" stop-color="#F9F8F5" stop-opacity="1" /><stop offset="1.0" stop-color="#DDDDC8" stop-opacity="1" /></linearGradient><symbol id="OperationalActivitySymbol" viewBox="0 0 79 79"><linearGradient id="OA_orange" x1="0" x2="1" y1="0" y2="0"><stop offset="0.0" stop-color="#f4901d" stop-opacity="1" /><stop offset="1.0" stop-color="#fff" stop-opacity="1" /></linearGradient><ellipse cx="39.5" cy="39.5" fill="url(#OA_orange)" rx="26" ry="21" stroke="#000" stroke-width="2" /><text fill="#000" font-family="'Open Sans','Segoe UI',Arial,sans-serif" font-size="25px" font-weight="bold" stroke="none" text-anchor="middle" x="40" y="50">OA</text></symbol><symbol id="EntitySymbol" stroke="#000" stroke-width="2" viewBox="0 0 79 79"><path d="M18 237h46v43H18z" fill="#a5b9c8" transform="translate(0 -218)" /><path d="M12 247h11v8H12z" fill="#a5b9c8" transform="translate(0 -218)" /><path d="M12 261h11v8H12z" fill="#a5b9c8" transform="translate(0 -218)" /><path d="m 41.658466,55.581913 q 0,1.062616 -0.693953,1.734883 -0.672267,0.672267 -1.734883,0.672267 h -9.498483 q -1.062615,0 -1.734883,-0.672267 -0.672267,-0.672267 -0.672267,-1.734883 V 26.457569 q 0,-1.062615 0.672267,-1.734882 0.672268,-0.672267 1.734883,-0.672267 h 9.498483 q 1.062616,0 1.734883,0.672267 0.693953,0.672267 0.693953,1.734882 z M 38.644107,55.321681 V 26.717802 h -8.305751 v 28.603879 z" fill="#000" /><path d="M 58.248283,57.989063 H 47.101662 V 24.05042 h 11.016505 v 2.667382 H 50.11602 v 12.664644 h 5.091614 l 0.09145,2.616665 -5.183068,0.09409 v 13.228481 h 8.132263 z" fill="#000" /></symbol><symbol id="OperationalExchangeSymbol" viewBox="0 0 40 30"><linearGradient id="OperationalExchangeSymbol-gradient" x1="0" x2="1" y1="0" y2="1"><stop offset="0.0" stop-color="#DF943C" stop-opacity="1" /><stop offset="1.0" stop-color="#FFF1E0" stop-opacity="1" /></linearGradient><linearGradient id="OperationalExchangeSymbol-gradientreverse" x1="0" x2="1" y1="0" y2="1"><stop offset="0.0" stop-color="#FFF1E0" stop-opacity="1" /><stop offset="1.0" stop-color="#DF943C" stop-opacity="1" /></linearGradient><g stroke="#000" stroke-width="2"><path d="M 36.190065,5.0377724 V 24.962228 H 26.17482 V 5.0377724 Z" fill="url(#OperationalExchangeSymbol-gradientreverse)" /><path d="m 14.372107,10 h 12.622435 c 0.926189,0.585267 1.836022,1.274509 2.268178,5 -0.208657,2.812473 -0.954601,4.503809 -2.273297,5 H 14.296948" fill="#EF8D1C" /><path d="M 3.9464908,5.0048246 V 24.995175 H 10.87518 C 12.433713,24.159139 15.158267,20.291241 15.313795,15 15.498614,11.583142 14.059659,6.6240913 10.87518,5.0048246 c -2.2179509,0 -4.5908341,0 -6.9286892,0 z" fill="url(#OperationalExchangeSymbol-gradient)" /></g></symbol><marker id="FilledArrowMark_5B4040" markerHeight="5.5" markerUnits="userSpaceOnUse" markerWidth="5.5" orient="auto" refX="5" refY="2.5"><path d="M 0,0 5,2.5 0,5" fill="#000" stroke="#5B4040" stroke-width="1" /></marker></defs><rect fill="#fff" height="108" stroke="none" width="586" x="2" y="2" /><g class="Box OperationalActor context-01788b49-ccef-4a37-93d2-119287f8dd53 context-55cdd645-fb98-459a-a1c5-52d6a504c164 context-5d637de8-410f-42b8-a467-3b1c84d40775 context-a8c42033-fdf2-458f-bae9-1cfd1207c49f context-ab016025-d456-4c2d-8359-d50cf9de3825 context-b0605308-9663-4c34-b2db-d08285c09682 context-b805a725-4b13-4b77-810e-b0ba002d5d98 context-e6e4d30c-4d80-4899-8d8d-1350239c15a7" id="e6e4d30c-4d80-4899-8d8d-1350239c15a7"><rect class="OperationalActor" fill="url(&quot;#CustomGradient_F9F8F5_DDDDC8&quot;)" height="84" stroke="#454545" stroke-width="1" width="96" x="303.5" y="16.5" /><text class="OperationalActor" dominant-baseline="middle" fill="#000000" text-anchor="middle" x="313" y="21"><tspan x="361.0" xml:space="preserve" y="29.714285714285715">Predator</tspan></text><use height="20" width="20" x="321.5" xlink:href="#OperationalActorSymbol" y="19.714285714285715" /></g><g class="Box OperationalActivity context-01788b49-ccef-4a37-93d2-119287f8dd53 context-55cdd645-fb98-459a-a1c5-52d6a504c164 context-5d637de8-410f-42b8-a467-3b1c84d40775 context-a8c42033-fdf2-458f-bae9-1cfd1207c49f context-ab016025-d456-4c2d-8359-d50cf9de3825 context-b0605308-9663-4c34-b2db-d08285c09682 context-b805a725-4b13-4b77-810e-b0ba002d5d98 context-e6e4d30c-4d80-4899-8d8d-1350239c15a7" id="5d637de8-410f-42b8-a467-3b1c84d40775"><rect class="OperationalActivity" fill="#F7DA74" height="42" stroke="#5B4040" stroke-width="4" width="72" x="315.5" y="47.5" /><text class="OperationalActivity" dominant-baseline="middle" fill="#5B4040" text-anchor="middle" x="318" y="59"><tspan x="361.5" xml:space="preserve" y="69.85714285714286">Repeat</tspan></text><use height="20" width="20" x="326.0" xlink:href="#OperationalActivitySymbol" y="59.85714285714286" /></g><g class="Box OperationalActor context-01788b49-ccef-4a37-93d2-119287f8dd53 context-55cdd645-fb98-459a-a1c5-52d6a504c164 context-5d637de8-410f-42b8-a467-3b1c84d40775 context-a8c42033-fdf2-458f-bae9-1cfd1207c49f context-ab016025-d456-4c2d-8359-d50cf9de3825 context-b0605308-9663-4c34-b2db-d08285c09682 context-b805a725-4b13-4b77-810e-b0ba002d5d98 context-e6e4d30c-4d80-4899-8d8d-1350239c15a7" id="a8c42033-fdf2-458f-bae9-1cfd1207c49f"><rect class="OperationalActor" fill="url(&quot;#CustomGradient_F9F8F5_DDDDC8&quot;)" height="88" stroke="#454545" stroke-width="1" width="87" x="49.5" y="12.5" /><text class="OperationalActor" dominant-baseline="middle" fill="#000000" text-anchor="middle" x="12" y="17"><tspan x="102.5" xml:space="preserve" y="27.857142857142858">Functional</tspan><tspan x="102.5" xml:space="preserve" y="43.57142857142857">Human</tspan><tspan x="102.5" xml:space="preserve" y="59.285714285714285">Being</tspan></text><use height="20" width="20" x="59.0" xlink:href="#OperationalActorSymbol" y="35.0" /></g><g class="Box OperationalActivity context-01788b49-ccef-4a37-93d2-119287f8dd53 context-55cdd645-fb98-459a-a1c5-52d6a504c164 context-5d637de8-410f-42b8-a467-3b1c84d40775 context-a8c42033-fdf2-458f-bae9-1cfd1207c49f context-ab016025-d456-4c2d-8359-d50cf9de3825 context-b0605308-9663-4c34-b2db-d08285c09682 context-b805a725-4b13-4b77-810e-b0ba002d5d98 context-e6e4d30c-4d80-4899-8d8d-1350239c15a7" id="ab016025-d456-4c2d-8359-d50cf9de3825"><rect class="OperationalActivity" fill="#F7DA74" height="42" stroke="#5B4040" stroke-width="1" width="63" x="61.5" y="47.5" /><text class="OperationalActivity" dominant-baseline="middle" fill="#5B4040" text-anchor="middle" x="64" y="59"><tspan x="103.0" xml:space="preserve" y="69.85714285714286">Sleep</tspan></text><use height="20" width="20" x="71.5" xlink:href="#OperationalActivitySymbol" y="59.85714285714286" /></g><g class="Box Entity context-01788b49-ccef-4a37-93d2-119287f8dd53 context-55cdd645-fb98-459a-a1c5-52d6a504c164 context-5d637de8-410f-42b8-a467-3b1c84d40775 context-a8c42033-fdf2-458f-bae9-1cfd1207c49f context-ab016025-d456-4c2d-8359-d50cf9de3825 context-b0605308-9663-4c34-b2db-d08285c09682 context-b805a725-4b13-4b77-810e-b0ba002d5d98 context-e6e4d30c-4d80-4899-8d8d-1350239c15a7" id="b805a725-4b13-4b77-810e-b0ba002d5d98"><rect class="Entity" fill="url(&quot;#CustomGradient_F9F8F5_DDDDC8&quot;)" height="84" stroke="#454545" stroke-width="1" width="74" x="504.5" y="14.5" /><text class="Entity" dominant-baseline="middle" fill="#000000" text-anchor="middle" x="515" y="19"><tspan x="552.0" xml:space="preserve" y="29.857142857142858">Prey</tspan></text><use height="20" width="20" x="522.0" xlink:href="#EntitySymbol" y="19.857142857142858" /></g><g class="Box OperationalActivity context-01788b49-ccef-4a37-93d2-119287f8dd53 context-55cdd645-fb98-459a-a1c5-52d6a504c164 context-5d637de8-410f-42b8-a467-3b1c84d40775 context-a8c42033-fdf2-458f-bae9-1cfd1207c49f context-ab016025-d456-4c2d-8359-d50cf9de3825 context-b0605308-9663-4c34-b2db-d08285c09682 context-b805a725-4b13-4b77-810e-b0ba002d5d98 context-e6e4d30c-4d80-4899-8d8d-1350239c15a7" id="55cdd645-fb98-459a-a1c5-52d6a504c164"><rect class="OperationalActivity" fill="#F7DA74" height="37" stroke="#5B4040" stroke-width="1" width="50" x="516.5" y="49.5" /><text class="OperationalActivity" dominant-baseline="middle" fill="#5B4040" text-anchor="middle" x="519" y="61"><tspan x="551.5" xml:space="preserve" y="69.71428571428572">Kill</tspan></text><use height="20" width="20" x="525.5" xlink:href="#OperationalActivitySymbol" y="59.71428571428572" /></g><g class="Edge OperationalExchange context-01788b49-ccef-4a37-93d2-119287f8dd53 context-55cdd645-fb98-459a-a1c5-52d6a504c164 context-5d637de8-410f-42b8-a467-3b1c84d40775 context-a8c42033-fdf2-458f-bae9-1cfd1207c49f context-ab016025-d456-4c2d-8359-d50cf9de3825 context-b0605308-9663-4c34-b2db-d08285c09682 context-b805a725-4b13-4b77-810e-b0ba002d5d98 context-e6e4d30c-4d80-4899-8d8d-1350239c15a7" id="b0605308-9663-4c34-b2db-d08285c09682"><path class="Edge" d="M 124.5 68.5 315.5 68.5" fill="none" marker-end="url(&quot;#FilledArrowMark_5B4040&quot;)" stroke="#5B4040" stroke-width="1" /><text class="Annotation" dominant-baseline="middle" text-anchor="middle" x="181.5" y="71"><tspan x="246.5" xml:space="preserve" y="81.85714285714286">Start again</tspan></text><use height="20" width="20" x="201.5" xlink:href="#OperationalExchangeSymbol" y="71.85714285714286" /></g><g class="Edge OperationalExchange context-01788b49-ccef-4a37-93d2-119287f8dd53 context-55cdd645-fb98-459a-a1c5-52d6a504c164 context-5d637de8-410f-42b8-a467-3b1c84d40775 context-a8c42033-fdf2-458f-bae9-1cfd1207c49f context-ab016025-d456-4c2d-8359-d50cf9de3825 context-b0605308-9663-4c34-b2db-d08285c09682 context-b805a725-4b13-4b77-810e-b0ba002d5d98 context-e6e4d30c-4d80-4899-8d8d-1350239c15a7" id="01788b49-ccef-4a37-93d2-119287f8dd53"><path class="Edge" d="M 387.5 68.5 516.5 68.5" fill="none" marker-end="url(&quot;#FilledArrowMark_5B4040&quot;)" stroke="#5B4040" stroke-width="1" /><text class="Annotation" dominant-baseline="middle" text-anchor="middle" x="413.5" y="71"><tspan x="463.5" xml:space="preserve" y="79.71428571428572">Hunt</tspan></text><use height="20" width="20" x="431.5" xlink:href="#OperationalExchangeSymbol" y="69.71428571428572" /></g></svg>