<svg baseProfile="full" class="OperationalEntityBlank" font-family="'Open Sans','Segoe UI',Arial,sans-serif" font-size="10px" height="104" shape-rendering="geometricPrecision" version="1.1" viewBox="2 2 178 104" width="178" xmlns="http://www.w3.org/2000/svg" xmlns:ev="http://www.w3.org/2001/xml-events" xmlns:xlink="http://www.w3.org/1999/xlink"><defs><symbol id="EntitySymbol" stroke="#000" stroke-width="2" viewBox="0 0 79 79"><path d="M18 237h46v43H18z" fill="#a5b9c8" transform="translate(0 -218)" /><path d="M12 247h11v8H12z" fill="#a5b9c8" transform="translate(0 -218)" /><path d="M12 261h11v8H12z" fill="#a5b9c8" transform="translate(0 -218)" /><path d="m 41.658466,55.581913 q 0,1.062616 -0.693953,1.734883 -0.672267,0.672267 -1.734883,0.672267 h -9.498483 q -1.062615,0 -1.734883,-0.672267 -0.672267,-0.672267 -0.672267,-1.734883 V 26.457569 q 0,-1.062615 0.672267,-1.734882 0.672268,-0.672267 1.734883,-0.672267 h 9.498483 q 1.062616,0 1.734883,0.672267 0.693953,0.672267 0.693953,1.734882 z M 38.644107,55.321681 V 26.717802 h -8.305751 v 28.603879 z" fill="#000" /><path d="M 58.248283,57.989063 H 47.101662 V 24.05042 h 11.016505 v 2.667382 H 50.11602 v 12.664644 h 5.091614 l 0.09145,2.616665 -5.183068,0.09409 v 13.228481 h 8.132263 z" fill="#000" /></symbol><linearGradient id="CustomGradient_F9F8F5_DDDDC8" x1="0" x2="0" y1="0" y2="1"><stop offset="0.0" stop-color="#F9F8F5" stop-opacity="1" /><stop offset="1.0" stop-color="#DDDDC8" stop-opacity="1" /></linearGradient><symbol id="OperationalActivitySymbol" viewBox="0 0 79 79"><linearGradient id="OA_orange" x1="0" x2="1" y1="0" y2="0"><stop offset="0.0" stop-color="#f4901d" stop-opacity="1" /><stop offset="1.0" stop-color="#fff" stop-opacity="1" /></linearGradient><ellipse cx="39.5" cy="39.5" fill="url(#OA_orange)" rx="26" ry="21" stroke="#000" stroke-width="2" /><text fill="#000" font-family="'Open Sans','Segoe UI',Arial,sans-serif" font-size="25px" font-weight="bold" stroke="none" text-anchor="middle" x="40" y="50">OA</text></symbol></defs><rect fill="#fff" height="104" stroke="none" width="178" x="2" y="2" /><g class="Box Entity context-a0159943-264f-4a97-a245-565fb6bf9db4 context-e37510b9-3166-4f80-a919-dfaac9b696c7" id="e37510b9-3166-4f80-a919-dfaac9b696c7"><rect class="Entity" fill="url(&quot;#CustomGradient_F9F8F5_DDDDC8&quot;)" height="84" stroke="#454545" stroke-width="1" width="158" x="12.5" y="12.5" /><text class="Entity" dominant-baseline="middle" fill="#000000" text-anchor="middle" x="42" y="17"><tspan x="101.5" xml:space="preserve" y="25.714285714285715">Environment</tspan></text><use height="20" width="20" x="52.0" xlink:href="#EntitySymbol" y="15.714285714285715" /></g><g class="Box OperationalActivity context-a0159943-264f-4a97-a245-565fb6bf9db4 context-e37510b9-3166-4f80-a919-dfaac9b696c7" id="a0159943-264f-4a97-a245-565fb6bf9db4"><rect class="OperationalActivity" fill="#F7DA74" height="42" stroke="#5B4040" stroke-width="4" width="134" x="24.5" y="42.5" /><text class="OperationalActivity" dominant-baseline="middle" fill="#5B4040" text-anchor="middle" x="27" y="54"><tspan x="101.5" xml:space="preserve" y="64.85714285714286">Spawn wild animal</tspan></text><use height="20" width="20" x="39.0" xlink:href="#OperationalActivitySymbol" y="54.85714285714286" /></g></svg>