<svg baseProfile="full" class="OperationalEntityBlank" font-family="'Open Sans','Segoe UI',Arial,sans-serif" font-size="10px" height="147" shape-rendering="geometricPrecision" version="1.1" viewBox="2 2 455 147" width="455" xmlns="http://www.w3.org/2000/svg" xmlns:ev="http://www.w3.org/2001/xml-events" xmlns:xlink="http://www.w3.org/1999/xlink"><defs><symbol id="EntitySymbol" stroke="#000" stroke-width="2" viewBox="0 0 79 79"><path d="M18 237h46v43H18z" fill="#a5b9c8" transform="translate(0 -218)" /><path d="M12 247h11v8H12z" fill="#a5b9c8" transform="translate(0 -218)" /><path d="M12 261h11v8H12z" fill="#a5b9c8" transform="translate(0 -218)" /><path d="m 41.658466,55.581913 q 0,1.062616 -0.693953,1.734883 -0.672267,0.672267 -1.734883,0.672267 h -9.498483 q -1.062615,0 -1.734883,-0.672267 -0.672267,-0.672267 -0.672267,-1.734883 V 26.457569 q 0,-1.062615 0.672267,-1.734882 0.672268,-0.672267 1.734883,-0.672267 h 9.498483 q 1.062616,0 1.734883,0.672267 0.693953,0.672267 0.693953,1.734882 z M 38.644107,55.321681 V 26.717802 h -8.305751 v 28.603879 z" fill="#000" /><path d="M 58.248283,57.989063 H 47.101662 V 24.05042 h 11.016505 v 2.667382 H 50.11602 v 12.664644 h 5.091614 l 0.09145,2.616665 -5.183068,0.09409 v 13.228481 h 8.132263 z" fill="#000" /></symbol><linearGradient id="CustomGradient_F9F8F5_DDDDC8" x1="0" x2="0" y1="0" y2="1"><stop offset="0.0" stop-color="#F9F8F5" stop-opacity="1" /><stop offset="1.0" stop-color="#DDDDC8" stop-opacity="1" /></linearGradient><symbol id="OperationalActivitySymbol" viewBox="0 0 79 79"><linearGradient id="OA_orange" x1="0" x2="1" y1="0" y2="0"><stop offset="0.0" stop-color="#f4901d" stop-opacity="1" /><stop offset="1.0" stop-color="#fff" stop-opacity="1" /></linearGradient><ellipse cx="39.5" cy="39.5" fill="url(#OA_orange)" rx="26" ry="21" stroke="#000" stroke-width="2" /><text fill="#000" font-family="'Open Sans','Segoe UI',Arial,sans-serif" font-size="25px" font-weight="bold" stroke="none" text-anchor="middle" x="40" y="50">OA</text></symbol><symbol id="OperationalExchangeSymbol" viewBox="0 0 40 30"><linearGradient id="OperationalExchangeSymbol-gradient" x1="0" x2="1" y1="0" y2="1"><stop offset="0.0" stop-color="#DF943C" stop-opacity="1" /><stop offset="1.0" stop-color="#FFF1E0" stop-opacity="1" /></linearGradient><linearGradient id="OperationalExchangeSymbol-gradientreverse" x1="0" x2="1" y1="0" y2="1"><stop offset="0.0" stop-color="#FFF1E0" stop-opacity="1" /><stop offset="1.0" stop-color="#DF943C" stop-opacity="1" /></linearGradient><g stroke="#000" stroke-width="2"><path d="M 36.190065,5.0377724 V 24.962228 H 26.17482 V 5.0377724 Z" fill="url(#OperationalExchangeSymbol-gradientreverse)" /><path d="m 14.372107,10 h 12.622435 c 0.926189,0.585267 1.836022,1.274509 2.268178,5 -0.208657,2.812473 -0.954601,4.503809 -2.273297,5 H 14.296948" fill="#EF8D1C" /><path d="M 3.9464908,5.0048246 V 24.995175 H 10.87518 C 12.433713,24.159139 15.158267,20.291241 15.313795,15 15.498614,11.583142 14.059659,6.6240913 10.87518,5.0048246 c -2.2179509,0 -4.5908341,0 -6.9286892,0 z" fill="url(#OperationalExchangeSymbol-gradient)" /></g></symbol><marker id="FilledArrowMark_5B4040" markerHeight="5.5" markerUnits="userSpaceOnUse" markerWidth="5.5" orient="auto" refX="5" refY="2.5"><path d="M 0,0 5,2.5 0,5" fill="#000" stroke="#5B4040" stroke-width="1" /></marker></defs><rect fill="#fff" height="147" stroke="none" width="455" x="2" y="2" /><g class="Box Entity context-4368575f-f99c-46e9-8ef7-ba848ba31a81 context-48210f47-9c51-4156-91cb-a615a6842b7f context-4bf0356c-89dd-45e9-b8a6-e0332c026d33 context-a97385c4-6c62-48b1-ae5d-6cec00d69b98 context-e37510b9-3166-4f80-a919-dfaac9b696c7" id="e37510b9-3166-4f80-a919-dfaac9b696c7"><rect class="Entity" fill="url(&quot;#CustomGradient_F9F8F5_DDDDC8&quot;)" height="127" stroke="#454545" stroke-width="1" width="435" x="12.5" y="12.5" /><text class="Entity" dominant-baseline="middle" fill="#000000" text-anchor="middle" x="180" y="17"><tspan x="239.5" xml:space="preserve" y="25.714285714285715">Environment</tspan></text><use height="20" width="20" x="190.0" xlink:href="#EntitySymbol" y="15.714285714285715" /></g><g class="Box OperationalActivity context-4368575f-f99c-46e9-8ef7-ba848ba31a81 context-48210f47-9c51-4156-91cb-a615a6842b7f context-4bf0356c-89dd-45e9-b8a6-e0332c026d33 context-a97385c4-6c62-48b1-ae5d-6cec00d69b98 context-e37510b9-3166-4f80-a919-dfaac9b696c7" id="4368575f-f99c-46e9-8ef7-ba848ba31a81"><rect class="OperationalActivity" fill="#F7DA74" height="37" stroke="#5B4040" stroke-width="1" width="121" x="314.5" y="75.5" /><text class="OperationalActivity" dominant-baseline="middle" fill="#5B4040" text-anchor="middle" x="317" y="87"><tspan x="385.0" xml:space="preserve" y="95.71428571428572">Create landslide</tspan></text><use height="20" width="20" x="328.0" xlink:href="#OperationalActivitySymbol" y="85.71428571428572" /></g><g class="Box Entity context-4368575f-f99c-46e9-8ef7-ba848ba31a81 context-48210f47-9c51-4156-91cb-a615a6842b7f context-4bf0356c-89dd-45e9-b8a6-e0332c026d33 context-a97385c4-6c62-48b1-ae5d-6cec00d69b98 context-e37510b9-3166-4f80-a919-dfaac9b696c7" id="4bf0356c-89dd-45e9-b8a6-e0332c026d33"><rect class="Entity" fill="url(&quot;#CustomGradient_F9F8F5_DDDDC8&quot;)" height="84" stroke="#454545" stroke-width="1" width="127" x="24.5" y="42.5" /><text class="Entity" dominant-baseline="middle" fill="#000000" text-anchor="middle" x="51" y="47"><tspan x="98.5" xml:space="preserve" y="55.714285714285715">Weather</tspan></text><use height="20" width="20" x="59.5" xlink:href="#EntitySymbol" y="45.714285714285715" /></g><g class="Box OperationalActivity context-4368575f-f99c-46e9-8ef7-ba848ba31a81 context-48210f47-9c51-4156-91cb-a615a6842b7f context-4bf0356c-89dd-45e9-b8a6-e0332c026d33 context-a97385c4-6c62-48b1-ae5d-6cec00d69b98 context-e37510b9-3166-4f80-a919-dfaac9b696c7" id="a97385c4-6c62-48b1-ae5d-6cec00d69b98"><rect class="OperationalActivity" fill="#F7DA74" height="42" stroke="#5B4040" stroke-width="4" width="103" x="36.5" y="73.5" /><text class="OperationalActivity" dominant-baseline="middle" fill="#5B4040" text-anchor="middle" x="39" y="85"><tspan x="98.0" xml:space="preserve" y="95.85714285714286">Spawn water</tspan></text><use height="20" width="20" x="49.0" xlink:href="#OperationalActivitySymbol" y="85.85714285714286" /></g><g class="Edge OperationalExchange context-4368575f-f99c-46e9-8ef7-ba848ba31a81 context-48210f47-9c51-4156-91cb-a615a6842b7f context-4bf0356c-89dd-45e9-b8a6-e0332c026d33 context-a97385c4-6c62-48b1-ae5d-6cec00d69b98 context-e37510b9-3166-4f80-a919-dfaac9b696c7" id="48210f47-9c51-4156-91cb-a615a6842b7f"><path class="Edge" d="M 139.5 94.5 314.5 94.5" fill="none" marker-end="url(&quot;#FilledArrowMark_5B4040&quot;)" stroke="#5B4040" stroke-width="1" /><text class="Annotation" dominant-baseline="middle" text-anchor="middle" x="165.5" y="97"><tspan x="246.5" xml:space="preserve" y="107.85714285714286">Unstable ground</tspan></text><use height="20" width="20" x="187.5" xlink:href="#OperationalExchangeSymbol" y="97.85714285714286" /></g></svg>