<svg baseProfile="full" class="OperationalEntityBlank" font-family="'Open Sans','Segoe UI',Arial,sans-serif" font-size="10px" height="177" shape-rendering="geometricPrecision" version="1.1" viewBox="2 2 792 177" width="792" xmlns="http://www.w3.org/2000/svg" xmlns:ev="http://www.w3.org/2001/xml-events" xmlns:xlink="http://www.w3.org/1999/xlink"><defs><symbol id="EntitySymbol" stroke="#000" stroke-width="2" viewBox="0 0 79 79"><path d="M18 237h46v43H18z" fill="#a5b9c8" transform="translate(0 -218)" /><path d="M12 247h11v8H12z" fill="#a5b9c8" transform="translate(0 -218)" /><path d="M12 261h11v8H12z" fill="#a5b9c8" transform="translate(0 -218)" /><path d="m 41.658466,55.581913 q 0,1.062616 -0.693953,1.734883 -0.672267,0.672267 -1.734883,0.672267 h -9.498483 q -1.062615,0 -1.734883,-0.672267 -0.672267,-0.672267 -0.672267,-1.734883 V 26.457569 q 0,-1.062615 0.672267,-1.734882 0.672268,-0.672267 1.734883,-0.672267 h 9.498483 q 1.062616,0 1.734883,0.672267 0.693953,0.672267 0.693953,1.734882 z M 38.644107,55.321681 V 26.717802 h -8.305751 v 28.603879 z" fill="#000" /><path d="M 58.248283,57.989063 H 47.101662 V 24.05042 h 11.016505 v 2.667382 H 50.11602 v 12.664644 h 5.091614 l 0.09145,2.616665 -5.183068,0.09409 v 13.228481 h 8.132263 z" fill="#000" /></symbol><linearGradient id="CustomGradient_F9F8F5_DDDDC8" x1="0" x2="0" y1="0" y2="1"><stop offset="0.0" stop-color="#F9F8F5" stop-opacity="1" /><stop offset="1.0" stop-color="#DDDDC8" stop-opacity="1" /></linearGradient><symbol id="OperationalActorSymbol" stroke="#000" stroke-width="2" viewBox="0 0 50 50"><radialGradient cx="25.8" cy="9.965" fx="25.8" fy="9.965" gradientUnits="userSpaceOnUse" id="gray" r="8.06"><stop offset="0" stop-color="#fff" /><stop offset="1" stop-color="#9aaab9" /></radialGradient><circle cx="25.8" cy="9.965" fill="url(#gray)" r="7.445" /><path d="m 25.643608,17.4341 0.276914,19.3657 -9.691951,8.97218 v 0 l 9.691951,-8.97218 9.207354,8.838931 -9.345812,-8.927765 -0.137836,-8.984648 9.209822,0.04899 -18.407914,0.04443" fill="none" /></symbol><symbol id="OperationalActivitySymbol" viewBox="0 0 79 79"><linearGradient id="OA_orange" x1="0" x2="1" y1="0" y2="0"><stop offset="0.0" stop-color="#f4901d" stop-opacity="1" /><stop offset="1.0" stop-color="#fff" stop-opacity="1" /></linearGradient><ellipse cx="39.5" cy="39.5" fill="url(#OA_orange)" rx="26" ry="21" stroke="#000" stroke-width="2" /><text fill="#000" font-family="'Open Sans','Segoe UI',Arial,sans-serif" font-size="25px" font-weight="bold" stroke="none" text-anchor="middle" x="40" y="50">OA</text></symbol><symbol id="OperationalExchangeSymbol" viewBox="0 0 40 30"><linearGradient id="OperationalExchangeSymbol-gradient" x1="0" x2="1" y1="0" y2="1"><stop offset="0.0" stop-color="#DF943C" stop-opacity="1" /><stop offset="1.0" stop-color="#FFF1E0" stop-opacity="1" /></linearGradient><linearGradient id="OperationalExchangeSymbol-gradientreverse" x1="0" x2="1" y1="0" y2="1"><stop offset="0.0" stop-color="#FFF1E0" stop-opacity="1" /><stop offset="1.0" stop-color="#DF943C" stop-opacity="1" /></linearGradient><g stroke="#000" stroke-width="2"><path d="M 36.190065,5.0377724 V 24.962228 H 26.17482 V 5.0377724 Z" fill="url(#OperationalExchangeSymbol-gradientreverse)" /><path d="m 14.372107,10 h 12.622435 c 0.926189,0.585267 1.836022,1.274509 2.268178,5 -0.208657,2.812473 -0.954601,4.503809 -2.273297,5 H 14.296948" fill="#EF8D1C" /><path d="M 3.9464908,5.0048246 V 24.995175 H 10.87518 C 12.433713,24.159139 15.158267,20.291241 15.313795,15 15.498614,11.583142 14.059659,6.6240913 10.87518,5.0048246 c -2.2179509,0 -4.5908341,0 -6.9286892,0 z" fill="url(#OperationalExchangeSymbol-gradient)" /></g></symbol><marker id="FilledArrowMark_5B4040" markerHeight="5.5" markerUnits="userSpaceOnUse" markerWidth="5.5" orient="auto" refX="5" refY="2.5"><path d="M 0,0 5,2.5 0,5" fill="#000" stroke="#5B4040" stroke-width="1" /></marker></defs><rect fill="#fff" height="177" stroke="none" width="792" x="2" y="2" /><g class="Box Entity context-04babdbf-6cf6-4846-a207-bf27cfc8eb32 context-0c152f7f-edd1-45b5-8d71-6109592cc0e8 context-8ea2c558-569d-469c-a18c-2065d4365b86 context-a5ba1fbc-59a3-4684-9043-3d5cd3dec5fe context-a8c42033-fdf2-458f-bae9-1cfd1207c49f context-dfaf473d-257f-4455-90fd-fe9489dac617 context-e37510b9-3166-4f80-a919-dfaac9b696c7 context-e6e4d30c-4d80-4899-8d8d-1350239c15a7" id="e37510b9-3166-4f80-a919-dfaac9b696c7"><rect class="Entity" fill="url(&quot;#CustomGradient_F9F8F5_DDDDC8&quot;)" height="157" stroke="#454545" stroke-width="1" width="772" x="12.5" y="12.5" /><text class="Entity" dominant-baseline="middle" fill="#000000" text-anchor="middle" x="349" y="17"><tspan x="408.5" xml:space="preserve" y="25.714285714285715">Environment</tspan></text><use height="20" width="20" x="359.0" xlink:href="#EntitySymbol" y="15.714285714285715" /></g><g class="Box OperationalActor context-04babdbf-6cf6-4846-a207-bf27cfc8eb32 context-0c152f7f-edd1-45b5-8d71-6109592cc0e8 context-8ea2c558-569d-469c-a18c-2065d4365b86 context-a5ba1fbc-59a3-4684-9043-3d5cd3dec5fe context-a8c42033-fdf2-458f-bae9-1cfd1207c49f context-dfaf473d-257f-4455-90fd-fe9489dac617 context-e37510b9-3166-4f80-a919-dfaac9b696c7 context-e6e4d30c-4d80-4899-8d8d-1350239c15a7" id="e6e4d30c-4d80-4899-8d8d-1350239c15a7"><rect class="OperationalActor" fill="url(&quot;#CustomGradient_F9F8F5_DDDDC8&quot;)" height="84" stroke="#454545" stroke-width="1" width="128" x="644.5" y="73.5" /><text class="OperationalActor" dominant-baseline="middle" fill="#000000" text-anchor="middle" x="670" y="78"><tspan x="718.0" xml:space="preserve" y="86.71428571428572">Predator</tspan></text><use height="20" width="20" x="678.5" xlink:href="#OperationalActorSymbol" y="76.71428571428572" /></g><g class="Box OperationalActivity context-04babdbf-6cf6-4846-a207-bf27cfc8eb32 context-0c152f7f-edd1-45b5-8d71-6109592cc0e8 context-8ea2c558-569d-469c-a18c-2065d4365b86 context-a5ba1fbc-59a3-4684-9043-3d5cd3dec5fe context-a8c42033-fdf2-458f-bae9-1cfd1207c49f context-dfaf473d-257f-4455-90fd-fe9489dac617 context-e37510b9-3166-4f80-a919-dfaac9b696c7 context-e6e4d30c-4d80-4899-8d8d-1350239c15a7" id="dfaf473d-257f-4455-90fd-fe9489dac617"><rect class="OperationalActivity" fill="#F7DA74" height="42" stroke="#5B4040" stroke-width="1" width="104" x="656.5" y="104.5" /><text class="OperationalActivity" dominant-baseline="middle" fill="#5B4040" text-anchor="middle" x="667" y="116"><tspan x="718.0" xml:space="preserve" y="126.85714285714286">Run away</tspan></text><use height="20" width="20" x="676.0" xlink:href="#OperationalActivitySymbol" y="116.85714285714286" /></g><g class="Box OperationalActor context-04babdbf-6cf6-4846-a207-bf27cfc8eb32 context-0c152f7f-edd1-45b5-8d71-6109592cc0e8 context-8ea2c558-569d-469c-a18c-2065d4365b86 context-a5ba1fbc-59a3-4684-9043-3d5cd3dec5fe context-a8c42033-fdf2-458f-bae9-1cfd1207c49f context-dfaf473d-257f-4455-90fd-fe9489dac617 context-e37510b9-3166-4f80-a919-dfaac9b696c7 context-e6e4d30c-4d80-4899-8d8d-1350239c15a7" id="a8c42033-fdf2-458f-bae9-1cfd1207c49f"><rect class="OperationalActor" fill="url(&quot;#CustomGradient_F9F8F5_DDDDC8&quot;)" height="95" stroke="#454545" stroke-width="1" width="507" x="24.5" y="42.5" /><text class="OperationalActor" dominant-baseline="middle" fill="#000000" text-anchor="middle" x="198" y="47"><tspan x="288.5" xml:space="preserve" y="57.85714285714286">Functional Human Being</tspan></text><use height="20" width="20" x="212.0" xlink:href="#OperationalActorSymbol" y="47.85714285714286" /></g><g class="Box OperationalActivity context-04babdbf-6cf6-4846-a207-bf27cfc8eb32 context-0c152f7f-edd1-45b5-8d71-6109592cc0e8 context-8ea2c558-569d-469c-a18c-2065d4365b86 context-a5ba1fbc-59a3-4684-9043-3d5cd3dec5fe context-a8c42033-fdf2-458f-bae9-1cfd1207c49f context-dfaf473d-257f-4455-90fd-fe9489dac617 context-e37510b9-3166-4f80-a919-dfaac9b696c7 context-e6e4d30c-4d80-4899-8d8d-1350239c15a7" id="a5ba1fbc-59a3-4684-9043-3d5cd3dec5fe"><rect class="OperationalActivity" fill="#F7DA74" height="37" stroke="#5B4040" stroke-width="1" width="166" x="353.5" y="77.5" /><text class="OperationalActivity" dominant-baseline="middle" fill="#5B4040" text-anchor="middle" x="377" y="89"><tspan x="447.0" xml:space="preserve" y="97.71428571428572">Hunt wild animal</tspan></text><use height="20" width="20" x="388.5" xlink:href="#OperationalActivitySymbol" y="87.71428571428572" /></g><g class="Box OperationalActivity context-04babdbf-6cf6-4846-a207-bf27cfc8eb32 context-0c152f7f-edd1-45b5-8d71-6109592cc0e8 context-8ea2c558-569d-469c-a18c-2065d4365b86 context-a5ba1fbc-59a3-4684-9043-3d5cd3dec5fe context-a8c42033-fdf2-458f-bae9-1cfd1207c49f context-dfaf473d-257f-4455-90fd-fe9489dac617 context-e37510b9-3166-4f80-a919-dfaac9b696c7 context-e6e4d30c-4d80-4899-8d8d-1350239c15a7" id="04babdbf-6cf6-4846-a207-bf27cfc8eb32"><rect class="OperationalActivity" fill="#F7DA74" height="37" stroke="#5B4040" stroke-width="4" width="166" x="36.5" y="83.5" /><text class="OperationalActivity" dominant-baseline="middle" fill="#5B4040" text-anchor="middle" x="55" y="95"><tspan x="129.5" xml:space="preserve" y="103.71428571428572">Search for animals</tspan></text><use height="20" width="20" x="67.0" xlink:href="#OperationalActivitySymbol" y="93.71428571428572" /></g><g class="Edge OperationalExchange context-04babdbf-6cf6-4846-a207-bf27cfc8eb32 context-0c152f7f-edd1-45b5-8d71-6109592cc0e8 context-8ea2c558-569d-469c-a18c-2065d4365b86 context-a5ba1fbc-59a3-4684-9043-3d5cd3dec5fe context-a8c42033-fdf2-458f-bae9-1cfd1207c49f context-dfaf473d-257f-4455-90fd-fe9489dac617 context-e37510b9-3166-4f80-a919-dfaac9b696c7 context-e6e4d30c-4d80-4899-8d8d-1350239c15a7" id="0c152f7f-edd1-45b5-8d71-6109592cc0e8"><path class="Edge" d="M 202.5 96.5 353.5 96.5" fill="none" marker-end="url(&quot;#FilledArrowMark_5B4040&quot;)" stroke="#5B4040" stroke-width="1" /><text class="Annotation" dominant-baseline="middle" text-anchor="middle" x="211.5" y="79"><tspan x="289.0" xml:space="preserve" y="87.71428571428572">Animal location</tspan></text><use height="20" width="20" x="233.0" xlink:href="#OperationalExchangeSymbol" y="77.71428571428572" /></g><g class="Edge OperationalExchange context-04babdbf-6cf6-4846-a207-bf27cfc8eb32 context-0c152f7f-edd1-45b5-8d71-6109592cc0e8 context-8ea2c558-569d-469c-a18c-2065d4365b86 context-a5ba1fbc-59a3-4684-9043-3d5cd3dec5fe context-a8c42033-fdf2-458f-bae9-1cfd1207c49f context-dfaf473d-257f-4455-90fd-fe9489dac617 context-e37510b9-3166-4f80-a919-dfaac9b696c7 context-e6e4d30c-4d80-4899-8d8d-1350239c15a7" id="8ea2c558-569d-469c-a18c-2065d4365b86"><path class="Edge" d="M 202.5 108.5 212.5 108.5 212.5 125.5 656.5 125.5" fill="none" marker-end="url(&quot;#FilledArrowMark_5B4040&quot;)" stroke="#5B4040" stroke-width="1" /><text class="Annotation" dominant-baseline="middle" text-anchor="middle" x="545.5" y="128"><tspan x="599.0" xml:space="preserve" y="138.85714285714286">Spot it</tspan></text><use height="20" width="20" x="564.0" xlink:href="#OperationalExchangeSymbol" y="128.85714285714286" /></g></svg>