<svg baseProfile="full" class="SystemArchitectureBlank" font-family="'Open Sans','Segoe UI',Arial,sans-serif" font-size="10px" height="59" shape-rendering="geometricPrecision" version="1.1" viewBox="2 2 362 59" width="362" xmlns="http://www.w3.org/2000/svg" xmlns:ev="http://www.w3.org/2001/xml-events" xmlns:xlink="http://www.w3.org/1999/xlink"><defs><symbol id="SystemComponentSymbol" viewBox="0 12 90 59"><g transform="matrix(0.25509703,0,0,0.25509703,-19.119473,-26.4767)"><g fill="#e3ebf8" stroke-width="1.33145" transform="matrix(0.92548165,0,0,0.92249056,-32.422011,-1.2909536)"><path d="m 160.03785,180.47519 h 280.8845 v 200.68502 h -280.8845 z" stroke="#000" stroke-width="7" /></g><path d="m 81.854696,210.17533 h 66.250264 v 35.37025 H 81.854696 Z" fill="#e7efff" stroke="#000" stroke-width="7" /><path d="m 83.588316,268.94271 h 66.250254 v 35.37024 H 83.588316 Z" fill="#e7efff" stroke="#000" stroke-width="7" /><rect fill="#000" height="5" stroke="#000" stroke-width="54.1038" width="5" x="214.8075" y="236.39" /><rect fill="#000" height="5" stroke="#000" stroke-width="54.1038" width="5" x="297.44" y="298.36" /><rect fill="#000" height="5" stroke="#000" stroke-width="54.1038" width="5" x="297.44" y="215.73" /><path d="m 219.70896,218.22099 h 79.0257 v 85.9132 h -80.34135 z" fill="none" stroke="#000" stroke-width="4.29901px" /></g></symbol><linearGradient id="CustomGradient_C3E6FF_96B1DA" x1="0" x2="0" y1="0" y2="1"><stop offset="0.0" stop-color="#C3E6FF" stop-opacity="1" /><stop offset="1.0" stop-color="#96B1DA" stop-opacity="1" /></linearGradient><symbol id="SystemHumanActorSymbol" stroke="#000" stroke-width="2" viewBox="0 0 79 79"><use transform="matrix(0.81762456,0,0,0.81762456,-2.5207584,0.47091696)" xlink:href="#StickFigureSymbol" /></symbol><symbol id="StickFigureSymbol" stroke="#000" stroke-width="2" viewBox="362.861 210.892 75 75"><g stroke="#000" stroke-width="2.4944" transform="matrix(1.0611338,0,0,1.0611338,-24.47665,-12.241673)"><line fill="none" x1="400.362" x2="400.362" y1="232.586" y2="257.534" /><line fill="none" x1="400.83401" x2="388.423" y1="254.299" y2="275.009" /><line fill="none" x1="400.25201" x2="413.97" y1="254.46001" y2="274.987" /><line fill="none" x1="385.634" x2="415.703" y1="244.569" y2="244.49699" /><ellipse cx="400.53201" cy="223.35899" fill="none" rx="9.2180004" ry="8.5080004" /></g></symbol><linearGradient id="CustomGradient_DAFDFF_C6E6FF" x1="0" x2="0" y1="0" y2="1"><stop offset="0.0" stop-color="#DAFDFF" stop-opacity="1" /><stop offset="1.0" stop-color="#C6E6FF" stop-opacity="1" /></linearGradient><symbol id="ComponentExchangeSymbol" viewBox="0 0 40 30"><linearGradient id="ComponentExchangeSymbol-gradient" x1="0" x2="1" y1="0" y2="1"><stop offset="0.0" stop-color="#8FA5B6" stop-opacity="1" /><stop offset="1.0" stop-color="#E0E9F3" stop-opacity="1" /></linearGradient><linearGradient id="ComponentExchangeSymbol-gradientreverse" x1="0" x2="1" y1="0" y2="1"><stop offset="0.0" stop-color="#E0E9F3" stop-opacity="1" /><stop offset="1.0" stop-color="#8FA5B6" stop-opacity="1" /></linearGradient><g stroke="#000" stroke-width="2"><path d="M 36.190065,5.0377724 V 24.962228 H 26.17482 V 5.0377724 Z" fill="url(#ComponentExchangeSymbol-gradientreverse)" /><path d="m 14.372107,10 h 12.622435 c 0.926189,0.585267 1.836022,1.274509 2.268178,5 -0.208657,2.812473 -0.954601,4.503809 -2.273297,5 H 14.296948" fill="#A3BCD0" /><path d="M 3.9464908,5.0048246 V 24.995175 H 10.87518 C 12.433713,24.159139 15.158267,20.291241 15.313795,15 15.498614,11.583142 14.059659,6.6240913 10.87518,5.0048246 c -2.2179509,0 -4.5908341,0 -6.9286892,0 z" fill="url(#ComponentExchangeSymbol-gradient)" /></g></symbol></defs><rect fill="#fff" height="59" stroke="none" width="362" x="2" y="2" /><g class="Box SystemComponent context-1f0ae65c-a7d2-4336-bc11-61f235b8f610 context-45bf975c-b861-4614-abf6-1de8a801a841 context-61205419-b9fb-4bdf-a71a-c307554081f7 context-7af5971f-1a6c-47d3-b9a8-4e709444113e context-d1a8353d-2aab-4ed6-bbeb-70602b0bdb37" id="7af5971f-1a6c-47d3-b9a8-4e709444113e"><rect class="SystemComponent" fill="url(&quot;#CustomGradient_C3E6FF_96B1DA&quot;)" height="39" stroke="#4A4A97" stroke-width="4" width="118" x="13.5" y="12.5" /><text class="SystemComponent" dominant-baseline="middle" fill="#000000" text-anchor="middle" x="12" y="25"><tspan x="78.5" xml:space="preserve" y="31.714285714285715">Coffee Machine</tspan></text><use height="20" width="20" x="23.0" xlink:href="#SystemComponentSymbol" y="21.714285714285715" /></g><g class="Box SystemHumanActor context-1f0ae65c-a7d2-4336-bc11-61f235b8f610 context-45bf975c-b861-4614-abf6-1de8a801a841 context-61205419-b9fb-4bdf-a71a-c307554081f7 context-7af5971f-1a6c-47d3-b9a8-4e709444113e context-d1a8353d-2aab-4ed6-bbeb-70602b0bdb37" id="1f0ae65c-a7d2-4336-bc11-61f235b8f610"><rect class="SystemHumanActor" fill="url(&quot;#CustomGradient_DAFDFF_C6E6FF&quot;)" height="37" stroke="#4A4A97" stroke-width="1" width="59" x="294.5" y="13.5" /><text class="SystemHumanActor" dominant-baseline="middle" fill="#000000" text-anchor="middle" x="301" y="25"><tspan x="338.0" xml:space="preserve" y="31.714285714285715">User</tspan></text><use height="20" width="20" x="308.0" xlink:href="#SystemHumanActorSymbol" y="21.714285714285715" /></g><g class="Edge ComponentExchange context-1f0ae65c-a7d2-4336-bc11-61f235b8f610 context-45bf975c-b861-4614-abf6-1de8a801a841 context-61205419-b9fb-4bdf-a71a-c307554081f7 context-7af5971f-1a6c-47d3-b9a8-4e709444113e context-d1a8353d-2aab-4ed6-bbeb-70602b0bdb37" id="d1a8353d-2aab-4ed6-bbeb-70602b0bdb37"><path class="Edge" d="M 133.5 32.5 292.5 32.5" fill="none" stroke="#4A4A97" stroke-width="2" /><text class="Annotation" dominant-baseline="middle" fill="#4A4A97" text-anchor="middle" x="142.5" y="35"><tspan x="224.0" xml:space="preserve" y="43.714285714285715">user interactions</tspan></text><use height="20" width="20" x="164.5" xlink:href="#ComponentExchangeSymbol" y="33.714285714285715" /></g><g class="Box CP_INOUT context-1f0ae65c-a7d2-4336-bc11-61f235b8f610 context-45bf975c-b861-4614-abf6-1de8a801a841 context-61205419-b9fb-4bdf-a71a-c307554081f7 context-7af5971f-1a6c-47d3-b9a8-4e709444113e context-d1a8353d-2aab-4ed6-bbeb-70602b0bdb37" id="45bf975c-b861-4614-abf6-1de8a801a841"><rect class="CP_INOUT" fill="#FFFFFF" height="10" stroke="#000000" stroke-width="1" transform="rotate(-90 128.5 32.5)" width="10" x="123.5" y="27.5" /></g><g class="Box CP_INOUT context-1f0ae65c-a7d2-4336-bc11-61f235b8f610 context-45bf975c-b861-4614-abf6-1de8a801a841 context-61205419-b9fb-4bdf-a71a-c307554081f7 context-7af5971f-1a6c-47d3-b9a8-4e709444113e context-d1a8353d-2aab-4ed6-bbeb-70602b0bdb37" id="61205419-b9fb-4bdf-a71a-c307554081f7"><rect class="CP_INOUT" fill="#FFFFFF" height="10" stroke="#000000" stroke-width="1" transform="rotate(90 297.5 32.5)" width="10" x="292.5" y="27.5" /></g></svg>