<svg baseProfile="full" class="OperationalCapabilitiesBlank" font-family="'Open Sans','Segoe UI',Arial,sans-serif" font-size="10px" height="73" shape-rendering="geometricPrecision" version="1.1" viewBox="2 2 467 73" width="467" xmlns="http://www.w3.org/2000/svg" xmlns:ev="http://www.w3.org/2001/xml-events" xmlns:xlink="http://www.w3.org/1999/xlink"><defs><symbol id="OperationalCapabilitySymbol" viewBox="0 0 50 37"><radialGradient cx="25.657873" cy="25.925144" fx="25.657873" fy="25.925144" gradientTransform="matrix(1.471657,0.01303118,-0.03846138,4.3435681,-11.744602,-94.299935)" gradientUnits="userSpaceOnUse" id="brown_oval" r="20.562483"><stop offset="0" stop-color="#ffffff" /><stop offset="1" stop-color="#d0ab84" /></radialGradient><ellipse cx="25.017874" cy="18.64205" fill="url(#brown_oval)" rx="24.564632" ry="17.453819" stroke="#563b18" stroke-width="1" /><g transform="matrix(0.99781353,0,0,0.74596554,0.47471941,4.4891996)"><g fill="#000" stroke="none" transform="matrix(1.1032581,0,0,0.63735306,-10.659712,-9.548313)"><path d="m 22.557488,35.882454 q -2.845659,0 -4.527185,2.121309 -1.668591,2.12131 -1.668591,5.781862 0,3.647618 1.668591,5.768927 1.681526,2.12131 4.527185,2.12131 2.845659,0 4.501315,-2.12131 1.668591,-2.121309 1.668591,-5.768927 0,-3.660552 -1.668591,-5.781862 -1.655656,-2.121309 -4.501315,-2.121309 z m 0,-2.12131 q 4.061532,0 6.493277,2.729246 2.431745,2.716311 2.431745,7.295235 0,4.56599 -2.431745,7.295236 -2.431745,2.716311 -6.493277,2.716311 -4.074466,0 -6.519146,-2.716311 -2.431745,-2.716311 -2.431745,-7.295236 0,-4.578924 2.431745,-7.295235 2.44468,-2.729246 6.519146,-2.729246 z" /><path d="m 50.031033,35.597888 v 2.755115 q -1.319351,-1.228807 -2.81979,-1.836743 -1.487504,-0.607937 -3.169029,-0.607937 -3.311313,0 -5.070448,2.030766 -1.759134,2.017831 -1.759134,5.846536 0,3.815771 1.759134,5.846536 1.759135,2.017831 5.070448,2.017831 1.681525,0 3.169029,-0.607936 1.500439,-0.607936 2.81979,-1.836744 v 2.729246 q -1.371091,0.931307 -2.910334,1.39696 -1.526308,0.465654 -3.233703,0.465654 -4.384902,0 -6.907191,-2.677507 -2.522289,-2.690441 -2.522289,-7.33404 0,-4.656533 2.522289,-7.334039 2.522289,-2.690442 6.907191,-2.690442 1.733265,0 3.259573,0.465654 1.539243,0.452718 2.884464,1.37109 z" /></g></g></symbol><symbol id="EntitySymbol" stroke="#000" stroke-width="2" viewBox="0 0 79 79"><path d="M18 237h46v43H18z" fill="#a5b9c8" transform="translate(0 -218)" /><path d="M12 247h11v8H12z" fill="#a5b9c8" transform="translate(0 -218)" /><path d="M12 261h11v8H12z" fill="#a5b9c8" transform="translate(0 -218)" /><path d="m 41.658466,55.581913 q 0,1.062616 -0.693953,1.734883 -0.672267,0.672267 -1.734883,0.672267 h -9.498483 q -1.062615,0 -1.734883,-0.672267 -0.672267,-0.672267 -0.672267,-1.734883 V 26.457569 q 0,-1.062615 0.672267,-1.734882 0.672268,-0.672267 1.734883,-0.672267 h 9.498483 q 1.062616,0 1.734883,0.672267 0.693953,0.672267 0.693953,1.734882 z M 38.644107,55.321681 V 26.717802 h -8.305751 v 28.603879 z" fill="#000" /><path d="M 58.248283,57.989063 H 47.101662 V 24.05042 h 11.016505 v 2.667382 H 50.11602 v 12.664644 h 5.091614 l 0.09145,2.616665 -5.183068,0.09409 v 13.228481 h 8.132263 z" fill="#000" /></symbol><linearGradient id="CustomGradient_F9F8F5_DDDDC8" x1="0" x2="0" y1="0" y2="1"><stop offset="0.0" stop-color="#F9F8F5" stop-opacity="1" /><stop offset="1.0" stop-color="#DDDDC8" stop-opacity="1" /></linearGradient><marker id="FineArrowMark_000000" markerHeight="7.5" markerUnits="userSpaceOnUse" markerWidth="7.5" orient="auto" refX="7" refY="3.75"><path d="M 0.4535,0.107 7.309,3.621 0.492,7.407 0.144,7.407 6.414,3.63 0.136,0.479 Z" stroke="#000000" stroke-width="1" /></marker></defs><rect fill="#fff" height="73" stroke="none" width="467" x="2" y="2" /><g class="Box OperationalCapability context-7ceb090a-c464-4718-bc31-d32e6f907d83 context-84adfa3f-11c9-43d1-801c-b1535fcba802 context-e37510b9-3166-4f80-a919-dfaac9b696c7 context-eb70b405-831d-4ac9-a77a-46e40d55723b context-f127e2a7-a839-4859-8615-1a2e01100c68" id="84adfa3f-11c9-43d1-801c-b1535fcba802"><rect class="OperationalCapability" fill="#FFFFFF" height="53" stroke="#888888" stroke-dasharray="3" stroke-width="4" width="161" x="174.5" y="12.5" /><text class="OperationalCapability" dominant-baseline="middle" fill="#000000" text-anchor="middle" x="177" y="25"><tspan x="265.0" xml:space="preserve" y="31.714285714285715">Provide environment to</tspan><tspan x="265.0" xml:space="preserve" y="43.142857142857146">live in</tspan></text><use height="20" width="20" x="191.0" xlink:href="#OperationalCapabilitySymbol" y="25.870129870129873" /></g><g class="Box Entity context-7ceb090a-c464-4718-bc31-d32e6f907d83 context-84adfa3f-11c9-43d1-801c-b1535fcba802 context-e37510b9-3166-4f80-a919-dfaac9b696c7 context-eb70b405-831d-4ac9-a77a-46e40d55723b context-f127e2a7-a839-4859-8615-1a2e01100c68" id="e37510b9-3166-4f80-a919-dfaac9b696c7"><rect class="Entity" fill="url(&quot;#CustomGradient_F9F8F5_DDDDC8&quot;)" height="37" stroke="#454545" stroke-width="1" width="104" x="354.5" y="20.5" /><text class="Entity" dominant-baseline="middle" fill="#000000" text-anchor="middle" x="357" y="32"><tspan x="416.5" xml:space="preserve" y="38.714285714285715">Environment</tspan></text><use height="20" width="20" x="367.0" xlink:href="#EntitySymbol" y="28.714285714285715" /></g><g class="Edge AbstractCapabilityExtend context-7ceb090a-c464-4718-bc31-d32e6f907d83 context-84adfa3f-11c9-43d1-801c-b1535fcba802 context-e37510b9-3166-4f80-a919-dfaac9b696c7 context-eb70b405-831d-4ac9-a77a-46e40d55723b context-f127e2a7-a839-4859-8615-1a2e01100c68" id="f127e2a7-a839-4859-8615-1a2e01100c68"><path class="Edge" d="M 98.5 38.5 174.5 38.5" fill="none" marker-end="url(&quot;#FineArrowMark_000000&quot;)" stroke="#000000" stroke-width="1" /></g><g class="Edge EntityOperationalCapabilityInvolvement context-7ceb090a-c464-4718-bc31-d32e6f907d83 context-84adfa3f-11c9-43d1-801c-b1535fcba802 context-e37510b9-3166-4f80-a919-dfaac9b696c7 context-eb70b405-831d-4ac9-a77a-46e40d55723b context-f127e2a7-a839-4859-8615-1a2e01100c68" id="eb70b405-831d-4ac9-a77a-46e40d55723b"><path class="Edge" d="M 334.5 38.5 354.5 38.5" fill="none" marker-end="url(&quot;#FineArrowMark_000000&quot;)" stroke="#000000" stroke-width="1" /></g><g class="Box OperationalCapability context-7ceb090a-c464-4718-bc31-d32e6f907d83 context-84adfa3f-11c9-43d1-801c-b1535fcba802 context-e37510b9-3166-4f80-a919-dfaac9b696c7 context-eb70b405-831d-4ac9-a77a-46e40d55723b context-f127e2a7-a839-4859-8615-1a2e01100c68" id="7ceb090a-c464-4718-bc31-d32e6f907d83"><use class="OperationalCapability" fill="url(&quot;#CustomGradient_F9F8F5_DDDDC8&quot;)" height="17" stroke="#454545" stroke-width="1" width="30" x="68.5" xlink:href="#OperationalCapabilitySymbol" y="30.5" /><text class="Annotation" dominant-baseline="middle" fill="#000000" text-anchor="middle" x="12" y="47"><tspan x="83.0" xml:space="preserve" y="52.714285714285715">Provide food sources</tspan></text></g></svg>