<svg baseProfile="full" class="OperationalCapabilitiesBlank" font-family="'Open Sans','Segoe UI',Arial,sans-serif" font-size="10px" height="105" shape-rendering="geometricPrecision" version="1.1" viewBox="2 2 432 105" width="432" xmlns="http://www.w3.org/2000/svg" xmlns:ev="http://www.w3.org/2001/xml-events" xmlns:xlink="http://www.w3.org/1999/xlink"><defs><symbol id="OperationalCapabilitySymbol" viewBox="0 0 50 37"><radialGradient cx="25.657873" cy="25.925144" fx="25.657873" fy="25.925144" gradientTransform="matrix(1.471657,0.01303118,-0.03846138,4.3435681,-11.744602,-94.299935)" gradientUnits="userSpaceOnUse" id="brown_oval" r="20.562483"><stop offset="0" stop-color="#ffffff" /><stop offset="1" stop-color="#d0ab84" /></radialGradient><ellipse cx="25.017874" cy="18.64205" fill="url(#brown_oval)" rx="24.564632" ry="17.453819" stroke="#563b18" stroke-width="1" /><g transform="matrix(0.99781353,0,0,0.74596554,0.47471941,4.4891996)"><g fill="#000" stroke="none" transform="matrix(1.1032581,0,0,0.63735306,-10.659712,-9.548313)"><path d="m 22.557488,35.882454 q -2.845659,0 -4.527185,2.121309 -1.668591,2.12131 -1.668591,5.781862 0,3.647618 1.668591,5.768927 1.681526,2.12131 4.527185,2.12131 2.845659,0 4.501315,-2.12131 1.668591,-2.121309 1.668591,-5.768927 0,-3.660552 -1.668591,-5.781862 -1.655656,-2.121309 -4.501315,-2.121309 z m 0,-2.12131 q 4.061532,0 6.493277,2.729246 2.431745,2.716311 2.431745,7.295235 0,4.56599 -2.431745,7.295236 -2.431745,2.716311 -6.493277,2.716311 -4.074466,0 -6.519146,-2.716311 -2.431745,-2.716311 -2.431745,-7.295236 0,-4.578924 2.431745,-7.295235 2.44468,-2.729246 6.519146,-2.729246 z" /><path d="m 50.031033,35.597888 v 2.755115 q -1.319351,-1.228807 -2.81979,-1.836743 -1.487504,-0.607937 -3.169029,-0.607937 -3.311313,0 -5.070448,2.030766 -1.759134,2.017831 -1.759134,5.846536 0,3.815771 1.759134,5.846536 1.759135,2.017831 5.070448,2.017831 1.681525,0 3.169029,-0.607936 1.500439,-0.607936 2.81979,-1.836744 v 2.729246 q -1.371091,0.931307 -2.910334,1.39696 -1.526308,0.465654 -3.233703,0.465654 -4.384902,0 -6.907191,-2.677507 -2.522289,-2.690441 -2.522289,-7.33404 0,-4.656533 2.522289,-7.334039 2.522289,-2.690442 6.907191,-2.690442 1.733265,0 3.259573,0.465654 1.539243,0.452718 2.884464,1.37109 z" /></g></g></symbol><symbol id="OperationalActorSymbol" stroke="#000" stroke-width="2" viewBox="0 0 50 50"><radialGradient cx="25.8" cy="9.965" fx="25.8" fy="9.965" gradientUnits="userSpaceOnUse" id="gray" r="8.06"><stop offset="0" stop-color="#fff" /><stop offset="1" stop-color="#9aaab9" /></radialGradient><circle cx="25.8" cy="9.965" fill="url(#gray)" r="7.445" /><path d="m 25.643608,17.4341 0.276914,19.3657 -9.691951,8.97218 v 0 l 9.691951,-8.97218 9.207354,8.838931 -9.345812,-8.927765 -0.137836,-8.984648 9.209822,0.04899 -18.407914,0.04443" fill="none" /></symbol><linearGradient id="CustomGradient_F9F8F5_DDDDC8" x1="0" x2="0" y1="0" y2="1"><stop offset="0.0" stop-color="#F9F8F5" stop-opacity="1" /><stop offset="1.0" stop-color="#DDDDC8" stop-opacity="1" /></linearGradient><marker id="FineArrowMark_000000" markerHeight="7.5" markerUnits="userSpaceOnUse" markerWidth="7.5" orient="auto" refX="7" refY="3.75"><path d="M 0.4535,0.107 7.309,3.621 0.492,7.407 0.144,7.407 6.414,3.63 0.136,0.479 Z" stroke="#000000" stroke-width="1" /></marker></defs><rect fill="#fff" height="105" stroke="none" width="432" x="2" y="2" /><g class="Box OperationalCapability context-1bba6377-90b7-42d6-ad03-6c536e5519fd context-366b68a4-200c-4ae4-bccf-7a70874a0b85 context-3b83b4ba-671a-4de8-9c07-a5c6b1d3c422 context-3c92ccd5-ed30-4f41-9672-1c34f7a1286a context-53c58b24-3938-4d6a-b84a-bb9bff355a41 context-83d1334f-6180-46c4-a80d-6839341df688 context-a8c42033-fdf2-458f-bae9-1cfd1207c49f" id="83d1334f-6180-46c4-a80d-6839341df688"><rect class="OperationalCapability" fill="#FFFFFF" height="42" stroke="#888888" stroke-dasharray="3" stroke-width="4" width="85" x="153.5" y="43.5" /><text class="OperationalCapability" dominant-baseline="middle" fill="#000000" text-anchor="middle" x="156" y="55"><tspan x="206.0" xml:space="preserve" y="63.85714285714286">Stay alive</tspan></text><use height="20" width="20" x="165.0" xlink:href="#OperationalCapabilitySymbol" y="53.85714285714286" /></g><g class="Box OperationalActor context-1bba6377-90b7-42d6-ad03-6c536e5519fd context-366b68a4-200c-4ae4-bccf-7a70874a0b85 context-3b83b4ba-671a-4de8-9c07-a5c6b1d3c422 context-3c92ccd5-ed30-4f41-9672-1c34f7a1286a context-53c58b24-3938-4d6a-b84a-bb9bff355a41 context-83d1334f-6180-46c4-a80d-6839341df688 context-a8c42033-fdf2-458f-bae9-1cfd1207c49f" id="a8c42033-fdf2-458f-bae9-1cfd1207c49f"><rect class="OperationalActor" fill="url(&quot;#CustomGradient_F9F8F5_DDDDC8&quot;)" height="42" stroke="#454545" stroke-width="1" width="166" x="258.5" y="43.5" /><text class="OperationalActor" dominant-baseline="middle" fill="#000000" text-anchor="middle" x="261" y="55"><tspan x="351.5" xml:space="preserve" y="63.85714285714286">Functional Human Being</tspan></text><use height="20" width="20" x="275.0" xlink:href="#OperationalActorSymbol" y="53.85714285714286" /></g><g class="Edge AbstractCapabilityInclude context-1bba6377-90b7-42d6-ad03-6c536e5519fd context-366b68a4-200c-4ae4-bccf-7a70874a0b85 context-3b83b4ba-671a-4de8-9c07-a5c6b1d3c422 context-3c92ccd5-ed30-4f41-9672-1c34f7a1286a context-53c58b24-3938-4d6a-b84a-bb9bff355a41 context-83d1334f-6180-46c4-a80d-6839341df688 context-a8c42033-fdf2-458f-bae9-1cfd1207c49f" id="366b68a4-200c-4ae4-bccf-7a70874a0b85"><path class="Edge" d="M 88.5 71.5 153.5 71.5" fill="none" marker-end="url(&quot;#FineArrowMark_000000&quot;)" stroke="#000000" stroke-width="1" /></g><g class="Edge AbstractCapabilityExtend context-1bba6377-90b7-42d6-ad03-6c536e5519fd context-366b68a4-200c-4ae4-bccf-7a70874a0b85 context-3b83b4ba-671a-4de8-9c07-a5c6b1d3c422 context-3c92ccd5-ed30-4f41-9672-1c34f7a1286a context-53c58b24-3938-4d6a-b84a-bb9bff355a41 context-83d1334f-6180-46c4-a80d-6839341df688 context-a8c42033-fdf2-458f-bae9-1cfd1207c49f" id="3c92ccd5-ed30-4f41-9672-1c34f7a1286a"><path class="Edge" d="M 88.5 21.5 143.5 21.5 143.5 57.5 153.5 57.5" fill="none" marker-end="url(&quot;#FineArrowMark_000000&quot;)" stroke="#000000" stroke-width="1" /></g><g class="Edge EntityOperationalCapabilityInvolvement context-1bba6377-90b7-42d6-ad03-6c536e5519fd context-366b68a4-200c-4ae4-bccf-7a70874a0b85 context-3b83b4ba-671a-4de8-9c07-a5c6b1d3c422 context-3c92ccd5-ed30-4f41-9672-1c34f7a1286a context-53c58b24-3938-4d6a-b84a-bb9bff355a41 context-83d1334f-6180-46c4-a80d-6839341df688 context-a8c42033-fdf2-458f-bae9-1cfd1207c49f" id="1bba6377-90b7-42d6-ad03-6c536e5519fd"><path class="Edge" d="M 238.5 64.5 258.5 64.5" fill="none" marker-end="url(&quot;#FineArrowMark_000000&quot;)" stroke="#000000" stroke-width="1" /></g><g class="Box OperationalCapability context-1bba6377-90b7-42d6-ad03-6c536e5519fd context-366b68a4-200c-4ae4-bccf-7a70874a0b85 context-3b83b4ba-671a-4de8-9c07-a5c6b1d3c422 context-3c92ccd5-ed30-4f41-9672-1c34f7a1286a context-53c58b24-3938-4d6a-b84a-bb9bff355a41 context-83d1334f-6180-46c4-a80d-6839341df688 context-a8c42033-fdf2-458f-bae9-1cfd1207c49f" id="53c58b24-3938-4d6a-b84a-bb9bff355a41"><use class="OperationalCapability" fill="url(&quot;#CustomGradient_F9F8F5_DDDDC8&quot;)" height="17" stroke="#454545" stroke-width="1" width="30" x="58.5" xlink:href="#OperationalCapabilitySymbol" y="62.5" /><text class="Annotation" dominant-baseline="middle" fill="#000000" text-anchor="middle" x="12" y="79"><tspan x="72.5" xml:space="preserve" y="86.85714285714286">Escape predators</tspan></text></g><g class="Box OperationalCapability context-1bba6377-90b7-42d6-ad03-6c536e5519fd context-366b68a4-200c-4ae4-bccf-7a70874a0b85 context-3b83b4ba-671a-4de8-9c07-a5c6b1d3c422 context-3c92ccd5-ed30-4f41-9672-1c34f7a1286a context-53c58b24-3938-4d6a-b84a-bb9bff355a41 context-83d1334f-6180-46c4-a80d-6839341df688 context-a8c42033-fdf2-458f-bae9-1cfd1207c49f" id="3b83b4ba-671a-4de8-9c07-a5c6b1d3c422"><use class="OperationalCapability" fill="url(&quot;#CustomGradient_F9F8F5_DDDDC8&quot;)" height="17" stroke="#454545" stroke-width="1" width="30" x="58.5" xlink:href="#OperationalCapabilitySymbol" y="12.5" /><text class="Annotation" dominant-baseline="middle" fill="#000000" text-anchor="middle" x="36" y="29"><tspan x="72.5" xml:space="preserve" y="34.714285714285715">Eat food</tspan></text></g></svg>