<svg baseProfile="full" class="LogicalArchitectureBlank" font-family="'Open Sans','Segoe UI',Arial,sans-serif" font-size="10px" height="361" shape-rendering="geometricPrecision" version="1.1" viewBox="65 55 874 361" width="874" xmlns="http://www.w3.org/2000/svg" xmlns:ev="http://www.w3.org/2001/xml-events" xmlns:xlink="http://www.w3.org/1999/xlink"><defs><symbol id="LogicalComponentSymbol" stroke="#000" stroke-width="2" viewBox="0 0 79 79"><path d="M18 237h46v43H18z" fill="#dbe6f4" transform="translate(0 -218)" /><path d="M12 247h11v8H12z" fill="#dbe6f4" transform="translate(0 -218)" /><path d="M12 261h11v8H12z" fill="#dbe6f4" transform="translate(0 -218)" /><g transform="scale(0.90705135,1.1024734)"><path d="m 37.427456,20.821353 h 4.221475 V 50.90971 H 37.427456 Z M 39.538194,46.89517 H 56.75519 v 4.01454 H 39.538194 Z" fill="#000" stroke-width="0.1" /></g></symbol><linearGradient id="CustomGradient_C3E6FF_96B1DA" x1="0" x2="0" y1="0" y2="1"><stop offset="0.0" stop-color="#C3E6FF" stop-opacity="1" /><stop offset="1.0" stop-color="#96B1DA" stop-opacity="1" /></linearGradient><symbol id="LogicalFunctionSymbol" viewBox="0 0 79 79"><linearGradient id="LF_green" x1="0" x2="1" y1="0" y2="0"><stop offset="0.0" stop-color="#6CB35B" stop-opacity="1" /><stop offset="1.0" stop-color="#ffffff" stop-opacity="1" /></linearGradient><ellipse cx="39.5" cy="39.5" fill="url(#LF_green)" rx="26" ry="21" stroke="#000" stroke-width="2" /><text fill="#000" font-family="'Open Sans','Segoe UI',Arial,sans-serif" font-size="25px" font-weight="bold" stroke="none" text-anchor="middle" x="40" y="50">LF</text></symbol><symbol id="PortSymbol" viewBox="0 0 10 10"><path d="M0 0h10v10H0z" /><path d="M5 1L1 9h8z" fill="#fff" /></symbol><symbol id="LogicalActorSymbol" stroke="#000" stroke-width="2" viewBox="0 0 79 79"><path d="M18 237h46v43H18z" fill="#dbe6f4" transform="translate(0 -218)" /><path d="M12 247h11v8H12z" fill="#dbe6f4" transform="translate(0 -218)" /><path d="M12 261h11v8H12z" fill="#dbe6f4" transform="translate(0 -218)" /><g fill="#000" stroke-width="0.1" transform="scale(0.83010896,1.2046611)"><path d="m 31.063676,19.942628 h 3.754427 v 26.759494 h -3.754427 z m 1.877213,23.189107 h 15.312173 v 3.570387 H 32.940889 Z" /><path d="m 60.32612,19.942628 h 3.202306 l 9.864572,26.759494 H 69.344107 L 61.927273,25.114167 54.51044,46.702122 H 50.461548 Z M 55.007349,37.260842 H 69.08645 v 3.570387 H 55.007349 Z" /></g></symbol><linearGradient id="CustomGradient_DAFDFF_C6E6FF" x1="0" x2="0" y1="0" y2="1"><stop offset="0.0" stop-color="#DAFDFF" stop-opacity="1" /><stop offset="1.0" stop-color="#C6E6FF" stop-opacity="1" /></linearGradient><symbol id="FunctionalExchangeSymbol" viewBox="0 0 40 30"><linearGradient id="FunctionalExchangeSymbol-gradient" x1="0" x2="1" y1="0" y2="1"><stop offset="0.0" stop-color="#4F7C45" stop-opacity="1" /><stop offset="1.0" stop-color="#BCDDB4" stop-opacity="1" /></linearGradient><linearGradient id="FunctionalExchangeSymbol-gradientreverse" x1="0" x2="1" y1="0" y2="1"><stop offset="0.0" stop-color="#BCDDB4" stop-opacity="1" /><stop offset="1.0" stop-color="#4F7C45" stop-opacity="1" /></linearGradient><g stroke="#000" stroke-width="2"><path d="M 36.190065,5.0377724 V 24.962228 H 26.17482 V 5.0377724 Z" fill="url(#FunctionalExchangeSymbol-gradientreverse)" /><path d="m 14.372107,10 h 12.622435 c 0.926189,0.585267 1.836022,1.274509 2.268178,5 -0.208657,2.812473 -0.954601,4.503809 -2.273297,5 H 14.296948" fill="#61c34c" /><path d="M 3.9464908,5.0048246 V 24.995175 H 10.87518 C 12.433713,24.159139 15.158267,20.291241 15.313795,15 15.498614,11.583142 14.059659,6.6240913 10.87518,5.0048246 c -2.2179509,0 -4.5908341,0 -6.9286892,0 z" fill="url(#FunctionalExchangeSymbol-gradient)" /></g></symbol></defs><rect fill="#fff" height="361" stroke="none" width="874" x="65" y="55" /><g class="Box LogicalComponent" id="_zxacsKOLEeyoZKqFFuuS6g"><rect class="LogicalComponent" fill="url(&quot;#CustomGradient_C3E6FF_96B1DA&quot;)" height="131" stroke="#4A4A97" stroke-width="1" width="361" x="415.5" y="65.5" /><text class="LogicalComponent" dominant-baseline="middle" fill="#4A4A97" text-anchor="middle" x="415" y="65"><tspan x="606.0" xml:space="preserve" y="73.71428571428572">E-Commerce</tspan></text><use height="20" width="20" x="557.0" xlink:href="#LogicalComponentSymbol" y="63.71428571428572" /></g><g class="Box LogicalFunction context-_3cnjIKOLEeyoZKqFFuuS6g context-_J8KVsKOOEey_Du5FCdH-qQ" id="_3cmVAKOLEeyoZKqFFuuS6g"><rect class="LogicalFunction" fill="#C5FFA6" height="50" stroke="#095C2E" stroke-width="1" width="141" x="435.5" y="114.5" /><text class="LogicalFunction" dominant-baseline="middle" fill="#095C2E" text-anchor="middle" x="435" y="131.14285714285714"><tspan x="516.0" xml:space="preserve" y="140.0">offer products</tspan></text><use height="20" width="20" x="463.5" xlink:href="#LogicalFunctionSymbol" y="130.0" /></g><g class="Box FIP context-_J8KVsKOOEey_Du5FCdH-qQ" id="_3cnjIKOLEeyoZKqFFuuS6g"><use class="FIP" fill="#E08503" height="10" stroke="#000000" stroke-width="0" transform="rotate(90 438.5 140.5)" width="10" x="433.5" xlink:href="#PortSymbol" y="135.5" /></g><g class="Box LogicalFunction context-_9Ac_IqOLEeyoZKqFFuuS6g context-_DkY7UKOOEey_Du5FCdH-qQ" id="_9Ac_IKOLEeyoZKqFFuuS6g"><rect class="LogicalFunction" fill="#C5FFA6" height="50" stroke="#095C2E" stroke-width="1" width="141" x="615.5" y="114.5" /><text class="LogicalFunction" dominant-baseline="middle" fill="#095C2E" text-anchor="middle" x="615" y="131.14285714285714"><tspan x="696.0" xml:space="preserve" y="140.0">assign order</tspan></text><use height="20" width="20" x="648.0" xlink:href="#LogicalFunctionSymbol" y="130.0" /></g><g class="Box FOP context-_DkY7UKOOEey_Du5FCdH-qQ" id="_9Ac_IqOLEeyoZKqFFuuS6g"><use class="FOP" fill="#095C2E" height="10" stroke="#000000" stroke-width="0" transform="rotate(90 753.5 140.5)" width="10" x="748.5" xlink:href="#PortSymbol" y="135.5" /></g><g class="Box LogicalActor" id="_4sBVgKOLEeyoZKqFFuuS6g"><rect class="LogicalActor" fill="url(&quot;#CustomGradient_DAFDFF_C6E6FF&quot;)" height="171" stroke="#4A4A97" stroke-width="1" width="201" x="75.5" y="85.5" /><text class="LogicalActor" dominant-baseline="middle" fill="#000000" text-anchor="middle" x="75" y="85"><tspan x="186.0" xml:space="preserve" y="93.71428571428572">Client</tspan></text><use height="20" width="20" x="153.5" xlink:href="#LogicalActorSymbol" y="83.71428571428572" /></g><g class="Box LogicalFunction context-_J8KVsKOOEey_Du5FCdH-qQ context-__NKHQaOLEeyoZKqFFuuS6g" id="__NJgMKOLEeyoZKqFFuuS6g"><rect class="LogicalFunction" fill="#C5FFA6" height="50" stroke="#095C2E" stroke-width="1" width="141" x="105.5" y="114.5" /><text class="LogicalFunction" dominant-baseline="middle" fill="#095C2E" text-anchor="middle" x="105" y="131.14285714285714"><tspan x="186.0" xml:space="preserve" y="140.0">select product</tspan></text><use height="20" width="20" x="133.5" xlink:href="#LogicalFunctionSymbol" y="130.0" /></g><g class="Box FOP context-_J8KVsKOOEey_Du5FCdH-qQ" id="__NKHQaOLEeyoZKqFFuuS6g"><use class="FOP" fill="#095C2E" height="10" stroke="#000000" stroke-width="0" transform="rotate(90 243.5 140.5)" width="10" x="238.5" xlink:href="#PortSymbol" y="135.5" /></g><g class="Box LogicalFunction context-_CnybEKOMEeyoZKqFFuuS6g context-_HWy18KOOEey_Du5FCdH-qQ" id="_Cnx0AKOMEeyoZKqFFuuS6g"><rect class="LogicalFunction" fill="#C5FFA6" height="50" stroke="#095C2E" stroke-width="1" width="141" x="105.5" y="184.5" /><text class="LogicalFunction" dominant-baseline="middle" fill="#095C2E" text-anchor="middle" x="105" y="201.14285714285714"><tspan x="186.0" xml:space="preserve" y="210.0">get product</tspan></text><use height="20" width="20" x="139.5" xlink:href="#LogicalFunctionSymbol" y="200.0" /></g><g class="Box FIP context-_HWy18KOOEey_Du5FCdH-qQ" id="_CnybEKOMEeyoZKqFFuuS6g"><use class="FIP" fill="#E08503" height="10" stroke="#000000" stroke-width="0" transform="rotate(0 181.5 231.5)" width="10" x="176.5" xlink:href="#PortSymbol" y="226.5" /></g><g class="Box LogicalComponent" id="_pogGMKQ_EeyXbcaQWLSeUQ"><rect class="LogicalComponent" fill="url(&quot;#CustomGradient_C3E6FF_96B1DA&quot;)" height="121" stroke="#4A4A97" stroke-width="1" width="361" x="415.5" y="285.5" /><text class="LogicalComponent" dominant-baseline="middle" fill="#4A4A97" text-anchor="middle" x="415" y="285"><tspan x="606.0" xml:space="preserve" y="295.85714285714283">Truck Company</tspan></text><use height="20" width="20" x="550.0" xlink:href="#LogicalComponentSymbol" y="285.85714285714283" /></g><g class="Box LogicalFunction context-_DkY7UKOOEey_Du5FCdH-qQ context-_t8XIEqQ_EeyXbcaQWLSeUQ" id="_t8IekKQ_EeyXbcaQWLSeUQ"><rect class="LogicalFunction" fill="#C5FFA6" height="50" stroke="#095C2E" stroke-width="1" width="141" x="615.5" y="334.5" /><text class="LogicalFunction" dominant-baseline="middle" fill="#095C2E" text-anchor="middle" x="615" y="353.2857142857143"><tspan x="696.0" xml:space="preserve" y="360.0">receive order</tspan></text><use height="20" width="20" x="646.0" xlink:href="#LogicalFunctionSymbol" y="350.0" /></g><g class="Box FIP context-_DkY7UKOOEey_Du5FCdH-qQ" id="_t8XIEqQ_EeyXbcaQWLSeUQ"><use class="FIP" fill="#E08503" height="10" stroke="#000000" stroke-width="0" transform="rotate(-90 753.5 360.5)" width="10" x="748.5" xlink:href="#PortSymbol" y="355.5" /></g><g class="Box LogicalFunction context-_HWy18KOOEey_Du5FCdH-qQ context-_t8YWMaQ_EeyXbcaQWLSeUQ" id="_t8JssaQ_EeyXbcaQWLSeUQ"><rect class="LogicalFunction" fill="#C5FFA6" height="50" stroke="#095C2E" stroke-width="1" width="151" x="435.5" y="334.5" /><text class="LogicalFunction" dominant-baseline="middle" fill="#095C2E" text-anchor="middle" x="435" y="351.14285714285717"><tspan x="521.0" xml:space="preserve" y="360.0">deliver product</tspan></text><use height="20" width="20" x="466.5" xlink:href="#LogicalFunctionSymbol" y="350.0" /></g><g class="Box FOP context-_HWy18KOOEey_Du5FCdH-qQ" id="_t8YWMaQ_EeyXbcaQWLSeUQ"><use class="FOP" fill="#095C2E" height="10" stroke="#000000" stroke-width="0" transform="rotate(270 438.5 360.5)" width="10" x="433.5" xlink:href="#PortSymbol" y="355.5" /></g><g class="Edge FunctionalExchange" id="_J8KVsKOOEey_Du5FCdH-qQ"><path class="Edge" d="M 248.5 140.5 433.5 140.5" fill="none" stroke="#095C2E" stroke-width="2" /><text class="Annotation" dominant-baseline="middle" fill="#095C2E" text-anchor="middle" x="299.5" y="122"><tspan x="352.0" xml:space="preserve" y="132.85714285714286">product list</tspan></text><use height="20" width="20" x="305.5" xlink:href="#FunctionalExchangeSymbol" y="122.85714285714286" /></g><g class="Edge FunctionalExchange" id="_HWy18KOOEey_Du5FCdH-qQ"><path class="Edge" d="M 433.5 360.5 180.5 360.5 181.5 236.5" fill="none" stroke="#095C2E" stroke-width="2" /><text class="Annotation" dominant-baseline="middle" fill="#095C2E" text-anchor="middle" x="195.5" y="361"><tspan x="254.5" xml:space="preserve" y="371.85714285714283">supply details</tspan></text><use height="20" width="20" x="202.5" xlink:href="#FunctionalExchangeSymbol" y="361.85714285714283" /></g><g class="Edge FunctionalExchange" id="_DkY7UKOOEey_Du5FCdH-qQ"><path class="Edge" d="M 758.5 140.5 885.5 140.5 885.5 360.5 758.5 360.5" fill="none" stroke="#095C2E" stroke-width="2" /><text class="Annotation" dominant-baseline="middle" fill="#095C2E" text-anchor="middle" x="850.5" y="278"><tspan x="906.5" xml:space="preserve" y="286.7142857142857">order details</tspan></text><use height="20" width="20" x="857.0" xlink:href="#FunctionalExchangeSymbol" y="276.7142857142857" /></g></svg>