<svg baseProfile="full" class="ClassDiagramBlank" font-family="'Open Sans','Segoe UI',Arial,sans-serif" font-size="10px" height="421" shape-rendering="geometricPrecision" version="1.1" viewBox="325 75 491 421" width="491" xmlns="http://www.w3.org/2000/svg" xmlns:ev="http://www.w3.org/2001/xml-events" xmlns:xlink="http://www.w3.org/1999/xlink"><defs><symbol id="ClassSymbol" viewBox="0 0 25 25"><linearGradient id="ClassSymbol-gradient" x1="0" x2="0" y1="0" y2="1"><stop offset="0.0" stop-color="#cfa6a5" stop-opacity="1" /><stop offset="1.0" stop-color="#f1e2e3" stop-opacity="1" /></linearGradient><g stroke="#913734"><rect fill="#eedcdd" height="3" width="15" x="5" y="17" /><rect fill="#eedcdd" height="3" width="15" x="5" y="14" /><rect fill="url(#ClassSymbol-gradient)" height="10" width="15" x="5" y="4" /></g></symbol><linearGradient id="CustomGradient_FFFFFF_E8E0D2" x1="0" x2="0" y1="0" y2="1"><stop offset="0.0" stop-color="#FFFFFF" stop-opacity="1" /><stop offset="1.0" stop-color="#E8E0D2" stop-opacity="1" /></linearGradient><symbol id="ClassFeatureSymbol" viewBox="0 0 27 21"><linearGradient id="ClassFeatureSymbol-gradient" x1="0" x2="0" y1="0" y2="1"><stop offset="0.0" stop-color="#cfa6a5" stop-opacity="1" /><stop offset="1.0" stop-color="#f1e2e3" stop-opacity="1" /></linearGradient><g><rect fill="#913734" height="11.5" width="17" x="7" y="4" /><rect fill="url(#ClassFeatureSymbol-gradient)" height="9.5" width="17" x="7" y="5" /><circle cx="20.7" cy="12.1" fill="#f1e2e3" r="4.1" stroke="#913734" stroke-width="1" /></g></symbol><marker id="FineArrowMark_000000" markerHeight="7.5" markerUnits="userSpaceOnUse" markerWidth="7.5" orient="auto" refX="7" refY="3.75"><path d="M 0.4535,0.107 7.309,3.621 0.492,7.407 0.144,7.407 6.414,3.63 0.136,0.479 Z" stroke="#000000" stroke-width="1" /></marker></defs><rect fill="#fff" height="421" stroke="none" width="491" x="325" y="75" /><g class="Box Class context-_57ZBAMn-EeyS2Zr7ZWFrXA" id="_tZoJkMn-EeyS2Zr7ZWFrXA"><rect class="Class" fill="url(&quot;#CustomGradient_FFFFFF_E8E0D2&quot;)" height="51" rx="10px" ry="10px" stroke="#7B694F" stroke-width="1" width="111" x="335.5" y="85.5" /><text class="Class" dominant-baseline="middle" fill="#000000" text-anchor="middle" x="335" y="85"><tspan x="401.0" xml:space="preserve" y="93.85714285714286">Trajectory</tspan></text><use height="20" width="20" x="358.0" xlink:href="#ClassSymbol" y="83.85714285714286" /><line stroke="#7B694F" x1="335.5" x2="446.5" y1="111.21428571428572" y2="111.21428571428572" /></g><g class="Box Class context-_57ZBAMn-EeyS2Zr7ZWFrXA context-_hNOBoMn_EeyS2Zr7ZWFrXA" id="_tyt_AMn-EeyS2Zr7ZWFrXA"><rect class="Class" fill="url(&quot;#CustomGradient_FFFFFF_E8E0D2&quot;)" height="101" rx="10px" ry="10px" stroke="#7B694F" stroke-width="1" width="111" x="335.5" y="205.5" /><text class="Class" dominant-baseline="middle" fill="#000000" text-anchor="middle" x="335" y="205"><tspan x="401.0" xml:space="preserve" y="213.85714285714286">Waypoint</tspan></text><use height="20" width="20" x="359.5" xlink:href="#ClassSymbol" y="203.85714285714286" /><line stroke="#7B694F" x1="335.5" x2="446.5" y1="231.21428571428572" y2="231.21428571428572" /><text class="Features" dominant-baseline="middle" fill="#000000" text-anchor="start" x="347.5" y="231.21428571428572"><tspan x="358.0" xml:space="preserve" y="241.92857142857144">lat : float</tspan></text><use height="20" width="20" x="337.0" xlink:href="#ClassFeatureSymbol" y="231.92857142857144" /><text class="Features" dominant-baseline="middle" fill="#000000" text-anchor="start" x="347.5" y="242.64285714285714"><tspan x="358.0" xml:space="preserve" y="253.35714285714286">lon : float</tspan></text><use height="20" width="20" x="337.0" xlink:href="#ClassFeatureSymbol" y="243.35714285714286" /><text class="Features" dominant-baseline="middle" fill="#000000" text-anchor="start" x="347.5" y="254.07142857142856"><tspan x="358.0" xml:space="preserve" y="264.7857142857143">alt : float</tspan></text><use height="20" width="20" x="337.0" xlink:href="#ClassFeatureSymbol" y="254.78571428571428" /></g><g class="Box Class context-_hNOBoMn_EeyS2Zr7ZWFrXA" id="_uE4tEMn-EeyS2Zr7ZWFrXA"><rect class="Class" fill="url(&quot;#CustomGradient_FFFFFF_E8E0D2&quot;)" height="81" rx="10px" ry="10px" stroke="#7B694F" stroke-width="1" width="111" x="335.5" y="405.5" /><text class="Class" dominant-baseline="middle" fill="#000000" text-anchor="middle" x="335" y="405"><tspan x="401.0" xml:space="preserve" y="413.85714285714283">Example</tspan></text><use height="20" width="20" x="362.0" xlink:href="#ClassSymbol" y="403.85714285714283" /><line stroke="#7B694F" x1="335.5" x2="446.5" y1="431.2142857142857" y2="431.2142857142857" /><text class="Features" dominant-baseline="middle" fill="#000000" text-anchor="start" x="347.5" y="431.2142857142857"><tspan x="358.0" xml:space="preserve" y="441.92857142857144">test : str</tspan></text><use height="20" width="20" x="337.0" xlink:href="#ClassFeatureSymbol" y="431.92857142857144" /></g><g class="Box NumericType" id="_AoUMAMn_EeyS2Zr7ZWFrXA"><rect class="NumericType" fill="#E8E0D2" height="31" stroke="#676767" stroke-width="1" width="61" x="745.5" y="145.5" /><text class="NumericType" dominant-baseline="middle" fill="#000000" text-anchor="middle" x="745" y="145"><tspan x="775.5" xml:space="preserve" y="151.71428571428572">float</tspan></text><line stroke="#676767" x1="745.5" x2="806.5" y1="166.92857142857144" y2="166.92857142857144" /></g><g class="Box StringType" id="_DQUJAMn_EeyS2Zr7ZWFrXA"><rect class="StringType" fill="#E8E0D2" height="31" stroke="#676767" stroke-width="1" width="61" x="745.5" y="245.5" /><text class="StringType" dominant-baseline="middle" fill="#000000" text-anchor="middle" x="745" y="245"><tspan x="775.5" xml:space="preserve" y="251.71428571428572">str</tspan></text><line stroke="#676767" x1="745.5" x2="806.5" y1="266.92857142857144" y2="266.92857142857144" /></g><g class="Edge Association" id="_57ZBAMn-EeyS2Zr7ZWFrXA"><path class="Edge" d="M 390.5 136.5 390.5 205.5" fill="none" marker-end="url(&quot;#FineArrowMark_000000&quot;)" stroke="#000000" stroke-width="1" /></g><g class="Edge Association" id="_hNOBoMn_EeyS2Zr7ZWFrXA"><path class="Edge" d="M 391.5 306.5 391.5 345.5 391.5 405.5" fill="none" marker-end="url(&quot;#FineArrowMark_000000&quot;)" stroke="#000000" stroke-width="1" /></g></svg>