<?xml version="1.0" encoding="UTF-8" standalone="no"?>
<svg
   xmlns:dc="http://purl.org/dc/elements/1.1/"
   xmlns:cc="http://creativecommons.org/ns#"
   xmlns:rdf="http://www.w3.org/1999/02/22-rdf-syntax-ns#"
   xmlns:svg="http://www.w3.org/2000/svg"
   xmlns="http://www.w3.org/2000/svg"
   xmlns:sodipodi="http://sodipodi.sourceforge.net/DTD/sodipodi-0.dtd"
   xmlns:inkscape="http://www.inkscape.org/namespaces/inkscape"
   inkscape:version="1.0 (4035a4fb49, 2020-05-01)"
   sodipodi:docname="PyCap_logo3.svg"
   id="svg242"
   viewBox="0 0 52.916667 52.916667"
   version="1.1"
   height="200"
   width="200">
  <metadata
     id="metadata248">
    <rdf:RDF>
      <cc:Work
         rdf:about="">
        <dc:format>image/svg+xml</dc:format>
        <dc:type
           rdf:resource="http://purl.org/dc/dcmitype/StillImage" />
        <dc:title></dc:title>
      </cc:Work>
    </rdf:RDF>
  </metadata>
  <defs
     id="defs246" />
  <sodipodi:namedview
     inkscape:current-layer="svg242"
     inkscape:window-maximized="1"
     inkscape:window-y="-8"
     inkscape:window-x="-8"
     inkscape:cy="96.520781"
     inkscape:cx="-25.971298"
     inkscape:zoom="2.3177083"
     inkscape:guide-bbox="true"
     showguides="true"
     showgrid="false"
     id="namedview244"
     inkscape:window-height="1057"
     inkscape:window-width="1920"
     inkscape:pageshadow="2"
     inkscape:pageopacity="0"
     guidetolerance="10"
     gridtolerance="10"
     objecttolerance="10"
     borderopacity="1"
     bordercolor="#666666"
     pagecolor="#ffffff">
    <sodipodi:guide
       inkscape:color="rgb(0,0,255)"
       inkscape:locked="false"
       inkscape:label=""
       id="guide1196"
       orientation="-1,0"
       position="26.458333,60.343036" />
  </sodipodi:namedview>
  <g
     transform="matrix(9.5476957,0,0,9.5476957,-2.2784452,-4.2024038)"
     id="g1194">
    <g
       id="g222">
      <g
         transform="matrix(0.016245,0,0,0.016245,-0.88613,2.0692)"
         id="g220">
        <g
           transform="matrix(1.7251,0,0,1.7939,-559.41,22.748)"
           id="g2" />
        <rect
           x="207.45"
           y="-53.734001"
           width="21.568001"
           height="17.636"
           rx="10.793"
           ry="10.793"
           fill="#ffffff"
           stroke-opacity="0"
           id="rect4" />
        <g
           id="g218">
          <path
             d="m 195.87,48.383 c 1.6326,0.0017 2.7077,37.693 2.3999,84.132 -0.30779,46.439 -1.8826,84.128 -3.5151,84.126 -1.6325,-0.002 -2.7077,-37.693 -2.3999,-84.132 0.30778,-46.439 1.8826,-84.127 3.5151,-84.126 z"
             id="path6" />
          <g
             transform="translate(7.9301,-11.86)"
             id="g40">
            <g
               id="g16">
              <path
                 d="m 178.59,-0.851 c 0.0479,-0.065066 1.8867,1.116 5.1082,3.6474 2.8955,2.2753 8.1757,6.6713 12.364,12.607 2.0106,2.849 3.9905,6.4293 4.9443,10.539 0.83889,3.6352 0.78987,7.7676 -0.52818,11.798 -2.9277,8.9167 -8.5817,17.215 -16.462,25.389 -6.6336,6.8915 -14.511,13.401 -22.058,20.913 l -10e-6,9e-6 c -6.0091,5.9879 -11.758,13.03 -15.57,21.218001 -3.6332,7.8014 -5.3033,16.933 -3.483,25.725 0.56726,2.7698 1.3102,5.5109 2.2124,8.222 3.2469,9.7573 8.4295,18.74 14.194,26.719 7.7872,10.771 17.433,20.932 25.561,29.77 3.7872,4.1053 6.7353,8.7805 8.2243,13.87 1.6245,5.5651 0.92753,11.476 -1.8365,16.053 -3.4051,5.6052 -8.2272,9.8752 -13.424,12.433 -6.1812,3.0408 -12.761,3.4467 -18.198,2.1102 -10.056,-2.4613 -16.633,-7.2802 -20.328,-11.274 -3.6628,-3.9589 -4.6622,-6.8391 -4.5786,-6.8813 0.0836,-0.0422 1.2401,2.7405 4.962,6.5152 3.7687,3.8221 10.28,8.3525 20.178,10.663 5.2297,1.2143 11.539,0.73516 17.419,-2.2293 4.9622,-2.5002 9.5553,-6.6523 12.784,-12.052 2.535,-4.2148 3.1243,-9.7414 1.5895,-14.916 -1.4228,-4.8087 -4.2804,-9.2569 -7.9499,-13.221 -8.1672,-8.7947 -17.87,-18.953 -25.781,-29.842 -5.8624,-8.0635 -11.132,-17.194 -14.452,-27.174 -0.92236,-2.7724 -1.684,-5.5794 -2.2686,-8.4191 -1.8819,-9.2381 -0.14089,-18.741 3.6431,-26.791 3.9613,-8.426401 9.8427,-15.602001 15.97,-21.644001 1e-5,-2e-6 1e-5,-5e-6 1e-5,-8e-6 7.6546,-7.5563 15.546,-14.004 22.15,-20.778 7.8264,-8.0407 13.44,-16.086 16.371,-24.757 1.2878,-3.7937 1.3842,-7.7224 0.63059,-11.189 -0.85043,-3.9369 -2.7254,-7.443 -4.6404,-10.266 -8.4311,-12.428 -16.84,-16.628 -16.744,-16.758 z"
                 id="path8" />
              <path
                 d="m 219.16,4.9538 c 0.0475,-0.063706 1.962,1.1981 5.3517,3.8513 3.0119,2.3575 8.6625,6.9872 13.149,13.113 2.1609,2.9497 4.3201,6.6654 5.4121,10.952 0.95799,3.7797 0.99765,8.1038 -0.30641,12.341 -2.8618,9.2527 -8.7337,17.756 -16.906,26.119 -6.8748,7.0487 -15.036,13.694 -22.624,21.599 l -1e-5,9e-6 c -6.1204,6.3786 -13.446,13.263001 -18.726,21.001001 -2.4501,3.5951 -4.6029,7.5338 -5.6668,11.789 -0.99924,3.9751 -0.92995,8.2984 0.4693,12.22 1.9541,5.5233 4.8722,10.699 8.3431,15.678 1.7834,2.5582 3.6896,5.0315 5.6358,7.4254 5.9035,7.2481 12.257,13.969 17.679,21.197 4.8437,6.4456 8.6214,13.463 10.389,20.973 0.89875,3.8202 1.199,7.7384 0.65944,11.54 -0.57836,4.0373 -2.1566,7.8295 -4.4557,11.004 -8.1021,11.176 -19.678,18.097 -30.69,21.189 -6.4854,1.8232 -12.824,2.3181 -18.635,1.7306 -7.0669,-0.71565 -13.157,-3.0526 -17.929,-5.9543 -7.5169,-4.5524 -11.605,-9.9993 -13.597,-14.112 -1.9668,-4.0609 -2.0584,-6.5879 -1.9778,-6.602 0.0806,-0.0141 0.32876,2.4715 2.3936,6.392 2.1004,3.9878 6.2071,9.169 13.64,13.554 4.7104,2.7669 10.686,4.967 17.579,5.5909 5.6725,0.51449 11.849,-0.0307 18.167,-1.8592 10.731,-3.1094 21.988,-9.9433 29.796,-20.833 2.1401,-2.9824 3.6055,-6.5489 4.1291,-10.323 0.50006,-3.5671 0.1937,-7.283 -0.67198,-10.942 -1.7079,-7.2203 -5.4069,-14.014 -10.152,-20.33 -5.357,-7.1185 -11.701,-13.809 -17.664,-21.123 -1.9715,-2.414 -3.9053,-4.9204 -5.7191,-7.5257 -3.5299,-5.0703 -6.5152,-10.386 -8.5433,-16.094 -1.5101,-4.2838 -1.5867,-8.9382 -0.50019,-13.214 1.1568,-4.5292 3.3992,-8.6416 5.9354,-12.321 5.457,-7.9273 12.852,-14.845001 18.967,-21.155001 l 1e-5,-9e-6 c 7.7183,-7.97 15.903,-14.562 22.749,-21.496 8.1158,-8.234 13.943,-16.475 16.802,-25.47 1.278,-4 1.2892,-8.123 0.41927,-11.738 -0.98594,-4.1189 -3.0408,-7.7652 -5.1081,-10.693 -4.2814,-6.0622 -9.8362,-10.834 -12.731,-13.264 -3.2849,-2.7569 -5.1092,-4.1454 -5.0617,-4.2091 z"
                 id="path10" />
              <path
                 d="m 197.31,5.578 c 0.12025,-0.12857 4.439,2.9849 9.7025,10.263 1.9488,2.6946 4.048,6.1557 5.5522,10.236 2.0488,5.5726 2.852,12.48 1.2838,19.784 -1.373,6.3677 -4.1934,12.492 -7.952,18.721 -3.3313,5.53 -7.1048,10.717 -11.223,16.216 -0.0963,0.12858 -1.1708,1.56 -1.267,1.6886 -4.5974,6.1226 -8.7278,11.525 -12.477,17.45 -3.7059,5.8687 -6.5438,11.442 -7.9854,17.299 -0.73695,2.9841 -1.0584,5.9052 -0.95593,8.6974 0.11568,3.2078 0.79199,6.2039 1.7733,8.8535 1.3408,3.6252 3.2867,6.7309 5.0778,9.1476 4.9328,6.6543 8.9518,9.5847 8.8423,9.7149 -0.1095,0.1302 -4.3283,-2.5326 -9.5767,-9.1516 -1.9089,-2.407 -3.9862,-5.54 -5.4648,-9.2817 -1.0801,-2.7366 -1.8444,-5.8537 -2.0201,-9.222 -0.15109,-2.9295 0.1399,-5.9915 0.87275,-9.1078 1.4382,-6.0952 4.297,-11.875 8.0296,-17.834 3.7611,-6.0171 7.918,-11.498 12.501,-17.604 -0.41023,0.54692 1.6752,-2.2344 1.2649,-1.6875 4.1128,-5.4937 7.8599,-10.613 11.168,-16.051 3.7215,-6.127 6.5202,-12.045 7.8987,-18.178 1.5778,-6.9887 0.91584,-13.638 -0.9547,-19.039 -1.3711,-3.97 -3.3396,-7.4033 -5.1684,-10.106 -4.946,-7.3077 -9.042,-10.681 -8.9218,-10.81 z"
                 id="path12" />
              <path
                 d="m 178.59,-0.851 c 0.11023,-0.12358 2.2394,1.6323 4.7762,3.877 2.5369,2.2448 4.5989,4.0565 4.4962,4.1864 -0.10268,0.12992 -2.3494,-1.4859 -4.8938,-3.737 -2.5444,-2.2511 -4.4888,-4.2028 -4.3786,-4.3264 z"
                 id="path14" />
            </g>
            <g
               stroke-opacity="0"
               id="g24">
              <path
                 style="fill:#008000;fill-opacity:1"
                 transform="scale(0.26458)"
                 d="m 619.76,933.45 c 0,0 -22.356,-3.66 -45.362,-15.818 -19.038,-10.061 -31.86,-22.054 -42.238,-34.156 -2.7189,-3.1706 -6.8962,-8.3261 -11.107,-15.295 -2.6572,-4.3981 -4.9226,-9.1258 -6.7957,-13.381 -2.9778,-6.7656 -4.4098,-13.353 -4.4098,-13.353 0.3561,-0.33382 7.7287,12.7 10.81,16.556 10.765,13.469 23.801,24.239 39.209,32.818 11.694,6.5109 24.91,11.87 38.633,15.554 27.812,7.4662 57.892,3.4418 80.565,-10.456 1.6039,-0.98309 3.3989,-1.9293 4.9748,-2.9812 7.3843,-4.9288 11.448,-8.0769 20.43,-16.817 8.7158,-8.4811 14.531,-17.41 14.531,-17.41 9.5882,-16.06 13.23,-23.78 13.961,-41.913 0.41004,-10.177 -1.1951,-17.868 -3.1462,-24.737 -2.1124,-7.437 -4.7873,-13.972 -10.044,-23.342 -7.8046,-13.912 -14.183,-20.589 -47.413,-56.984 -66.2,-72.506 -96.153,-116.16 -116.71,-166.33 -12.567,-30.669 -19.868,-55.197 -19.218,-80.799 0.9116,-35.946 14.523,-70.121 39.019,-104.91 8.2046,-11.654 15.947,-21.68 29.595,-35.614 5.941,-6.0659 12.639,-12.993 21.175,-21.015 6.8181,-6.4075 14.967,-13.467 23.679,-21.686 43.07,-40.632 59.226,-56.933 73.92,-77.269 18.887,-26.139 32.1,-57.311 34.476,-77.907 2.4373,-21.127 -5.1526,-45.401 -20.334,-67.747 -7.0583,-10.389 -29.983,-34.286 -40.354,-43.002 -4.0249,-3.3822 -14.587,-11.657 -14.343,-11.889 0.24401,-0.23194 11.449,4.758 14.115,5.9523 7.026,3.1472 31.486,10.238 41.022,10.147 2.3711,-0.0226 5.3054,0.0248 7.5795,1.8814 1.4894,1.216 11.381,11.455 16.634,17.914 1.014,1.247 2.0622,2.4702 2.968,3.6668 0.36418,0.48107 0.81399,0.90274 1.143,1.3682 0.22464,0.31785 0.69969,0.98563 0.69969,0.98563 17.157,19.284 34.558,53.204 37.383,77.74 1.2478,10.836 2.4048,32.438 -1.0724,45.555 -4.05,15.278 -11.119,37.172 -21.695,56.818 -11.992,22.276 -21.924,36.396 -48.944,72.779 -51.058,68.751 -72.44,102.84 -81.329,131.25 -14.533,46.446 -6.8974,84.167 27.703,124.21 5.9768,6.9177 11.386,12.068 11.845,12.554 0.32263,0.34113 1.2647,0.9154 2.1211,1.9828 1.0333,1.2879 2.0858,3.2405 3.6586,5.6692 8.157,12.595 27.022,37.193 55.482,70.545 15.112,17.71 30.995,36.929 36.275,43.7 38.696,49.624 52.734,97.245 42.432,133.65 -5.5991,19.788 -18.119,38.09 -40.053,58.585 -29.679,27.732 -70.884,46.815 -110.97,53.536 -23.662,4.0601 -40.793,2.3337 -60.499,-0.60478 z"
                 fill="#99ff66"
                 id="path18" />
              <path
                 d="m 208.53,18.081 c -0.59605,-0.94856 -2.0809,-3.0569 -3.5619,-4.8867 -1.8852,-2.3291 -3.7632,-4.3375 -3.7836,-4.3479 l -3.8474,-3.2797 7.6198,0.17813 c 4.6881,0.1096 13.251,-1.6496 14.202,-0.79118 l 6.0721,5.077 2.0368,1.7383 1.9472,1.8297 2.4864,2.4804 c 0.0225,0.37866 -2.5804,1.5017 -6.1395,2.2297 -2.8756,0.58822 -2.721,0.50306 -4.5817,0.72218 -1.618,0.19053 -3.4669,0.48608 -5.8894,0.59766 l -5.4227,0.26451 z"
                 fill="#e0ff66"
                 id="path20" />
              <path
                 transform="scale(0.26458)"
                 d="m 682.17,552.3 c -7.0621,-8.9604 -14.303,-18.97 -19.883,-29.699 -9.998,-19.224 -13.77,-40.143 -12.334,-59.227 0.81995,-10.898 2.7564,-19.296 5.8474,-29.292 4.2713,-13.813 11.452,-28.31 20.846,-44.513 3.0711,-5.2969 9.2896,-15.831 17.951,-28.287 12.695,-18.258 29.981,-41.058 44.893,-60.929 37.819,-50.399 55.646,-82.806 66.615,-118.71 1.3338,-4.3654 1.9218,-7.6949 2.6244,-11.438 0.99969,-5.3259 1.8471,-11.492 2.1102,-22.696 0.35353,-15.057 -1.0412,-24.899 -3.3457,-34.482 -1.6931,-7.0409 -3.511,-13.98 -7.3448,-22.551 -2.9378,-6.5683 -7.7078,-15.096 -7.7028,-15.292 0.005,-0.1956 11.735,-0.71709 20.495,-0.99972 27.055,-0.87282 48.357,-6.4587 57.938,-10.107 l 4.8419,-3.3087 7.7111,8.5248 c 16.759,18.528 28.797,40.92 32.535,59.99 4.2392,21.627 -1.5928,46.168 -17.277,73.87 -13.807,24.386 -26.819,41.416 -58.703,72.36 -6.6953,6.4978 -14.169,13.404 -22.692,21.364 -41.135,38.415 -80.276,77.883 -100.73,99.347 -44.707,46.917 -58.17,92.734 -42.892,133.09 2.7969,7.3878 5.6237,13.419 5.6237,13.419 l 8.2743,15.855 c 0.22778,0.43646 -2.5474,-2.6683 -5.4018,-6.29 z m 50.924,-178.29 -7.3242,-0.42439 c -7.0988,-0.41132 -12.688,-3.6621 -19.895,-9.674 -3.0157,-2.5155 -5.2103,-4.3755 -5.2103,-4.3755 0,0 8.2215,8.6551 14.157,11.988 5.3145,2.9844 18.273,2.4859 18.273,2.4859 z m 44.505,-46.655 c 3.0784,-0.9005 0.40841,0.84662 -4.5579,0.59885 -8.8322,-0.44066 -19.054,-4.0072 -28.557,-10.497 -9.2836,-6.3396 -9.5183,-9.184 -6.759,-5.6822 9.2401,11.726 28.376,18.943 39.874,15.58 z m 49.553,-47.337 c 0,0 1.8633,0.14539 -7.402,-0.72956 -5.9193,-0.55897 -12.408,-0.78364 -18.696,-2.6289 -8.036,-2.3584 -15.86,-6.6931 -23.004,-10.544 -4.4768,-2.4131 -5.7326,-4.443 -5.3894,-3.2471 0.77047,2.6846 22.166,13.777 30.081,15.637 7.7074,1.812 24.41,1.5119 24.41,1.5119 z m 41.655,-62.429 c 11.237,-1.509 19.176,-3.9026 19.176,-3.9026 0,0 -3.2634,0.37984 -6.5891,1.127 -3.3257,0.74721 -16.213,2.2924 -30.624,1.6215 -17.374,-0.80892 -20.97,-1.529 -31.914,-4.4749 -20.734,-5.5814 -19.123,-7.5598 -18.078,-5.768 1.2061,2.0669 17.93,7.1649 31.205,9.9206 12.763,2.6495 24.905,3.077 36.823,1.4764 z m 12.595,-75.822 c 7.6148,-1.5115 13.14,-4.0201 17.944,-6.0891 4.4713,-1.9257 7.1433,-4.3406 9.1224,-6.7295 4.0708,-4.9135 5.3072,-4.2406 0,0 -10.797,8.6271 -34.283,13.997 -68.225,14.13 -14.235,0.0556 -24.918,-0.67374 -24.918,-0.67374 5.2061,2.256 47.325,3.0848 66.077,-0.63764 z"
                 fill="#e0ff66"
                 id="path22" />
            </g>
            <g
               id="g38">
              <path
                 d="m 210.07,19.946 c 0.004,-0.20144 4.9376,-0.13311 10.91,-0.91481 1.023,-0.13391 1.9975,-0.28283 2.9309,-0.44401 1.9789,-0.34237 3.4307,-0.67518 4.7891,-1.0967 v -1e-6 c 1.7912,-0.57152 2.6808,-1.2306 2.7501,-1.1619 0.0693,0.06873 -0.82671,0.97027 -2.5841,1.6374 -1.3298,0.51574 -2.8622,0.93574 -4.829,1.3125 -0.94042,0.18042 -1.9283,0.34095 -2.9622,0.4763 -6.0427,0.7911 -11.008,0.39266 -11.004,0.19122 z"
                 id="path26" />
              <path
                 d="m 215.63,37.602 c 0.0283,-0.19949 6.0631,0.70926 13.382,-0.13882 1.4277,-0.16543 2.7768,-0.38137 4.0513,-0.63436 2.4348,-0.48598 4.1349,-0.98762 5.6718,-1.7114 0.73315,-0.34714 1.2212,-0.64373 1.6306,-0.99983 0.61064,-0.54482 0.69539,-1.0264 0.7519,-1.0213 0.037,0.0033 0.13902,0.54192 -0.53096,1.2483 -0.3908,0.42207 -0.90465,0.80249 -1.6342,1.1998 -1.5194,0.83141 -3.3114,1.4398 -5.748,1.9648 -1.2887,0.27903 -2.6598,0.51089 -4.1085,0.67886 -7.4318,0.86165 -13.495,-0.38653 -13.466,-0.58602 z"
                 id="path28" />
              <path
                 d="m 211.87,54.555 c 0.60951,0.01743 6.037,2.2021 12.445,2.6633 0.26335,0.01895 0.52398,0.03454 0.78202,0.04686 6.0105,0.29448 10.338,-1.0444 9.846,-0.7272 -0.4355,0.28081 -4.5639,1.6506 -9.8773,1.4478 v 0 c -0.94618,-0.03722 -1.9116,-0.12273 -2.8962,-0.25772 -6.5022,-0.89146 -10.909,-3.1904 -10.299,-3.173 z"
                 id="path30" />
              <path
                 d="m 204.43,69.55 c 0.75931,0.33786 4.7552,2.8328 8.843,3.7468 0.14466,0.03267 0.28979,0.06336 0.43538,0.09215 4.4027,0.87045 7.3502,0.1982 6.3321,0.48656 -0.67397,0.1909 -3.6709,0.69985 -6.8981,0.02016 -1.0749,-0.22866 -2.1452,-0.56299 -3.2083,-0.99374 -4.2899,-1.7381 -6.4675,-3.7806 -5.5041,-3.352 z"
                 id="path32" />
              <path
                 d="m 195.19,82.49 c 0.64635,0.38 3.0302,2.6375 6.0136,3.5785 0.0313,0.01007 0.0627,0.01994 0.0941,0.02961 2.9955,0.92202 5.1516,0.2355 4.4423,0.51407 -0.5181,0.20348 -2.4742,0.66553 -4.7065,0.01047 -0.82516,-0.24679 -1.6269,-0.60718 -2.4044,-1.0663 -1.7645,-1.0418 -5.2035,-4.1082 -3.439,-3.0664 z"
                 id="path34" />
              <path
                 d="m 185.59,95.124 c 0.52474,0.34146 2.378,2.3932 4.8026,3.2764 0,10e-7 0.0131,0.0048 0.0131,0.0048 2.38,0.88419 4.1757,0.23693 3.6012,0.49353 -0.41286,0.1844 -1.989,0.60283 -3.7766,0.0048 -0.70283,-0.24081 -1.3756,-0.59104 -2.0189,-1.0343 -2.2492,-1.5498 -3.1461,-3.0866 -2.6213,-2.7451 z"
                 id="path36" />
            </g>
          </g>
          <path
             d="m 197.02,-1.7701 c 1.6326,0.00137 2.6994,31.317 2.3815,69.901 -0.31796,38.584 -1.901,69.897 -3.5336,69.896 -1.6325,-0.001 -2.6994,-31.317 -2.3815,-69.901 0.31797,-38.584 1.901,-69.897 3.5336,-69.896 z"
             id="path42" />
          <g
             transform="translate(42.856,40.512)"
             id="g53">
            <g
               id="sail"
               transform="matrix(1.5033,0.059249,-0.078854,1.3511,7.6544,-116.69)">
              <path
                 d="m 100.12,50.684 c 0.40201,-0.13897 3.9406,8.5043 8.9278,22.803 4.7519,13.624 11.623,34.968 13.908,57.34 0.0766,0.75035 0.14801,1.4992 0.21412,2.2467 1.9276,22.104 -2.4728,42.422 -6.6132,56.232 -4.3238,14.512 -9.1163,22.944 -9.4816,22.722 -0.36532,-0.22142 3.5194,-8.5704 7.376,-23.311 v -1e-5 c 3.5769,-13.785 7.5678,-33.886 5.6496,-55.372 -0.0646,-0.73389 -0.13409,-1.4693 -0.20848,-2.2065 -2.2018,-21.817 -8.7245,-43.34 -12.921,-56.969 -4.4415,-14.426 -7.2534,-23.346 -6.8514,-23.485 z"
                 id="path44" />
              <path
                 d="m 100.12,50.684 c 0.15059,-0.3978 10.762,2.6883 26.581,10.895 15.83,8.213 36.677,21.888 53.776,43.103 3.241,4.0212 6.202,8.1342 8.8896,12.323 v 1e-5 c 12.893,20.136 17.775,40.592 19.342,55.47 1.5591,14.804 0.21108,23.806 -0.17316,23.785 -0.38424,-0.021 0.24179,-9.0189 -1.8267,-23.537 -2.0794,-14.595 -7.2268,-34.503 -19.902,-54.069 -2.6426,-4.0884 -5.5456,-8.1081 -8.7178,-12.047 -16.614,-20.631 -37.039,-34.49 -52.426,-43.1 -15.387,-8.6096 -25.693,-12.425 -25.542,-12.823 z"
                 id="path46" />
              <path
                 d="m 107.07,212.03 c -0.19774,-0.3766 5.0892,-3.6787 13.998,-8.4482 8.592,-4.5997 21.79,-11.151 36.242,-15.518 3.2616,-0.98544 6.4761,-1.8296 9.654,-2.5348 12.645,-2.8616 22.319,-3.2121 30.781,0.0577 v 1e-5 c 9.1862,3.5931 11.149,10.49 10.785,10.675 -0.364,0.185 -3.0552,-5.9392 -11.5,-8.687 -8.1324,-2.6952 -16.859,-1.922 -29.396,0.9125 -3.0997,0.71476 -6.238,1.5527 -9.435,2.5176 -14.003,4.2264 -27.485,10.492 -36.152,14.531 -9.1178,4.2487 -14.778,6.8702 -14.976,6.4936 z"
                 id="path48" />
            </g>
            <path
               d="m 154.73,173.7 c 0.003,-0.13954 0.98888,-1.7195 2.1897,-3.5109 3.1134,-4.6447 6.206,-12.338 10.068,-20.96 2.1066,-4.7028 3.6308,-9.5703 5.3028,-14.531 1.5136,-4.4906 3.2202,-9.0808 4.2753,-13.267 8.0495,-31.936 7.5307,-63.307 -0.77644,-98.161 -3.3311,-13.976 -11.269,-40.281 -17.781,-57.338 -1.3406,-3.5119 -2.3356,-6.4828 -2.2112,-6.6021 0.46265,-0.44351 11.41,4.6632 22.974,10.663 9.2786,4.8138 18.894,10.243 24.258,13.537 36.625,22.494 65.041,50.929 82.128,82.184 13.76,25.169 20.91,55.276 20.172,84.94 l -0.17821,7.1562 -1.6357,-2.4032 c -3.2665,-4.7996 -10.631,-9.4816 -18.62,-11.838 -5.6761,-1.6743 -20.168,-2.3563 -29.758,-1.4003 -27.155,2.7069 -57.355,11.779 -90.551,27.203 -5.4245,2.5204 -9.8599,4.4683 -9.8564,4.3288 z"
               fill="#ffffff"
               stroke="#ffffff"
               stroke-width="0.57485"
               id="path51" />
          </g>
          <g
             transform="translate(1.4995,0.93443)"
             id="g148">
            <g
               transform="translate(143.3,0.817)"
               id="g108">
              <path
                 d="m 59.806,-9.5672 c -2.3805,-2.9122 -6.8331,-10.426 -6.5199,-10.418 0.11827,0.0032 2.3691,1.4148 3.6941,2.0325 5.7399,2.676 12.675,4.2827 19.337,4.1501 l 3.9571,-0.18297 0.34188,2.0041 c 0.15025,0.88074 0.56585,2.3671 1.551,3.0833 l 1.6168,1.1753 -1.3,0.20006 c -2.5993,0.4 -11.507,0.75043 -15.995,0.62926 l -4.5985,-0.12415 z"
                 fill="#e0ff66"
                 stroke-opacity="0"
                 id="path55" />
              <g
                 transform="matrix(1.2301,0,0,1.1708,-55.392,-8.3366)"
                 id="g106">
                <g
                   id="snake-head"
                   transform="matrix(0.72782,0,0,0.68785,54.564,-91.281)">
                  <g
                     fill="none"
                     stroke="#000000"
                     id="g63">
                    <path
                       d="M 34.452,126.63 C 14.695,102.192 19.208,64.93 63.157,62.357 c 24.724,1.2531 30.874,11.488 37.235,23.87 -5.5438,24.591 -38.455,27.732 -48.387,17.798 5.7239,15.309 37.744,17.131 37.864,-1.5008 7.9754,29.003 -26.772,27.904 -42.981,17.094 7.4867,13.593 9.4095,14.901 9.4095,14.901 0.23859,0.0682 -10.895,-0.85658 -21.845,-7.89 z"
                       stroke-width="0.26458px"
                       id="path57" />
                    <path
                       d="m 56.296,134.52 c 8.827,0.87473 16.876,0.50406 24.457,-0.61392 -3.1483,-2.1895 -3.7786,-5.0085 -3.9688,-7.9375"
                       stroke-width="0.26458px"
                       id="path59" />
                    <path
                       d="m 78.761,84.613 c 0,0 0.56012,1.1157 0,0 -3.6171,-7.205 -13.2,-12.478 -18.122,-5.879 -7.8811,13.328 15.106,22.503 18.122,5.879 z"
                       stroke-width="0.63029px"
                       id="path61" />
                  </g>
                  <g
                     stroke="#000000"
                     id="g79">
                    <g
                       stroke-width="0.26458px"
                       id="g75">
                      <path
                         d="m 57.719,92.725 c 1.2573,-0.38423 3.352,-1.6163 3.6704,-2.2744 l 1.1225,0.8419 c -1.3986,0.86274 -3.1877,1.5203 -4.793,1.4325 z"
                         id="path65" />
                      <path
                         d="m 57.304,95.411 c 2.0014,0.08142 5.3425,-2.4016 5.4812,-3.6717 l 2.4703,0.38715 c -0.65683,1.4809 -6.0792,3.5948 -7.9514,3.2846 z"
                         id="path67" />
                      <path
                         d="m 63.155,96.88 c 1.5589,-0.48525 1.8802,-3.1189 1.7839,-3.9522 l 1.1805,0.25061 c -0.04163,0.74826 -1.2321,3.3735 -2.9645,3.7016 z"
                         id="path69" />
                      <path
                         d="m 71.877,96.607 c -1.1824,-0.61044 -1.5231,-1.9555 -1.2462,-2.9184 l -1.2865,0.12989 c 0.04101,0.35234 0.70018,2.2727 2.5327,2.7885 z"
                         id="path71" />
                      <path
                         d="m 72.751,95.915 c -0.48789,-0.74273 -0.8782,-1.6413 -0.60127,-2.6042 l -1.1046,0.27872 c 0.04101,0.35234 0.33638,1.1482 1.7058,2.3254 z"
                         id="path73" />
                    </g>
                    <ellipse
                       transform="matrix(0.10282,-0.9947,0.95978,0.28076,0,0)"
                       cx="-63.891998"
                       cy="75.957001"
                       rx="8.0923004"
                       ry="7.4965"
                       stroke-width="0.33038"
                       id="ellipse77" />
                  </g>
                  <ellipse
                     transform="matrix(0.86371,0.50398,-0.56426,0.8256,0,0)"
                     cx="99.158997"
                     cy="39.716999"
                     rx="2.9563999"
                     ry="3.4301"
                     fill="#ffffff"
                     stroke="#000000"
                     stroke-width="0.41136"
                     id="ellipse81" />
                  <g
                     stroke="#000000"
                     id="g89">
                    <path
                       d="m 89.678,112.54 c -0.91355,-0.21638 -1.66,-0.44573 -2.5316,-0.77787 l -0.61338,-0.23374 0.38463,-0.40408 c 1.2309,-1.2931 2.1878,-3.0278 2.6859,-4.8689 0.26446,-0.9664 0.23748,-1.8759 0.43337,-2.7725 0.04471,0.0447 0.5224,2.637 0.62803,3.3678 0.23587,1.632 0.32172,3.8849 0.20254,5.3156 -0.05678,0.68162 0.01517,0.65901 -1.1895,0.37368 z"
                       stroke-width="0.066146"
                       id="path83" />
                    <path
                       d="m 70.462,115.9 c -5.0494,-0.5925 -9.5754,-2.3706 -13.155,-5.0718 -1.0601,-0.79991 -2.8127,-2.4827 -3.5307,-3.5057 -0.58355,-0.83135 -1.7688,-3.1313 -1.7713,-3.3013 -5.29e-4,-0.0448 0.84149,0.78928 1.0638,0.96263 2.199,1.7145 5.8849,2.978 9.5474,4.0121 5.1621,0.1419 9.9877,0.30949 14.219,-0.50906 0.56594,-0.12933 1.2518,-0.42346 1.3826,-0.45151 0.21397,-0.0459 0.16305,0.18335 0.52901,0.80038 1.0388,1.7514 2.4882,3.1514 4.3452,4.1968 l 0.55061,0.30999 -0.59088,0.63541 c -3.8158,2.0952 -8.4651,2.6045 -12.589,1.922 z"
                       stroke-width="0.093544"
                       id="path85" />
                    <path
                       d="m 85.423,110.81 c -1.0529,-0.5625 -1.8465,-1.1536 -2.7278,-2.0319 -0.72179,-0.71929 -1.5856,-1.7885 -1.4982,-1.8543 0.02313,-0.0174 0.42834,-0.17287 0.90046,-0.34548 2.1512,-0.78649 4.9222,-2.1505 6.8137,-3.3541 0.49821,-0.31702 0.95537,-0.60594 1.0159,-0.64203 0.14244,-0.0849 0.10932,0.89933 6.78e-4,2.0869 -0.17069,2.7496 -0.78952,4.1058 -3.279,6.8441 -0.03946,0.0133 -0.80695,-0.47938 -1.2258,-0.70313 z"
                       stroke-width="0.097781"
                       id="path87" />
                  </g>
                  <path
                     style="fill:#008000;fill-opacity:1"
                     d="m 89.951,112.78 c -0.69962,-0.16631 -2.5962,-0.99273 -2.9718,-1.1355 l -0.32978,-0.12538 0.45113,-0.49934 c 1.3844,-1.5324 2.4164,-3.6859 2.7674,-5.7749 0.09274,-0.55192 0.21035,-0.92784 0.26136,-0.83536 0.3752,0.6802 1.2542,7.1953 0.57571,8.4258 -0.37367,0.67768 -0.09907,0.10042 -0.75405,-0.0553 z"
                     fill="#00ff00"
                     stroke="#000000"
                     stroke-width="0.13229"
                     id="path91" />
                  <path
                     style="fill:#008000;fill-opacity:1"
                     d="m 54.133,134.05 c -6.2286,-1.0722 -12.798,-3.5006 -18.187,-6.7233 l -1.4032,-0.83909 -1.0413,-1.3871 c -2.1427,-2.8542 -3.6564,-5.3141 -5.2284,-8.4965 -2.5394,-5.1409 -4.0467,-10.211 -4.6444,-15.622 -0.16341,-1.4793 -0.16571,-6.4884 -0.0036,-7.8109 0.80059,-6.531 2.9283,-11.757 6.7226,-16.511 1.0272,-1.2869 3.3282,-3.5932 4.5951,-4.6056 6.6062,-5.279 15.042,-8.332 25.793,-9.3344 1.9728,-0.18394 3.1007,-0.18357 5.2449,0.0016 6.5478,0.56583 11.891,1.6733 16.363,3.6658 0.58882,0.26236 1.1721,0.66946 1.1721,0.66946 0,0 -0.21719,0.13922 -0.44247,0.27125 -0.53452,0.31325 -1.4992,1.2564 -1.8395,1.8866 -0.23639,0.43782 -0.26309,0.56617 -0.21899,1.0526 0.06088,0.67146 0.53825,1.7251 1.1282,2.49 0.58376,0.75696 1.9141,2.009 2.9961,2.8198 1.6952,1.2769 1.851,1.6001 2.3609,1.4968 1.2395,-0.82983 3.3874,-1.9276 3.9459,-3.3023 0.09829,-0.29114 0.16641,-0.8147 0.16641,-0.8147 0.08492,0.05342 1.5174,1.5798 2.478,2.8438 1.7727,2.3325 3.1301,4.7751 5.1874,8.6702 l 0.91407,1.7306 -0.11029,0.53662 c -0.31941,1.5541 -1.3057,4.1902 -2.2776,6.0878 -1.3029,2.5437 -2.6492,4.6357 -4.767,6.7641 -5.3535,5.5218 -12.148,8.1131 -19.953,9.2128 -1.8164,0.24752 -6.0219,0.3449 -7.8265,0.18122 -5.2581,-0.47691 -9.8032,-2.125 -12.503,-4.5336 -0.90403,-0.80664 -1.0569,-0.69689 -0.58242,0.41813 0.87125,2.0474 2.6179,4.2598 4.6694,5.9148 3.2561,2.6266 7.4607,4.3637 12.452,5.1447 1.7373,0.2718 5.8559,0.29393 7.4847,0.0402 2.6457,-0.41215 5.0745,-1.1916 6.7298,-2.1599 l 0.51984,-0.30406 0.56127,0.22048 c 1.155,0.45372 3.8762,1.1727 5.2619,1.3903 0.49586,0.0779 0.50079,0.15245 0.08184,1.2373 -1.5845,4.1027 -4.5226,6.8525 -9.1565,8.5695 -1.0147,0.37598 -2.8095,0.86107 -3.6708,0.99212 -0.3087,0.047 -0.95929,0.14746 -1.4458,0.2233 -2.4303,0.37889 -5.9928,0.4181 -8.974,0.0988 -6.6663,-0.71406 -13.479,-2.9466 -18.637,-6.1072 -0.96047,-0.58853 -1.298,-0.71229 -1.298,-0.47592 0,0.1071 1.4699,2.7444 3.0188,5.4164 2.2276,3.8428 4.2369,6.9702 5.4966,8.5554 0.30835,0.38803 1.07,0.89604 1.0308,0.89228 -0.03921,-0.004 -1.3107,-0.32061 -2.1638,-0.46746 z m 9.5755,-37.172 c 0.41197,-0.17567 0.92856,-0.60456 1.3823,-1.1476 0.38954,-0.46622 1.1005,-1.8739 1.1005,-2.1459 0,-0.1245 0.04655,-0.1363 0.25725,-0.06522 0.39923,0.13468 1.9833,0.42207 2.4223,0.38361 0.4449,-0.03899 0.27035,-0.02164 0.47334,0.46087 0.35783,0.85056 1.0267,1.7207 1.8152,2.1249 0.53082,0.27213 0.71286,0.29382 0.78528,0.1051 0.03131,-0.0816 -0.30461,-0.30199 -0.51853,-0.44356 -0.62105,-0.41099 -1.2712,-1.8859 -0.97882,-2.3623 0.10288,-0.16762 0.72693,-0.11615 0.82252,0.42731 0.05228,0.29723 0.38078,0.85865 0.73504,1.229 0.51928,0.54292 0.66726,0.65066 0.76359,0.55597 0.09676,-0.09512 0.07048,-0.21737 -0.1382,-0.64286 -0.28648,-0.58412 -0.59306,-1.4591 -0.52318,-1.8152 0.03693,-0.18823 0.32572,-0.097 0.86612,-0.31687 2.6798,-1.0903 4.6751,-3.4336 5.6713,-6.6601 l 0.30873,-1.2027 0.96986,0.71549 c 0.79886,0.58934 2.9156,1.5848 2.9156,1.5848 0,0 -2.597,-1.9912 -3.2627,-2.5016 -0.60494,-0.46762 -0.64598,-0.63847 -1.0743,-1.3956 -2.1919,-3.875 -5.8902,-7.089 -9.6761,-8.0845 -1.0697,-0.28129 -2.9579,-0.35801 -3.8973,-0.15836 -1.495,0.31772 -2.5554,0.9071 -3.73,2.0732 -0.74393,0.73853 -0.90673,0.9625 -1.3259,1.8241 -0.26281,0.54022 -0.56707,1.25 -0.67614,1.5773 -1.0867,3.2611 -0.51905,6.4368 1.6122,9.0182 0.31353,0.37977 0.44487,0.44694 0.44487,0.44694 0.17224,0.52332 -1.4302,1.2474 -1.8508,1.5008 0,0 -1.1624,0.51941 -1.7439,0.77928 -0.44005,0.11702 1.5924,0.132 2.8869,-0.3172 0.30708,-0.10656 0.87151,-0.33544 1.2424,-0.53177 0.38232,-0.20236 0.71684,-0.49799 0.79702,-0.31193 0.18442,0.42799 -0.21845,1.2737 -1.3034,2.1027 -1.4002,0.98239 -2.3445,1.2783 -3.9775,1.7281 0,0 0.81981,-0.0026 1.3889,-0.0026 1.8438,-2.65e-4 3.4277,-1.0315 4.7304,-2.2734 l 0.60662,-0.57837 0.46337,0.22363 c 0.53728,0.2593 0.3574,0.11202 0.24883,1.4459 -0.07842,0.96352 -0.53103,1.8433 -1.0535,2.2954 -0.57704,0.49933 -0.66778,0.64824 0.01987,0.35501 z"
                     fill="#99ff66"
                     stroke="#000000"
                     stroke-width="0.13229"
                     id="path93" />
                  <path
                     d="m 78.079,83.867 c -0.11411,-0.77281 0.41122,0.29819 1.5201,1.2446 0.43854,0.37428 0.91698,0.71509 1.3927,1.0366 0.93272,0.61965 1.653,1.0652 1.9851,1.4128 0.36598,0.38296 -0.34482,0.3163 -1.967,-0.56916 -0.13082,-0.07141 -0.26166,-0.1459 -0.39177,-0.22349 -1.5923,-0.9329 -2.4269,-2.141 -2.5392,-2.9014 z"
                     id="path95" />
                  <path
                     style="fill:#008000;fill-opacity:1"
                     d="m 34.592,126.44 c 0.07732,-0.1143 1.2048,0.53893 3.0895,1.437 2.1928,1.0449 4.2425,1.8674 7.5763,3.1044 0.03042,0.0113 0.42387,0.15709 0.45429,0.16838 2.2883,0.84491 4.1819,1.4784 5.9723,2.0254 2.784,0.84719 4.6258,1.1709 4.612,1.3368 -0.0138,0.16592 -1.9749,0.12752 -4.8242,-0.55523 -1.8031,-0.43041 -3.8302,-1.038 -6.1045,-1.8691 -0.15164,-0.0552 -0.30413,-0.11114 -0.45726,-0.1677 -3.197,-1.1808 -5.5731,-2.2528 -7.56,-3.4194 -1.8347,-1.0773 -2.8357,-1.9462 -2.7583,-2.0605 z"
                     fill="#99ff66"
                     id="path97" />
                  <path
                     d="m 56.296,134.52 c 0.02368,-0.20008 5.496,0.36713 12.239,0.19247 6.7435,-0.17466 12.185,-1.0051 12.218,-0.80639 0.03226,0.194 -5.3711,1.3592 -12.199,1.5359 -6.8273,0.17669 -12.282,-0.71918 -12.258,-0.92199 z"
                     id="path99" />
                </g>
                <path
                   d="m 119.23,-29.583 c 10e-4,-0.23588 0.57554,-0.22038 1.2816,0.03459 0.70604,0.25498 1.2779,0.65335 1.2765,0.88923 -0.001,0.23588 -0.57555,0.22038 -1.2816,-0.03459 -0.70603,-0.25498 -1.2779,-0.65335 -1.2765,-0.88923 z"
                   id="path102" />
                <path
                   d="m 122.28,-32.344 c 0.21012,0.07435 0.52196,0.58448 0.69606,1.1387 0.1741,0.55422 0.14486,0.94363 -0.0653,0.86928 -0.21013,-0.07435 -0.52197,-0.58448 -0.69607,-1.1387 -0.1741,-0.55422 -0.14486,-0.94363 0.0653,-0.86928 z"
                   id="path104" />
              </g>
            </g>
            <g
               id="g116">
              <path
                 d="m 189.79,-9.6106 c -0.13709,0.15139 -6.9184,-3.7982 -12.006,-14.799 l -1e-5,-3e-6 c -1.7704,-3.8314 -3.0839,-8.8557 -2.4187,-14.255 0.52449,-4.1793 2.2284,-8.4541 5.0915,-12.271 2.6889,-3.5844 6.261,-6.6869 10.477,-9.1281 7.4874,-4.343 16.968,-6.6009 26.485,-5.3202 0.78901,0.10617 1.5726,0.23586 2.3498,0.38895 5.27,1.0398 10.16,3.1965 14.284,6.1903 4.977,3.7312 8.738,8.5679 11.383,13.57 v 5e-6 c -1.8233,5.4188 -5.0008,9.9254 -8.8836,13.045 -4.0021,3.1052 -8.5643,4.7503 -12.639,5.4894 -4.9624,0.90272 -9.3899,0.60114 -12.869,-0.0699 -6.8192,-1.3039 -9.7126,-3.9821 -9.6507,-4.0699 0.0857,-0.12176 3.2624,2.2359 9.7919,3.2592 3.4211,0.5303 7.7306,0.70096 12.505,-0.27425 3.9099,-0.80083 8.256,-2.4529 11.987,-5.4442 3.6372,-2.8092 6.601,-6.9043 8.312,-11.814 v -6e-6 c -2.5731,-4.6045 -6.1988,-9.0283 -10.929,-12.319 -3.9317,-2.8328 -8.6017,-4.8767 -13.626,-5.8664 -0.74249,-0.14652 -1.4915,-0.27071 -2.2461,-0.37249 -9.1013,-1.2277 -18.217,0.91121 -25.434,5.0331 -4.0561,2.321 -7.4944,5.2464 -10.078,8.6258 -2.743,3.5878 -4.4143,7.6003 -4.9616,11.525 -0.71808,5.0611 0.4462,9.9 2.0549,13.636 0,1e-6 0,2e-6 1e-5,3e-6 4.6369,10.776 11.157,15.088 11.02,15.24 z"
                 id="path110" />
              <path
                 d="m 235.64,-31.053 c 0.11229,-0.02941 1.5982,2.9443 0.9803,7.9248 v 1e-6 c -0.22099,1.7733 -0.8818,3.8409 -2.3178,5.6032 -1.1838,1.4427 -2.8058,2.6017 -4.7136,3.4161 -1.9333,0.82686 -4.0448,1.3003 -6.2777,1.5357 -0.17876,0.01891 -0.35801,0.0364 -0.53774,0.0525 -5.0529,0.45244 -9.9098,-0.26218 -13.805,-1.1315 -7.487,-1.6643 -12.028,-4.2767 -11.959,-4.4101 0.0689,-0.13334 4.6588,2.2033 12.107,3.7165 3.8677,0.78243 8.6619,1.4436 13.583,0.99892 0.17538,-0.01585 0.35024,-0.03302 0.52459,-0.05154 2.1744,-0.23168 4.2064,-0.67339 6.0523,-1.4485 1.8134,-0.76297 3.3496,-1.8222 4.4647,-3.1451 1.3585,-1.5994 2.0277,-3.5388 2.2925,-5.2189 v -1e-6 c 0.75132,-4.7518 -0.50554,-7.8128 -0.39325,-7.8422 z"
                 id="path112" />
              <path
                 d="m 184.3,-14.577 c 0.19214,-0.15078 2.7845,2.5522 6.4902,5.6418 v 5e-7 c 0.18833,0.15667 0.37875,0.31465 0.57132,0.4739 3.9724,3.2852 7.3664,5.7371 7.2258,5.9518 -0.14064,0.21472 -3.8118,-1.9208 -7.8186,-5.2351 -0.1942,-0.16063 -0.38567,-0.32081 -0.57428,-0.48026 v -5e-7 c -3.694,-3.1163 -6.0866,-6.2014 -5.8945,-6.3522 z"
                 id="path114" />
            </g>
            <g
               transform="matrix(0.89527,0,0,0.80535,237.02,-93.696)"
               id="g144">
              <g
                 transform="translate(-14.217,6.0411)"
                 id="g142">
                <path
                   d="m 7.7624,44.084 c -0.43806,-0.40677 0.20454,-0.21489 1.425,0.40732 1.2568,0.64072 2.5461,1.4476 2.9996,1.887 0.44214,0.42841 -0.22152,0.1949 -1.4173,-0.42817 -1.2341,-0.64305 -2.5558,-1.447 -3.0073,-1.8662 z"
                   id="path118" />
                <path
                   d="m 10.092,32.391 c 0.27921,0.7748 0.8744,1.3478 -0.88802,2.5421 l 1.348,0.60605 c 0.69218,-0.91171 0.66969,-2.38 -0.46002,-3.1482 z"
                   stroke="#000000"
                   stroke-width="0.24838px"
                   id="path120" />
                <path
                   transform="matrix(0.29553,0,0,0.32853,-264.75,116.34)"
                   d="m 929.38,-216.98 a 16.562,13.074 30.116 0 0 0.0352,-0.0137 16.562,13.074 30.116 0 0 0.28515,-0.11719 16.562,13.074 30.116 0 0 0.2793,-0.1211 16.562,13.074 30.116 0 0 0.27734,-0.1289 16.562,13.074 30.116 0 0 0.26953,-0.13281 16.562,13.074 30.116 0 0 0.26758,-0.14063 16.562,13.074 30.116 0 0 0.26172,-0.14648 16.562,13.074 30.116 0 0 0.25781,-0.15039 16.562,13.074 30.116 0 0 0.25196,-0.15821 16.562,13.074 30.116 0 0 0.24609,-0.16211 16.562,13.074 30.116 0 0 0.24219,-0.16992 16.562,13.074 30.116 0 0 0.23633,-0.17383 16.562,13.074 30.116 0 0 0.23046,-0.17968 16.562,13.074 30.116 0 0 0.22461,-0.1836 16.562,13.074 30.116 0 0 0.22071,-0.1914 16.562,13.074 30.116 0 0 0.21289,-0.19532 16.562,13.074 30.116 0 0 0.20898,-0.19922 16.562,13.074 30.116 0 0 0.0312,-0.0312 16.562,13.074 30.116 0 0 0.20117,-0.20703 16.562,13.074 30.116 0 0 0.19532,-0.21093 16.562,13.074 30.116 0 0 0.1875,-0.21485 16.562,13.074 30.116 0 0 0.18359,-0.2207 16.562,13.074 30.116 0 0 0.17578,-0.22461 16.562,13.074 30.116 0 0 0.16992,-0.23047 16.562,13.074 30.116 0 0 0.16211,-0.23242 16.562,13.074 30.116 0 0 0.15625,-0.23828 16.562,13.074 30.116 0 0 0.15039,-0.24219 16.562,13.074 30.116 0 0 0.14258,-0.24609 16.562,13.074 30.116 0 0 0.13672,-0.25 16.562,13.074 30.116 0 0 0.12891,-0.25391 16.562,13.074 30.116 0 0 0.12304,-0.25781 16.562,13.074 30.116 0 0 0.11524,-0.25977 16.562,13.074 30.116 0 0 0.10742,-0.26562 16.562,13.074 30.116 0 0 0.10156,-0.26758 16.562,13.074 30.116 0 0 0.0937,-0.26953 16.562,13.074 30.116 0 0 0.0879,-0.27344 16.562,13.074 30.116 0 0 0.0801,-0.27734 16.562,13.074 30.116 0 0 0.0723,-0.2793 16.562,13.074 30.116 0 0 0.0644,-0.2832 16.562,13.074 30.116 0 0 0.0566,-0.28321 16.562,13.074 30.116 0 0 0.0508,-0.28711 16.562,13.074 30.116 0 0 0.043,-0.28906 16.562,13.074 30.116 0 0 0.0352,-0.29101 16.562,13.074 30.116 0 0 0.0293,-0.29297 16.562,13.074 30.116 0 0 0.0195,-0.29492 16.562,13.074 30.116 0 0 0.0137,-0.29688 16.562,13.074 30.116 0 0 0.006,-0.29883 16.562,13.074 30.116 0 0 -0.002,-0.29883 16.562,13.074 30.116 0 0 -0.01,-0.30078 16.562,13.074 30.116 0 0 -0.0156,-0.30078 16.562,13.074 30.116 0 0 -0.0254,-0.30273 16.562,13.074 30.116 0 0 -0.0312,-0.30469 16.562,13.074 30.116 0 0 -0.0391,-0.30469 16.562,13.074 30.116 0 0 -0.0469,-0.30469 16.562,13.074 30.116 0 0 -0.0527,-0.30468 16.562,13.074 30.116 0 0 -0.0625,-0.30469 16.562,13.074 30.116 0 0 -0.0684,-0.30664 16.562,13.074 30.116 0 0 -0.0762,-0.30469 16.562,13.074 30.116 0 0 -0.082,-0.30469 16.562,13.074 30.116 0 0 -0.0899,-0.30664 16.562,13.074 30.116 0 0 -0.0976,-0.30273 16.562,13.074 30.116 0 0 -0.10547,-0.30469 16.562,13.074 30.116 0 0 -0.11133,-0.30273 16.562,13.074 30.116 0 0 -0.11914,-0.30274 16.562,13.074 30.116 0 0 -0.125,-0.30078 16.562,13.074 30.116 0 0 -0.13281,-0.30078 16.562,13.074 30.116 0 0 -0.14063,-0.29688 16.562,13.074 30.116 0 0 -0.14648,-0.29687 16.562,13.074 30.116 0 0 -0.15235,-0.29687 16.562,13.074 30.116 0 0 -0.16015,-0.29297 16.562,13.074 30.116 0 0 -0.16602,-0.29102 16.562,13.074 30.116 0 0 -0.17187,-0.29101 16.562,13.074 30.116 0 0 -0.17969,-0.28711 16.562,13.074 30.116 0 0 -0.18555,-0.28516 16.562,13.074 30.116 0 0 -0.1914,-0.2832 16.562,13.074 30.116 0 0 -0.19727,-0.2793 16.562,13.074 30.116 0 0 -0.20508,-0.27734 16.562,13.074 30.116 0 0 -0.20898,-0.27539 16.562,13.074 30.116 0 0 -0.2168,-0.27149 16.562,13.074 30.116 0 0 -0.2207,-0.26758 16.562,13.074 30.116 0 0 -0.22656,-0.26562 16.562,13.074 30.116 0 0 -0.23438,-0.26172 16.562,13.074 30.116 0 0 -0.23828,-0.25781 16.562,13.074 30.116 0 0 -0.24219,-0.25586 16.562,13.074 30.116 0 0 -0.24804,-0.25 16.562,13.074 30.116 0 0 -0.25391,-0.24805 16.562,13.074 30.116 0 0 -0.25977,-0.24219 16.562,13.074 30.116 0 0 -0.26367,-0.24023 16.562,13.074 30.116 0 0 -0.26758,-0.23438 16.562,13.074 30.116 0 0 -0.27343,-0.23047 16.562,13.074 30.116 0 0 -0.043,-0.0351 16.562,13.074 30.116 0 0 -0.27735,-0.22656 16.562,13.074 30.116 0 0 -0.28125,-0.22071 16.562,13.074 30.116 0 0 -0.28711,-0.21679 16.562,13.074 30.116 0 0 -0.29101,-0.21094 16.562,13.074 30.116 0 0 -0.29492,-0.20703 16.562,13.074 30.116 0 0 -0.29688,-0.20118 16.562,13.074 30.116 0 0 -0.30273,-0.19726 16.562,13.074 30.116 0 0 -0.30469,-0.19141 16.562,13.074 30.116 0 0 -0.30859,-0.1875 16.562,13.074 30.116 0 0 -0.3125,-0.17968 16.562,13.074 30.116 0 0 -0.31446,-0.17579 16.562,13.074 30.116 0 0 -0.3164,-0.16992 16.562,13.074 30.116 0 0 -0.32227,-0.16601 16.562,13.074 30.116 0 0 -0.32227,-0.15821 16.562,13.074 30.116 0 0 -0.32617,-0.15234 16.562,13.074 30.116 0 0 -0.32617,-0.14844 16.562,13.074 30.116 0 0 -0.33008,-0.14258 16.562,13.074 30.116 0 0 -0.33203,-0.13476 16.562,13.074 30.116 0 0 -0.33398,-0.12891 16.562,13.074 30.116 0 0 -0.33594,-0.125 16.562,13.074 30.116 0 0 -0.33594,-0.11719 16.562,13.074 30.116 0 0 -0.33789,-0.11132 16.562,13.074 30.116 0 0 -0.33984,-0.10547 16.562,13.074 30.116 0 0 -0.33985,-0.0977 16.562,13.074 30.116 0 0 -0.34179,-0.0937 16.562,13.074 30.116 0 0 -0.3418,-0.0859 16.562,13.074 30.116 0 0 -0.3418,-0.0801 16.562,13.074 30.116 0 0 -0.34375,-0.0723 16.562,13.074 30.116 0 0 -0.34179,-0.0684 16.562,13.074 30.116 0 0 -0.34375,-0.0606 16.562,13.074 30.116 0 0 -0.3418,-0.0527 16.562,13.074 30.116 0 0 -0.34375,-0.0469 16.562,13.074 30.116 0 0 -0.3418,-0.041 16.562,13.074 30.116 0 0 -0.34179,-0.0352 16.562,13.074 30.116 0 0 -0.33985,-0.0273 16.562,13.074 30.116 0 0 -0.33984,-0.0215 16.562,13.074 30.116 0 0 -0.33984,-0.0137 16.562,13.074 30.116 0 0 -0.3379,-0.008 16.562,13.074 30.116 0 0 -0.33593,0 16.562,13.074 30.116 0 0 -0.33399,0.006 16.562,13.074 30.116 0 0 -0.33203,0.0117 16.562,13.074 30.116 0 0 -0.33203,0.0195 16.562,13.074 30.116 0 0 -0.32812,0.0254 16.562,13.074 30.116 0 0 -0.32813,0.0312 16.562,13.074 30.116 0 0 -0.32422,0.0391 16.562,13.074 30.116 0 0 -0.32031,0.0449 16.562,13.074 30.116 0 0 -0.32031,0.0527 16.562,13.074 30.116 0 0 -0.31641,0.0586 16.562,13.074 30.116 0 0 -0.3125,0.0645 16.562,13.074 30.116 0 0 -0.31055,0.0723 16.562,13.074 30.116 0 0 -0.30664,0.0781 16.562,13.074 30.116 0 0 -0.30469,0.084 16.562,13.074 30.116 0 0 -0.29882,0.0918 16.562,13.074 30.116 0 0 -0.29688,0.0957 16.562,13.074 30.116 0 0 -0.29297,0.10352 16.562,13.074 30.116 0 0 -0.28711,0.10937 16.562,13.074 30.116 0 0 -0.28515,0.11719 16.562,13.074 30.116 0 0 -0.28125,0.12109 16.562,13.074 30.116 0 0 -0.27539,0.12891 16.562,13.074 30.116 0 0 -0.27149,0.13281 16.562,13.074 30.116 0 0 -0.26562,0.14063 16.562,13.074 30.116 0 0 -0.26172,0.14648 16.562,13.074 30.116 0 0 -0.25781,0.15039 16.562,13.074 30.116 0 0 -0.0918,0.0586 c -0.798,0.97444 -1.5708,2.003 -2.2129,3.2734 -0.13001,4.5539 1.4995,8.2351 5.4688,11.883 3.4287,3.1509 8.734,6.3062 16.025,9.9512 z"
                   fill="#ffffff"
                   stroke="#000000"
                   stroke-width="1.6046px"
                   id="path122" />
                <path
                   transform="matrix(0.29553,0,0,0.32853,-264.75,116.34)"
                   d="m 921.34,-247.67 c -4.2106,0.15435 -8.2086,1.884 -11.24,5.5859 a 16.562,13.074 30.116 0 1 0.0918,-0.0586 16.562,13.074 30.116 0 1 0.25781,-0.15039 16.562,13.074 30.116 0 1 0.26172,-0.14648 16.562,13.074 30.116 0 1 0.26562,-0.14063 16.562,13.074 30.116 0 1 0.27149,-0.13281 16.562,13.074 30.116 0 1 0.27539,-0.12891 16.562,13.074 30.116 0 1 0.28125,-0.12109 16.562,13.074 30.116 0 1 0.28515,-0.11719 16.562,13.074 30.116 0 1 0.28711,-0.10937 16.562,13.074 30.116 0 1 0.29297,-0.10352 16.562,13.074 30.116 0 1 0.29688,-0.0957 16.562,13.074 30.116 0 1 0.29882,-0.0918 16.562,13.074 30.116 0 1 0.30469,-0.084 16.562,13.074 30.116 0 1 0.30664,-0.0781 16.562,13.074 30.116 0 1 0.31055,-0.0723 16.562,13.074 30.116 0 1 0.3125,-0.0645 16.562,13.074 30.116 0 1 0.31641,-0.0586 16.562,13.074 30.116 0 1 0.32031,-0.0527 16.562,13.074 30.116 0 1 0.32031,-0.0449 16.562,13.074 30.116 0 1 0.32422,-0.0391 16.562,13.074 30.116 0 1 0.32813,-0.0312 16.562,13.074 30.116 0 1 0.32812,-0.0254 16.562,13.074 30.116 0 1 0.33203,-0.0195 16.562,13.074 30.116 0 1 0.33203,-0.0117 16.562,13.074 30.116 0 1 0.33399,-0.006 16.562,13.074 30.116 0 1 0.33593,0 16.562,13.074 30.116 0 1 0.3379,0.008 16.562,13.074 30.116 0 1 0.33984,0.0137 16.562,13.074 30.116 0 1 0.33984,0.0215 16.562,13.074 30.116 0 1 0.33985,0.0273 16.562,13.074 30.116 0 1 0.34179,0.0352 16.562,13.074 30.116 0 1 0.3418,0.041 16.562,13.074 30.116 0 1 0.34375,0.0469 16.562,13.074 30.116 0 1 0.3418,0.0527 16.562,13.074 30.116 0 1 0.34375,0.0606 16.562,13.074 30.116 0 1 0.34179,0.0684 16.562,13.074 30.116 0 1 0.34375,0.0723 16.562,13.074 30.116 0 1 0.3418,0.0801 16.562,13.074 30.116 0 1 0.3418,0.0859 16.562,13.074 30.116 0 1 0.34179,0.0937 16.562,13.074 30.116 0 1 0.33985,0.0977 16.562,13.074 30.116 0 1 0.33984,0.10547 16.562,13.074 30.116 0 1 0.33789,0.11132 16.562,13.074 30.116 0 1 0.33594,0.11719 16.562,13.074 30.116 0 1 0.33594,0.125 16.562,13.074 30.116 0 1 0.33398,0.12891 16.562,13.074 30.116 0 1 0.33203,0.13476 16.562,13.074 30.116 0 1 0.33008,0.14258 16.562,13.074 30.116 0 1 0.32617,0.14844 16.562,13.074 30.116 0 1 0.32617,0.15234 16.562,13.074 30.116 0 1 0.32227,0.15821 16.562,13.074 30.116 0 1 0.32227,0.16601 16.562,13.074 30.116 0 1 0.3164,0.16992 16.562,13.074 30.116 0 1 0.31446,0.17579 16.562,13.074 30.116 0 1 0.3125,0.17968 16.562,13.074 30.116 0 1 0.30859,0.1875 16.562,13.074 30.116 0 1 0.30469,0.19141 16.562,13.074 30.116 0 1 0.30273,0.19726 16.562,13.074 30.116 0 1 0.29688,0.20118 16.562,13.074 30.116 0 1 0.29492,0.20703 16.562,13.074 30.116 0 1 0.29101,0.21094 16.562,13.074 30.116 0 1 0.28711,0.21679 16.562,13.074 30.116 0 1 0.28125,0.22071 16.562,13.074 30.116 0 1 0.27735,0.22656 16.562,13.074 30.116 0 1 0.043,0.0351 16.562,13.074 30.116 0 1 0.27343,0.23047 16.562,13.074 30.116 0 1 0.26758,0.23438 16.562,13.074 30.116 0 1 0.26367,0.24023 16.562,13.074 30.116 0 1 0.25977,0.24219 16.562,13.074 30.116 0 1 0.25391,0.24805 16.562,13.074 30.116 0 1 0.24804,0.25 16.562,13.074 30.116 0 1 0.24219,0.25586 16.562,13.074 30.116 0 1 0.23828,0.25781 16.562,13.074 30.116 0 1 0.23438,0.26172 16.562,13.074 30.116 0 1 0.22656,0.26562 16.562,13.074 30.116 0 1 0.2207,0.26758 16.562,13.074 30.116 0 1 0.2168,0.27149 16.562,13.074 30.116 0 1 0.20898,0.27539 16.562,13.074 30.116 0 1 0.20508,0.27734 16.562,13.074 30.116 0 1 0.19727,0.2793 16.562,13.074 30.116 0 1 0.1914,0.2832 16.562,13.074 30.116 0 1 0.18555,0.28516 16.562,13.074 30.116 0 1 0.17969,0.28711 16.562,13.074 30.116 0 1 0.17187,0.29101 16.562,13.074 30.116 0 1 0.16602,0.29102 16.562,13.074 30.116 0 1 0.16015,0.29297 16.562,13.074 30.116 0 1 0.15235,0.29687 16.562,13.074 30.116 0 1 0.14648,0.29687 16.562,13.074 30.116 0 1 0.14063,0.29688 16.562,13.074 30.116 0 1 0.13281,0.30078 16.562,13.074 30.116 0 1 0.125,0.30078 16.562,13.074 30.116 0 1 0.11914,0.30274 16.562,13.074 30.116 0 1 0.11133,0.30273 16.562,13.074 30.116 0 1 0.10547,0.30469 16.562,13.074 30.116 0 1 0.0976,0.30273 16.562,13.074 30.116 0 1 0.0899,0.30664 16.562,13.074 30.116 0 1 0.082,0.30469 16.562,13.074 30.116 0 1 0.0762,0.30469 16.562,13.074 30.116 0 1 0.0684,0.30664 16.562,13.074 30.116 0 1 0.0625,0.30469 16.562,13.074 30.116 0 1 0.0527,0.30468 16.562,13.074 30.116 0 1 0.0469,0.30469 16.562,13.074 30.116 0 1 0.0391,0.30469 16.562,13.074 30.116 0 1 0.0312,0.30469 16.562,13.074 30.116 0 1 0.0254,0.30273 16.562,13.074 30.116 0 1 0.0156,0.30078 16.562,13.074 30.116 0 1 0.01,0.30078 16.562,13.074 30.116 0 1 0.002,0.29883 16.562,13.074 30.116 0 1 -0.006,0.29883 16.562,13.074 30.116 0 1 -0.0137,0.29688 16.562,13.074 30.116 0 1 -0.0195,0.29492 16.562,13.074 30.116 0 1 -0.0293,0.29297 16.562,13.074 30.116 0 1 -0.0352,0.29101 16.562,13.074 30.116 0 1 -0.043,0.28906 16.562,13.074 30.116 0 1 -0.0508,0.28711 16.562,13.074 30.116 0 1 -0.0566,0.28321 16.562,13.074 30.116 0 1 -0.0644,0.2832 16.562,13.074 30.116 0 1 -0.0723,0.2793 16.562,13.074 30.116 0 1 -0.0801,0.27734 16.562,13.074 30.116 0 1 -0.0879,0.27344 16.562,13.074 30.116 0 1 -0.0937,0.26953 16.562,13.074 30.116 0 1 -0.10156,0.26758 16.562,13.074 30.116 0 1 -0.10742,0.26562 16.562,13.074 30.116 0 1 -0.11524,0.25977 16.562,13.074 30.116 0 1 -0.12304,0.25781 16.562,13.074 30.116 0 1 -0.12891,0.25391 16.562,13.074 30.116 0 1 -0.13672,0.25 16.562,13.074 30.116 0 1 -0.14258,0.24609 16.562,13.074 30.116 0 1 -0.15039,0.24219 16.562,13.074 30.116 0 1 -0.15625,0.23828 16.562,13.074 30.116 0 1 -0.16211,0.23242 16.562,13.074 30.116 0 1 -0.16992,0.23047 16.562,13.074 30.116 0 1 -0.17578,0.22461 16.562,13.074 30.116 0 1 -0.18359,0.2207 16.562,13.074 30.116 0 1 -0.1875,0.21485 16.562,13.074 30.116 0 1 -0.19532,0.21093 16.562,13.074 30.116 0 1 -0.20117,0.20703 16.562,13.074 30.116 0 1 -0.0312,0.0312 16.562,13.074 30.116 0 1 -0.20898,0.19922 16.562,13.074 30.116 0 1 -0.21289,0.19532 16.562,13.074 30.116 0 1 -0.22071,0.1914 16.562,13.074 30.116 0 1 -0.22461,0.1836 16.562,13.074 30.116 0 1 -0.23046,0.17968 16.562,13.074 30.116 0 1 -0.23633,0.17383 16.562,13.074 30.116 0 1 -0.24219,0.16992 16.562,13.074 30.116 0 1 -0.24609,0.16211 16.562,13.074 30.116 0 1 -0.25196,0.15821 16.562,13.074 30.116 0 1 -0.25781,0.15039 16.562,13.074 30.116 0 1 -0.26172,0.14648 16.562,13.074 30.116 0 1 -0.26758,0.14063 16.562,13.074 30.116 0 1 -0.26953,0.13281 16.562,13.074 30.116 0 1 -0.27734,0.1289 16.562,13.074 30.116 0 1 -0.2793,0.1211 16.562,13.074 30.116 0 1 -0.28515,0.11719 16.562,13.074 30.116 0 1 -0.0352,0.0137 c 0.32552,0.16272 0.52343,0.29805 0.85742,0.46289 25.397,-10.964 7.0584,-31.741 -8.8984,-31.156 z"
                   fill="#ffffff"
                   stroke="#000000"
                   stroke-width="1.6046px"
                   id="path124" />
                <ellipse
                   transform="matrix(0.38625,-0.92239,0.84331,0.53742,0,0)"
                   cx="-30.386"
                   cy="20.655001"
                   rx="1.7438"
                   ry="1.8578"
                   fill="#ffffff"
                   stroke="#000000"
                   stroke-width="0.24836"
                   id="ellipse126" />
                <g
                   id="g140">
                  <g
                     stroke="#000000"
                     id="g136">
                    <path
                       d="m 7.7267,34.893 1.2319,-0.02989 c 0.32455,-0.88362 -0.33947,-1.4994 -0.33947,-1.4994 0,0 -0.0014,1.122 -0.89243,1.5293 z"
                       stroke-width="0.24838px"
                       id="path128" />
                    <path
                       d="m 10.478,35.796 1.0335,0.33391 c 0.47337,-1.1813 0.33026,-1.8136 0.33026,-1.8136 -0.0014,-0.0066 0.0061,1.2073 -1.2893,1.2234 z"
                       stroke-width="0.24838px"
                       id="path130" />
                    <path
                       d="m 13.779,40.237 0.0135,-1.0585 c 0.92169,-0.0856 1.7477,0.85901 1.7477,0.85901 0.34387,0.57882 -0.99462,-0.80108 -1.7612,0.19951 z"
                       stroke-width="0.22896px"
                       id="path132" />
                    <path
                       d="m 14.009,41.062 0.11801,-0.96467 c 0.62456,-0.0575 1.0026,0.68051 1.0026,0.68051 0,0 -0.74381,-0.15627 -1.1206,0.28416 z"
                       stroke-width="0.15448px"
                       id="path134" />
                  </g>
                  <path
                     d="M 9.1132,44.511 C 6.9922,43.2036 5.8247,42.2945 5.0103,41.3159 4.66461,40.90052 4.32313,40.2982 4.32345,40.2504 c 1.069e-4,-0.01581 0.31222,0.34014 0.40088,0.41142 0.44817,0.36038 0.82323,0.47388 1.2851,0.44196 1.2698,-0.08775 1.7957,-1.4094 1.1628,-2.8262 -0.17629,-0.39462 -0.61027,-0.782 -1.1109,-0.98322 -0.44525,-0.17897 -0.48826,-0.1523 -0.90495,-0.13299 -0.28037,0.01299 -0.30223,0.14296 -0.51573,0.25597 -0.43877,0.23224 -0.4521,0.20722 -0.52563,0.713 -0.036551,0.25142 -0.37783,1.3752 -0.37925,1.0204 -9.15e-4,-0.22108 -0.010479,-1.4184 0.1294,-1.6782 0.28983,-0.53824 0.41674,-0.69186 0.70594,-0.85457 0.63541,-0.35748 1.2352,-0.4844 2.0759,-0.43923 0.6153,0.03305 0.93671,0.10312 1.5143,0.33008 0.8789,0.34538 1.6248,0.89026 2.3148,1.6911 0.78714,0.91345 1.23,1.8502 1.3871,2.9341 0.19864,1.3704 -0.23507,2.6619 -1.1587,3.4504 -0.21986,0.1877 -0.63682,0.45538 -0.70704,0.45391 -0.016319,-3.52e-4 -0.41428,-0.23768 -0.88434,-0.52742 z"
                     id="path138" />
                </g>
              </g>
            </g>
            <path
               transform="matrix(0.89527,0,0,0.80535,155.03,-114.39)"
               d="m 78.162,107.76 c 3.9332,9.5072 11.656,7.9678 24.196,10.701 5.2423,1.5143 6.83,3.95 6.0854,10.583 0,0 2.158,-3.167 1.961,-5.5913 1.2585,0.67374 1.7413,3.2353 1.557,4.0827 1.5326,-1.0686 1.4899,-4.0312 0.41074,-6.0041 -2.2841,-4.1755 -7.5713,-5.9465 -7.5781,-5.9262 -9.1193,-2.9883 -19.756,-0.84461 -22.697,-9.0289 -0.38212,0.10864 -2.9898,0.97056 -3.9354,1.1837 z"
               fill="#800000"
               stroke="#000000"
               stroke-width="0.26458px"
               id="path146" />
          </g>
          <g
             transform="rotate(-26.391,460.33,-215.71)"
             id="g214">
            <g
               transform="translate(-63.483,70.727)"
               id="g166">
              <path
                 d="m 207.55,-263.47 3.3392,-0.50781 4.1686,11.306 -3.1508,-0.65422 z"
                 fill="#ffffff"
                 id="path150" />
              <g
                 id="g164">
                <path
                   d="m 210.13,-253.76 c -4.6754,-1.3984 -8.7356,-2.4714 -12.436,-4.3874 0.68366,-0.70656 0.83597,-0.87552 1.5118,-1.5087 0.89486,-0.74798 1.6666,-1.177 2.4749,-1.6626 0.95583,-0.57431 3.4399,-1.5984 3.4565,-1.5798 0.025,0.0279 5.997,9.3494 5.997,9.3604 -1.7e-4,0.0217 -0.2042,-0.0265 -1.0039,-0.22186 z"
                   fill="#ffffff"
                   id="path152" />
                <path
                   d="m 211.14,-253.53 -2.8404,-4.5979 c -1.6412,-2.6566 -2.9782,-4.8644 -2.9882,-4.8822 0.52664,-0.19992 1.3544,-0.31214 2.0423,-0.4311 0.007,0.009 4.5393,10.061 4.5598,10.114 -0.20025,-0.11017 -0.65174,-0.39931 -0.77358,-0.20266 z"
                   id="path154" />
                <g
                   stroke-opacity="0"
                   id="g162">
                  <path
                     d="m 240.79,-249.23 c -6.5963,-0.36544 -12.077,-1.0501 -18.415,-2.0759 -2.753,-0.44556 -7.2448,-1.2916 -7.3103,-1.3757 -0.0117,-0.015 -0.90977,-2.5228 -2.0738,-5.5862 -1.2392,-3.261 -2.1335,-5.6959 -2.0948,-5.7194 0.0364,-0.0221 0.74959,-0.0761 1.2858,-0.13356 9.9738,-1.0693 21.078,0.28049 32.065,3.9706 3.6191,1.2155 6.9118,2.5211 10.574,4.3204 1.1754,0.57751 1.2381,0.74785 1.564,1.1456 0.40324,0.49216 0.75598,1.2041 0.89651,1.7706 0.19571,0.78896 -0.0708,1.5282 -0.89939,2.0427 -1.3928,0.8648 -4.1652,1.4535 -7.8861,1.6434 -0.98604,0.0503 -6.6266,0.0573 -7.7062,-0.003 z"
                     id="path156" />
                  <path
                     d="m 183.47,-240.17 c 0,0 -1.753,-0.44909 -3.9024,-2.4951 -2.8988,-2.7594 -2.3347,-4.7928 -2.3347,-4.7928 l -0.9321,-8.4263 c -0.0887,-0.80175 1.7472,-5.2234 1.7472,-5.2234 0.95567,-2.7675 3.5365,-6.467 3.5365,-6.467 l 24.726,-12.178 c 5.5781,-4.152 14.275,-9.0768 23.368,-10.574 9.2917,-1.5302 18.515,8e-4 23.527,2.785 4.2274,2.3481 9.0614,6.5333 12.221,10.581 1.9284,2.4702 3.4758,5.1938 4.1752,7.3484 1.39,4.2821 0.25668,7.2794 -3.4659,9.1662 -2.0614,1.0448 -4.8523,1.8196 -6.8694,1.907 -0.56896,0.0247 -0.74726,-0.0335 -1.2537,-0.40859 -3.5428,-2.6245 -10.935,-5.9744 -17.363,-7.8684 -16.342,-4.815 -30.758,-3.4963 -43.804,2.7583 -7.1192,3.4131 -7.5497,10.865 -12.407,17.307 -1.4095,6.781 -0.96765,6.5808 -0.96765,6.5808 z"
                     fill="#f2f2f2"
                     id="path158" />
                  <path
                     d="m 183.47,-240.17 c 0,0 0.88369,-6.7908 3.8899,-13.018 2.3211,-4.8082 6.5931,-9.1173 9.485,-10.87 5.1639,-3.0006 7.3699,-3.7669 13.558,-4.7391 0.58756,-0.0923 1.2622,-0.0567 1.9265,-0.15737 4.7201,-0.71548 12.803,-0.19372 15.895,0.22372 7.3316,0.98998 14.323,2.837 20.913,5.525 2.438,0.99444 9.3308,4.5902 9.3291,4.8163 -5.3e-4,0.0719 -1.2178,1.1292 -1.4863,1.3794 -0.36635,0.3415 -0.9116,1.261 -1.1892,1.738 -0.015,0.0257 -0.8735,-0.43888 -1.6847,-0.9177 -3.0938,-1.8262 -6.8269,-3.3189 -10.765,-4.6813 -5.5247,-1.9113 -11.545,-3.4351 -17.574,-4.113 -3.2074,-0.36063 -10.633,0.1375 -13.709,0.49219 -14.848,1.7124 -19.431,9.242 -19.431,9.242 0,0 -2.777,4.9167 -3.6829,7.1075 -1.7421,2.0553 -2.4152,8.4678 -2.4152,8.4678 z"
                     fill="#00c1ff"
                     id="path160" />
                </g>
              </g>
            </g>
            <g
               transform="matrix(1.0979,-0.064114,0.059936,1.1744,-57.967,55.408)"
               id="g194">
              <g
                 transform="translate(-35.399,2.6731)"
                 id="g172">
                <path
                   transform="matrix(0.75722,0.21863,-0.19274,0.70602,269.78,-213.28)"
                   d="m 8.3344,7.6729 -7.5819,8.0711 -11.037,-0.89554 -6.1816,-9.1878 3.3292,-10.561 10.333,-3.9821 9.5558,5.5958 z"
                   fill="#ffffff"
                   stroke="#000000"
                   id="path168" />
                <path
                   d="m 263.15,-203.69 c -2.1746,-0.79737 -3.9942,-1.5148 -4.0436,-1.5943 -0.0494,-0.0795 -0.71989,-1.807 -1.49,-3.8389 l -1.4002,-3.6944 2.2912,-3.3116 c 1.4012,-2.0251 2.3777,-3.3108 2.5139,-3.3096 0.12245,10e-4 2.0269,-0.11292 4.2322,-0.25337 l 4.0095,-0.25536 0.44273,0.36998 c 0.2435,0.2035 1.6518,1.5353 3.1295,2.9595 l 2.6868,2.5895 -0.40565,3.5828 c -0.22312,1.9705 -0.44929,3.7561 -0.50257,3.9679 -0.0843,0.33498 -0.56113,0.63725 -3.664,2.3224 -1.962,1.0656 -3.6299,1.9324 -3.7065,1.9263 -0.0766,-0.006 -1.9185,-0.66348 -4.0931,-1.4609 z"
                   fill="#00c1ff"
                   id="path170" />
              </g>
              <g
                 fill="#ffffff"
                 id="g192">
                <path
                   d="m 227.17,-209.46 c -0.0814,-0.0347 0.0981,-1.6093 1.8426,-3.2304 0.50939,-0.47588 1.2908,-0.91657 2.2015,-0.85683 0.72602,0.0652 1.4144,0.42628 1.9737,0.96561 0.57868,0.55054 1.0378,1.2456 1.3709,2.0287 0.31962,0.74407 0.5292,1.5755 0.54455,2.4439 0.002,0.0649 0.002,0.13024 6.4e-4,0.1958 -0.0124,0.72789 -0.19008,1.4507 -0.58609,2.061 -0.49253,0.73077 -1.2726,1.1628 -2.0468,1.3121 -1.2989,0.24633 -2.58,-0.0662 -3.5577,-0.39065 -1.073,-0.35106 -1.7009,-1.2118 -1.8963,-1.9843 -0.38959,-1.6194 0.0816,-2.5557 0.15293,-2.5449 0.0714,0.0108 -0.24442,1.0211 0.21839,2.4408 0.20203,0.64457 0.78207,1.3402 1.6771,1.5908 0.95925,0.26788 2.1694,0.53564 3.282,0.28696 0.63897,-0.14087 1.2749,-0.49642 1.6332,-1.063 0.31789,-0.47825 0.45483,-1.0861 0.47116,-1.7225 10e-4,-0.0573 0.002,-0.11459 0.002,-0.17172 -0.0108,-0.76931 -0.19841,-1.5229 -0.48149,-2.2065 -0.30113,-0.7192 -0.69991,-1.3512 -1.2015,-1.8444 -0.48553,-0.47 -1.0391,-0.7972 -1.6074,-0.85352 -0.69016,-0.0904 -1.3759,0.26762 -1.8505,0.65466 -1.6781,1.3801 -2.0611,2.9231 -2.1425,2.8884 z"
                   id="path174" />
                <path
                   d="m 230.17,-208.02 c 0.12693,0.0833 -0.42032,1.1055 -1.2886,2.2039 -0.86826,1.0984 -1.6277,1.928 -1.7521,1.841 -0.12435,-0.0871 0.45472,-1.0878 1.3204,-2.1823 0.86568,-1.0945 1.5933,-1.9458 1.7202,-1.8626 z"
                   id="path176" />
                <path
                   d="m 231.29,-207.91 c 0.15029,-0.098 0.84389,0.70946 1.5028,1.8182 0.65895,1.1088 1.0674,2.0757 0.91417,2.1691 -0.15319,0.0934 -0.81694,-0.73287 -1.473,-1.837 -0.65606,-1.1042 -1.0943,-2.0523 -0.94402,-2.1503 z"
                   id="path178" />
                <path
                   d="m 232.02,-208.53 c 0.0153,-0.15103 1.048,-0.15427 2.1996,0.27781 1.1516,0.43208 1.9833,0.96999 1.924,1.1097 -0.0593,0.13975 -1.0108,-0.17372 -2.1185,-0.59452 -1.1077,-0.4208 -2.0204,-0.642 -2.0052,-0.79303 z"
                   id="path180" />
                <path
                   d="m 231.67,-209.43 c -0.0649,-0.10591 0.77112,-0.73686 1.897,-1.3461 1.1259,-0.60919 2.0985,-0.98263 2.155,-0.872 0.0565,0.11062 -0.82338,0.66332 -1.9408,1.2678 -1.1175,0.60449 -2.0463,1.0562 -2.1111,0.95026 z"
                   id="path182" />
                <path
                   d="m 230.88,-209.83 c -0.17929,-0.006 -0.28604,-1.036 -0.2356,-2.2943 0.0504,-1.2584 0.22342,-2.2731 0.40276,-2.2686 0.17934,0.004 0.29721,1.0345 0.24672,2.2946 -0.0505,1.2601 -0.23459,2.2745 -0.41388,2.2683 z"
                   id="path184" />
                <path
                   d="m 226.89,-212.51 c 0.1064,-0.11054 0.93662,0.52423 1.8442,1.4032 0.62001,0.60044 1.1345,1.1759 1.3751,1.5196 0.0568,0.0386 0.10077,0.0682 0.141,0.10607 -3e-4,0.0114 0.003,0.0217 0.005,0.04 8.7e-4,0.006 6.9e-4,0.0115 0.002,0.0173 0.008,0.0474 0.0261,0.0631 0.0152,0.0818 -0.009,0.0147 -0.0412,0.0326 -0.0622,0.0128 -0.003,-0.003 -0.006,-0.006 -0.0101,-0.009 -0.0153,-0.0122 -0.0331,-0.0131 -0.0742,-0.0202 -0.0401,-0.004 -0.0879,-0.003 -0.15136,-0.006 -0.33189,-0.20686 -0.92377,-0.6968 -1.5668,-1.3121 -0.9482,-0.90726 -1.624,-1.7222 -1.5177,-1.8327 z"
                   id="path186" />
                <path
                   d="m 229.94,-208.68 c 0.03,0.14881 -1.0438,0.49085 -2.3969,0.76349 -1.3531,0.27264 -2.4756,0.37314 -2.5056,0.22433 -0.03,-0.14881 1.0438,-0.49085 2.3969,-0.76349 1.3531,-0.27264 2.4756,-0.37314 2.5056,-0.22433 z"
                   id="path188" />
                <path
                   d="m 230.88,-209.83 c 0.0636,0.0863 -0.39063,0.42217 -0.68634,1.0206 -0.0535,0.14482 -0.1197,0.30455 -0.0569,0.33818 0.009,0.0535 0.115,0.089 0.24505,0.14625 0.16062,0.0512 0.34658,0.0626 0.5501,0.0531 l 0.006,-3e-4 c 0.20687,-0.0149 0.39426,-0.0498 0.55223,-0.12093 0.12837,-0.0735 0.23336,-0.12409 0.24177,-0.18497 0.0589,-0.0416 -0.0168,-0.19318 -0.0817,-0.32728 -0.34044,-0.55427 -0.82369,-0.83285 -0.77055,-0.92465 0.0531,-0.0918 0.59475,-0.0372 1.1813,0.60693 0.16482,0.16272 0.31528,0.45233 0.23619,0.83263 -0.10446,0.27966 -0.31013,0.4762 -0.53614,0.5703 -0.24602,0.11986 -0.51342,0.18242 -0.78336,0.19675 -0.003,1.9e-4 -0.006,3.8e-4 -0.008,5.7e-4 -0.26501,0.0178 -0.53434,-0.0115 -0.79043,-0.10066 -0.23444,-0.0656 -0.46022,-0.23969 -0.59147,-0.51014 -0.11245,-0.37679 0.0149,-0.67933 0.16336,-0.85469 0.52683,-0.70636 1.0652,-0.82797 1.1288,-0.74169 z"
                   id="path190" />
              </g>
            </g>
            <g
               id="g212">
              <g
                 id="g208">
                <path
                   d="m 119.98,-169.45 c -0.0737,0.15151 -4.5724,-0.84771 -7.1013,-6.952 -1.0928,-2.6613 -1.5265,-6.0962 -0.7147,-9.9132 h 1e-5 c 1.2273,-5.8405 5.7608,-13.121 13.895,-15.497 1.9118,-0.55341 3.9359,-1.0948 5.739,-1.9253 4.1294,-1.8815 7.8784,-4.4276 12.012,-7.2885 4.3381,-3.0156 9.1897,-5.8907 14.461,-7.9569 2.4516,-0.96085 4.9395,-1.7257 7.468,-2.2624 7.2102,-1.5139 14.424,-0.85765 20.732,1.019 1.8999,0.56942 3.6244,1.4795 5.1783,2.4525 1.9648,1.2248 3.7528,2.6164 5.371,4.0525 3.7928,3.3561 6.7154,6.9052 8.721,10.68 0.97856,1.8342 1.6766,3.6705 1.9538,5.5497 0.26984,1.7891 0.0445,3.531 -0.70068,4.9719 -0.98229,1.8321 -2.6786,2.9307 -4.1081,3.5318 -4.8419,2.0484 -7.9212,1.3378 -7.9282,1.1884 -0.007,-0.1494 3.1475,0.21921 7.5834,-1.9473 1.2839,-0.63154 2.7824,-1.6845 3.5138,-3.247 0.59615,-1.2162 0.71585,-2.7205 0.44839,-4.3083 -0.29119,-1.6925 -0.98872,-3.3601 -1.9529,-5.0905 -1.9941,-3.5642 -4.8657,-6.9002 -8.5913,-10.115 -1.5864,-1.3644 -3.3197,-2.6783 -5.2006,-3.8185 -1.4992,-0.90455 -3.0966,-1.735 -4.7809,-2.2125 -6.0836,-1.7425 -13.004,-2.3354 -19.849,-0.86948 -2.418,0.51186 -4.8058,1.2483 -7.1698,2.1774 -5.0804,1.9968 -9.8179,4.7941 -14.102,7.7238 -4.1493,2.8506 -8.0283,5.4276 -12.347,7.3513 -1.9953,0.88035 -4.099,1.4236 -6.0014,1.9434 -7.4036,1.9962 -11.814,8.7444 -13.118,14.173 -0.84647,3.5662 -0.57229,6.7729 0.35125,9.3016 2.0796,5.7572 6.3107,7.1363 6.237,7.2878 z"
                   id="path196" />
                <path
                   d="m 119.98,-169.45 c -0.0946,-0.0105 -0.0635,-2.463 0.96765,-6.5808 0.98037,-3.9152 3.202,-10.128 8.3995,-15.012 2.4075,-2.2526 5.38,-4.1812 8.8208,-5.5946 3.2546,-1.3367 6.8043,-2.1876 10.56,-2.6047 0.52426,-0.0582 1.051,-0.1083 1.5803,-0.15047 8.0161,-0.63876 15.711,0.6231 22.062,2.2573 14.162,3.6383 22.68,9.1663 22.588,9.3354 -0.0926,0.16916 -8.735,-5.0312 -22.805,-8.4693 -6.3083,-1.5391 -13.912,-2.7432 -21.765,-2.1132 -0.51902,0.0416 -1.0354,0.091 -1.5492,0.14805 -3.6762,0.40803 -7.1367,1.2225 -10.302,2.503 -3.3431,1.352 -6.2368,3.1892 -8.5884,5.3391 -5.0787,4.6223 -7.3907,10.677 -8.4952,14.498 -1.1636,4.0253 -1.3792,6.455 -1.4737,6.4444 z"
                   id="path198" />
                <path
                   d="m 123.12,-168.44 c -0.14016,-0.0188 -0.30291,-5.1925 3.3868,-12.183 1.4482,-2.7409 3.6484,-5.6838 6.7818,-8.0946 2.5558,-1.9633 5.6274,-3.5104 9.0934,-4.5425 2.8902,-0.86085 5.9528,-1.3552 9.151,-1.5423 0.45011,-0.0263 0.89877,-0.0464 1.3455,-0.0606 8.1457,-0.25874 15.804,1.3038 21.869,3.031 11.048,3.1409 17.635,7.126 17.552,7.2818 -0.0831,0.15587 -6.7659,-3.5204 -17.777,-6.466 -6.0387,-1.6128 -13.624,-3.0982 -21.611,-2.8332 -0.43822,0.0145 -0.87805,0.0345 -1.319,0.0604 -3.1333,0.18416 -6.1195,0.65592 -8.9298,1.4789 -3.3661,0.98614 -6.3454,2.4498 -8.8273,4.3123 -3.042,2.279 -5.2227,5.0901 -6.6934,7.7199 -3.7599,6.7165 -3.8818,11.857 -4.0219,11.838 z"
                   id="path200" />
                <path
                   d="m 119.98,-169.45 c -0.23855,-0.14377 0.25321,-0.14946 1.0977,-0.0127 0.84449,0.13676 1.7234,0.36442 1.962,0.50819 0.23855,0.14377 -0.25321,0.14946 -1.0977,0.0127 -0.84449,-0.13676 -1.7234,-0.36442 -1.962,-0.50819 z"
                   id="path202" />
                <path
                   d="m 192.3,-184.55 c -0.0769,-0.0629 0.45597,-0.84155 1.1894,-1.738 0.73347,-0.89646 1.3912,-1.573 1.4681,-1.51 0.0769,0.0629 -0.45596,0.84156 -1.1894,1.738 -0.73348,0.89646 -1.3912,1.573 -1.4681,1.51 z"
                   id="path204" />
                <path
                   d="m 132.59,-188.05 c 0.0523,-0.0983 2.7237,1.2256 7.4579,2.6316 2.8414,0.8427 6.0104,1.6482 9.9985,2.4974 h 1e-5 c 4.5193,0.96198 9.5546,1.8754 15.045,2.6083 2.6098,0.34837 5.1404,0.63164 7.5891,0.85937 3.6682,0.34089 6.9178,0.53196 10.039,0.54754 2.9387,0.0126 5.2162,-0.0832 7.4426,-0.5288 0.89194,-0.18009 1.6472,-0.38681 2.3244,-0.72658 0.53879,-0.27946 0.9655,-0.58926 1.1707,-1.0152 0.23159,-0.43224 0.14076,-0.97846 -0.008,-1.3695 -0.54709,-1.4134 -1.3886,-1.9591 -1.3473,-2.003 0.0413,-0.044 0.94347,0.36181 1.6603,1.8675 0.20897,0.43539 0.34728,1.0712 0.0853,1.6885 -0.25436,0.5509 -0.73873,0.97007 -1.3249,1.2811 -0.7227,0.39505 -1.5242,0.65047 -2.4348,0.85924 -2.2649,0.52326 -4.6179,0.68285 -7.5656,0.71542 -3.144,0.0368 -6.4387,-0.1186 -10.12,-0.43789 -2.4616,-0.21332 -5.0076,-0.49006 -7.63,-0.84009 -5.5131,-0.73588 -10.579,-1.6909 -15.099,-2.7187 -3.9726,-0.9031 -7.1897,-1.7953 -10,-2.727 -4.7099,-1.5596 -7.3351,-3.0909 -7.2828,-3.1892 z"
                   id="path206" />
              </g>
              <path
                 d="m 141.52,-192.57 2.2671,-0.50416 4.6381,10.471 -0.77358,-0.20266 z"
                 fill="none"
                 stroke="#000000"
                 stroke-width="0.26458px"
                 id="path210" />
            </g>
          </g>
          <path
             transform="scale(0.26458)"
             d="m 660.82,-87.367 c -12.813,-1.1935 -25.633,-8.6499 -34.327,-19.965 -3.3037,-4.3003 -7.2981,-11.886 -9.2352,-17.539 -4.3579,-12.717 -5.0175,-27.693 -1.8369,-41.708 1.9458,-8.574 5.5583,-16.931 10.283,-23.788 3.7273,-5.4096 5.4454,-7.2584 13.626,-14.661 6.4037,-5.7951 10.316,-9.7486 13.87,-14.015 6.3686,-7.6455 13.414,-17.994 20.686,-30.383 1.2558,-2.1396 2.3432,-3.8889 2.4164,-3.8874 0.23169,0.005 -0.3398,7.7405 -0.81157,10.985 -1.387,9.5396 -5.0253,18.874 -10.606,27.21 -1.0701,1.5985 -3.8265,5.511 -6.1254,8.6945 -5.222,7.2314 -6.748,9.5966 -8.9512,13.874 -5.1757,10.049 -6.6841,19.924 -4.9236,32.233 1.1559,8.0825 4.1095,17.792 8.3015,27.289 1.2846,2.9104 1.5222,3.6849 1.6223,5.2877 0.68633,10.994 5.4191,30.795 9.2968,38.897 0.41043,0.85757 0.74498,1.6187 0.74345,1.6913 -0.003,0.14789 -0.27487,0.1333 -4.0285,-0.21632 z"
             fill="#b3b3b3"
             stroke-opacity="0"
             id="path216" />
        </g>
      </g>
    </g>
    <g
       id="g240">
      <g
         transform="matrix(1.7251,0,0,1.7939,-711.07,-16.2)"
         id="g224" />
      <g
         transform="matrix(0.0035157,-9.7434e-4,4.7486e-4,0.0036843,2.586,3.7123)"
         stroke-opacity="0"
         id="g238">
        <g
           fill="#736ba6"
           id="g232">
          <path
             x="91.148506"
             y="-48.516876"
             width="403.82104"
             height="76.295708"
             rx="18.619457"
             ry="19.36154"
             d="m 108.9,-48.285 c 56.306,0.74192 112.57,1.7832 168.79,3.0773 h 2e-5 c 32.555,0.73068 63.019,1.8036 91.404,1.7309 7.537,-0.07681 12.986,-0.07117 16.313,-0.38473 l 1e-5,-10e-7 c 1.9754,-0.32042 1.3531,-0.05183 -1.9775,0.46484 -3.4786,0.89699 -5.618,1.4755 -6.433,1.8949 0.009,-5.44e-4 0.0197,-0.0023 0.0328,-0.0051 0.73203,-0.1612 12.31,3.7687 16.848,13.631 l 15.706,34.133 c 2.2492,4.8881 2.478,10.06 1.5049,14.381 -0.96493,4.2846 -3.1192,7.6747 -5.6784,8.6721 -0.091,0.03546 -0.18112,0.07029 -0.27041,0.10447 -2.2555,0.85422 -4.0169,1.4716 -5.2691,1.6928 -1.8477,0.50076 -4.9163,0.76662 -9.0952,1.1385 h -2e-5 c -6.2823,0.47672 -13.484,0.53409 -21.573,0.57372 -30.205,0.05661 -61.291,-1.023 -93.268,-1.7511 h -2e-5 c -55.993,-1.2888 -112.01,-2.3255 -168.04,-3.0638 -9.0441,-0.11915 -16.221,-8.8412 -16.091,-19.567 l 0.45568,-37.57 c 0.13009,-10.726 7.5522,-19.272 16.64,-19.152 z"
             id="path226" />
          <path
             x="91.148506"
             y="44.865509"
             width="403.82104"
             height="76.295708"
             rx="18.619457"
             ry="19.36154"
             d="m 107.67,45.089 c 55.973,0.7374 111.93,1.7731 167.87,3.0607 l 10e-6,10e-7 c 31.848,0.72748 63.073,1.8086 93.685,1.7556 8.2117,-0.03131 15.806,-0.10279 22.751,-0.61605 l 1e-5,-10e-7 c 4.6724,-0.38344 8.5676,-0.76899 11.575,-1.4976 2.3118,-0.47164 4.9467,-1.3568 7.8898,-2.4963 0.10732,-0.04171 0.2152,-0.08395 0.32364,-0.12671 3.0089,-1.1864 7.1468,-0.72657 11.152,1.2966 4.0428,2.0423 7.7352,5.5793 9.9954,10.491 l 15.706,34.133 c 2.2248,4.8351 2.6877,10.046 1.3607,14.464 -1.3372,4.4517 -4.5599,8.3002 -9.8335,10.432 -0.18638,0.0754 -0.37349,0.1507 -0.56131,0.22605 -6.0137,2.413 -12.549,4.4941 -19.592,6.084 -8.1858,1.746 -15.772,2.666 -22.648,3.101 h -2e-5 c -9.8995,0.67643 -19.247,0.8109 -28.01,0.80504 -32.433,0.037 -64.279,-1.0508 -95.549,-1.7757 h -2e-5 c -55.713,-1.2823 -111.42,-2.3135 -167.12,-3.0472 -8.9905,-0.11843 -16.123,-8.8399 -15.993,-19.565 l 0.45568,-37.57 c 0.13009,-10.726 7.5083,-19.273 16.543,-19.154 z"
             id="path228" />
          <path
             x="89.696404"
             y="141.06975"
             width="403.82104"
             height="76.295708"
             rx="18.619457"
             ry="19.36154"
             d="m 105.13,141.27 c 56.052,0.73377 112.12,1.7697 168.19,3.0602 h 1e-5 c 31.119,0.72418 63.127,1.8137 96.035,1.7809 8.9068,0.0156 18.712,-0.13535 29.383,-0.85436 7.4508,-0.44836 16,-1.5078 25.537,-3.5193 7.8317,-1.7804 15.016,-4.0187 21.539,-6.5801 0.37314,-0.14651 0.74468,-0.28633 1.1146,-0.41953 5.7181,-2.0417 10.862,-1.9052 15.155,-0.0405 4.2699,1.8544 7.7527,5.4609 9.9256,10.176 l 15.727,34.127 c 4.307,9.3462 2.7138,19.822 -12.681,26.612 v 1e-5 c -0.5232,0.22853 -1.057,0.45048 -1.6011,0.66548 -9.5132,3.7585 -20.43,7.1245 -32.738,9.9629 -14.715,3.0289 -26.956,4.6228 -36.61,5.1227 -13.626,0.88217 -25.185,1.0961 -34.643,1.0434 -34.728,0.0168 -67.358,-1.0795 -97.899,-1.8011 -55.844,-1.2852 -111.66,-2.3166 -167.43,-3.0466 -8.9352,-0.11695 -16.024,-8.8373 -15.894,-19.563 l 0.4526,-37.57 c 0.12921,-10.726 7.4615,-19.274 16.441,-19.156 z"
             id="path230" />
        </g>
        <path
           transform="matrix(2.3667,0,0,2.2804,-926.51,21.321)"
           d="m 560.99,8.1052 c -0.83493,1.1491 -2.2064,2.2316 -3.943,3.3196 v 1e-6 c -2.8025,1.6978 -6.0581,3.2125 -9.5508,4.7028 -1.9966,0.84593 -4.007,1.6801 -6.0284,2.5048 -2.9802,8.9813 -6.0784,17.942 -9.2343,26.89 -2.7199,-9.107 -5.3614,-18.225 -7.9807,-27.347 -5.4086,-2.4953 -10.831,-5.0095 -16.322,-7.4976 -2.3625,-1.0789 -4.7259,-2.1567 -7.0904,-3.2334 2.4071,-0.92506 4.8149,-1.849 7.2236,-2.7717 5.652,-2.1434 11.261,-4.2602 16.774,-6.3973 3.1266,-8.9313 6.1987,-17.869 9.1559,-26.82 2.5354,9.104 5.1,18.197 7.7502,27.272 1.9134,0.87813 3.8233,1.7472 5.7325,2.6051 v 2e-7 c 3.3938,1.5226 6.389,3.0446 9.1822,4.3716 1.7189,0.82247 3.1283,1.6778 4.3318,2.4011 z"
           fill="#ffffff"
           id="path234" />
        <path
           transform="matrix(1.6387,-0.56061,0.53912,1.704,-532.98,330.84)"
           d="m 544.96,9.874 c -4.5141,0.47386 -9.0692,0.89946 -13.654,1.2917 -3.273,3.9551 -6.5694,7.898 -9.883,11.832 0.0901,-5.1595 0.19581,-10.316 0.31143,-15.472 -3.2165,-3.3573 -6.433,-6.7281 -9.668,-10.108 4.6508,-0.32319 9.2767,-0.65785 13.867,-1.0189 3.302,-3.9326 6.5863,-7.8739 9.8465,-11.827 -0.13241,5.1442 -0.25364,10.29 -0.35808,15.437 3.1714,3.3116 6.3447,6.6014 9.5386,9.8652 z"
           fill="#272056"
           id="path236" />
      </g>
    </g>
  </g>
</svg>
